<svg width="34" height="30" viewBox="0 0 34 30" fill="none" xmlns="http://www.w3.org/2000/svg">
<path fill-rule="evenodd" clip-rule="evenodd" d="M0 2.5C0 1.83696 0.255866 1.20107 0.711312 0.732234C1.16676 0.263393 1.78447 0 2.42857 0H31.5714C32.2155 0 32.8332 0.263393 33.2887 0.732234C33.7441 1.20107 34 1.83696 34 2.5C34 3.16304 33.7441 3.79893 33.2887 4.26777C32.8332 4.73661 32.2155 5 31.5714 5H2.42857C1.78447 5 1.16676 4.73661 0.711312 4.26777C0.255866 3.79893 0 3.16304 0 2.5ZM0 15C0 14.337 0.255866 13.7011 0.711312 13.2322C1.16676 12.7634 1.78447 12.5 2.42857 12.5H31.5714C32.2155 12.5 32.8332 12.7634 33.2887 13.2322C33.7441 13.7011 34 14.337 34 15C34 15.663 33.7441 16.2989 33.2887 16.7678C32.8332 17.2366 32.2155 17.5 31.5714 17.5H2.42857C1.78447 17.5 1.16676 17.2366 0.711312 16.7678C0.255866 16.2989 0 15.663 0 15ZM0 27.5C0 26.837 0.255866 26.2011 0.711312 25.7322C1.16676 25.2634 1.78447 25 2.42857 25H17C17.6441 25 18.2618 25.2634 18.7173 25.7322C19.1727 26.2011 19.4286 26.837 19.4286 27.5C19.4286 28.163 19.1727 28.7989 18.7173 29.2678C18.2618 29.7366 17.6441 30 17 30H2.42857C1.78447 30 1.16676 29.7366 0.711312 29.2678C0.255866 28.7989 0 28.163 0 27.5Z" fill="#0D0D0D"/>
</svg>
