<svg width="32" height="28" viewBox="0 0 32 28" fill="none" xmlns="http://www.w3.org/2000/svg">
<path d="M21.0598 11.3947C16.9312 15.8678 12.8009 26.8474 12.8009 26.8474C12.8009 26.8474 6.90052 11.393 1.00181 7.82765" stroke="white" stroke-width="2" stroke-linecap="round" stroke-linejoin="round"/>
<path d="M30.2464 1.90889L30.9584 9.5583C31.4198 14.5207 27.8244 18.9385 23.0272 19.4175C18.3202 19.8843 14.0563 16.3259 13.6033 11.4568C13.4954 10.299 13.609 9.13052 13.9377 8.01813C14.2664 6.90574 14.8037 5.87122 15.519 4.97367C16.2342 4.07611 17.1134 3.3331 18.1062 2.78707C19.0991 2.24103 20.1862 1.90267 21.3055 1.79131L29.1883 1.00631C29.3151 0.993676 29.443 1.007 29.5648 1.04552C29.6866 1.08405 29.7999 1.14702 29.8981 1.23084C29.9964 1.31465 30.0777 1.41768 30.1375 1.53402C30.1972 1.65036 30.2342 1.77775 30.2464 1.90889V1.90889Z" stroke="white" stroke-width="2" stroke-linecap="round" stroke-linejoin="round"/>
</svg>
