<svg width="23" height="5" viewBox="0 0 23 5" fill="none" xmlns="http://www.w3.org/2000/svg">
<path d="M2.0597 4.2025C2.77066 4.2025 3.34701 3.43464 3.34701 2.48744C3.34701 1.54024 2.77066 0.772387 2.0597 0.772387C1.34874 0.772387 0.772387 1.54024 0.772387 2.48744C0.772387 3.43464 1.34874 4.2025 2.0597 4.2025Z" fill="white" stroke="white" stroke-width="1.5" stroke-linecap="round" stroke-linejoin="round"/>
<path d="M11.5 4.2025C12.211 4.2025 12.7873 3.43464 12.7873 2.48744C12.7873 1.54024 12.211 0.772387 11.5 0.772387C10.789 0.772387 10.2127 1.54024 10.2127 2.48744C10.2127 3.43464 10.789 4.2025 11.5 4.2025Z" fill="white" stroke="white" stroke-width="1.5" stroke-linecap="round" stroke-linejoin="round"/>
<path d="M20.9403 4.2025C21.6513 4.2025 22.2276 3.43464 22.2276 2.48744C22.2276 1.54024 21.6513 0.772387 20.9403 0.772387C20.2293 0.772387 19.653 1.54024 19.653 2.48744C19.653 3.43464 20.2293 4.2025 20.9403 4.2025Z" fill="white" stroke="white" stroke-width="1.5" stroke-linecap="round" stroke-linejoin="round"/>
</svg>
