<svg width="25" height="25" viewBox="0 0 25 25" fill="none" xmlns="http://www.w3.org/2000/svg">
<path d="M18.6766 3.10059C18.254 3.10161 17.8358 3.18629 17.4462 3.34974C17.0565 3.5132 16.7031 3.75219 16.4062 4.05293L4.05233 16.4061L4.00389 16.6506L3.14921 20.9475L2.90546 22.0943L4.05311 21.8506L8.34999 20.9959L8.59374 20.9467L20.9476 8.59355C21.2492 8.29724 21.4887 7.94385 21.6521 7.55398C21.8156 7.16412 21.8998 6.7456 21.8998 6.32285C21.8998 5.9001 21.8156 5.48158 21.6521 5.09172C21.4887 4.70186 21.2492 4.34846 20.9476 4.05215C20.6507 3.75146 20.2971 3.51255 19.9073 3.34923C19.5175 3.18591 19.0992 3.1014 18.6766 3.10059ZM18.6766 4.58965C19.0703 4.58965 19.4672 4.76934 19.8484 5.15137C20.6086 5.91074 20.6086 6.73496 19.8484 7.49512L19.2875 8.03184L16.9672 5.7123L17.5047 5.15137C17.8867 4.76934 18.2828 4.58965 18.6766 4.58965ZM15.8695 6.81152L18.1883 9.13105L8.74061 18.5779C8.23057 17.58 7.41856 16.7685 6.4203 16.2592L15.8695 6.81152ZM5.4203 17.5295C5.88267 17.7155 6.30268 17.9931 6.6551 18.3455C7.00751 18.6979 7.28506 19.1179 7.47108 19.5803L4.90702 20.0928L5.4203 17.5295Z" fill="white"/>
</svg>
