<svg width="20" height="24" viewBox="0 0 20 24" fill="none" xmlns="http://www.w3.org/2000/svg">
<path d="M9.99998 24C8.19561 22.5638 6.52312 20.9893 4.99999 19.2929C2.71428 16.7454 1.25556e-06 12.9515 1.25556e-06 9.33619C-0.000990025 7.48983 0.585012 5.6847 1.68384 4.14924C2.78268 2.61378 4.34495 1.41701 6.17294 0.710405C8.00093 0.00379488 10.0125 -0.180898 11.953 0.179701C13.8935 0.540299 15.6758 1.42998 17.0742 2.73615C18.0053 3.60112 18.7433 4.62983 19.2455 5.76272C19.7477 6.89562 20.0041 8.1102 20 9.33619C20 12.9515 17.2857 16.7454 15 19.2929C13.4768 20.9893 11.8043 22.5638 9.99998 24ZM9.99998 5.33697C8.86334 5.33697 7.77325 5.75832 6.96953 6.50832C6.1658 7.25832 5.71427 8.27553 5.71427 9.33619C5.71427 10.3969 6.1658 11.4141 6.96953 12.1641C7.77325 12.9141 8.86334 13.3354 9.99998 13.3354C11.1366 13.3354 12.2267 12.9141 13.0304 12.1641C13.8342 11.4141 14.2857 10.3969 14.2857 9.33619C14.2857 8.27553 13.8342 7.25832 13.0304 6.50832C12.2267 5.75832 11.1366 5.33697 9.99998 5.33697Z" fill="white"/>
</svg>
