<svg width="33" height="33" viewBox="0 0 33 33" fill="none" xmlns="http://www.w3.org/2000/svg">
<path d="M28.7034 25.2275C27.862 24.4611 27.1254 23.5826 26.5134 22.6155C25.8453 21.2805 25.4448 19.8227 25.3356 18.3274V13.9235C25.3413 11.575 24.5076 9.30521 22.991 7.54052C21.4744 5.77584 19.3793 4.63776 17.0993 4.34013V3.19013C17.0993 2.87448 16.9766 2.57177 16.7582 2.34858C16.5397 2.12539 16.2435 2 15.9346 2C15.6256 2 15.3294 2.12539 15.111 2.34858C14.8925 2.57177 14.7698 2.87448 14.7698 3.19013V4.35796C12.5103 4.67705 10.4405 5.822 8.94382 7.58076C7.44712 9.33951 6.62493 11.5929 6.62953 13.9235V18.3274C6.52026 19.8227 6.11981 21.2805 5.45168 22.6155C4.85043 23.5804 4.12567 24.4588 3.29664 25.2275C3.20358 25.311 3.12899 25.4139 3.07784 25.5292C3.02669 25.6444 3.00016 25.7695 3 25.8961V27.1085C3 27.345 3.09192 27.5717 3.25554 27.7389C3.41917 27.9061 3.64109 28 3.87248 28H28.1275C28.3589 28 28.5808 27.9061 28.7445 27.7389C28.9081 27.5717 29 27.345 29 27.1085V25.8961C28.9998 25.7695 28.9733 25.6444 28.9222 25.5292C28.871 25.4139 28.7964 25.311 28.7034 25.2275ZM4.81477 26.217C5.62653 25.4158 6.34126 24.5179 6.94362 23.5426C7.78523 21.9303 8.27628 20.1514 8.38322 18.3274V13.9235C8.34862 12.8788 8.52014 11.8375 8.88756 10.8619C9.25498 9.88626 9.81079 8.99614 10.5219 8.24455C11.233 7.49296 12.0849 6.89526 13.0267 6.48706C13.9686 6.07886 14.9813 5.86849 16.0044 5.86849C17.0275 5.86849 18.0401 6.07886 18.982 6.48706C19.9239 6.89526 20.7757 7.49296 21.4868 8.24455C22.1979 8.99614 22.7537 9.88626 23.1212 10.8619C23.4886 11.8375 23.6601 12.8788 23.6255 13.9235V18.3274C23.7324 20.1514 24.2235 21.9303 25.0651 23.5426C25.6675 24.5179 26.3822 25.4158 27.194 26.217H4.81477Z" fill="white"/>
<path d="M15.5475 30.9998C16.1463 30.987 16.721 30.7793 17.1698 30.4134C17.6186 30.0474 17.9127 29.5467 18 29H13C13.0898 29.5616 13.3976 30.074 13.8663 30.4419C14.3349 30.8097 14.9323 31.008 15.5475 30.9998Z" fill="white"/>
<path d="M17.8538 30.0258C17.495 30.3184 17.0296 30.489 16.5389 30.4998C16.0346 30.5061 15.5501 30.343 15.175 30.0486C14.9759 29.8923 14.8155 29.7054 14.6986 29.5H18.3016C18.1904 29.6955 18.0398 29.8742 17.8538 30.0258Z" fill="white" stroke="white"/>
</svg>
