<svg width="32" height="27" viewBox="0 0 32 27" fill="none" xmlns="http://www.w3.org/2000/svg">
<path d="M21.0597 11.0485C16.9311 15.3726 12.8009 25.9866 12.8009 25.9866C12.8009 25.9866 6.90049 11.0468 1.00181 7.60019" stroke="white" stroke-width="2" stroke-linecap="round" stroke-linejoin="round"/>
<path d="M30.2462 1.87868L30.9583 9.27335C31.4196 14.0705 27.8243 18.3412 23.0271 18.8042C18.3202 19.2555 14.0562 15.8156 13.6032 11.1086C13.4953 9.98937 13.609 8.85981 13.9376 7.78446C14.2663 6.70911 14.8037 5.70905 15.5189 4.84139C16.2341 3.97372 17.1133 3.25545 18.1062 2.72761C19.099 2.19976 20.1862 1.87266 21.3055 1.76501L29.1882 1.00616C29.315 0.993939 29.4429 1.00682 29.5647 1.04406C29.6865 1.0813 29.7997 1.14217 29.898 1.2232C29.9963 1.30423 30.0776 1.40382 30.1373 1.51629C30.1971 1.62876 30.2341 1.7519 30.2462 1.87868V1.87868Z" stroke="white" stroke-width="2" stroke-linecap="round" stroke-linejoin="round"/>
</svg>
