<svg width="30" height="26" viewBox="0 0 30 26" fill="none" xmlns="http://www.w3.org/2000/svg">
<path d="M28.1725 4.12139L28.1729 4.12216C29.6991 7.12471 29.1655 10.6093 26.101 14.6582L26.0992 14.6607C23.6714 17.8894 20.162 21.1427 15.0045 24.9921C9.84143 21.1365 6.33779 17.8546 3.90706 14.6571C0.833928 10.6086 0.300644 7.12433 1.82667 4.12216L1.82706 4.12139C2.85396 2.09686 5.96258 0.265285 9.75452 1.30911C11.5561 1.80927 13.1198 2.87926 14.1955 4.33529L14.9998 5.42403L15.8041 4.33529C16.88 2.879 18.444 1.80889 20.246 1.30885L20.2485 1.30815C24.025 0.249671 27.1439 2.09344 28.1725 4.12139Z" stroke="white" stroke-width="2"/>
</svg>
