<svg width="26" height="29" viewBox="0 0 26 29" fill="none" xmlns="http://www.w3.org/2000/svg">
<path d="M25.7034 23.2275C24.862 22.4611 24.1254 21.5826 23.5134 20.6155C22.8453 19.2805 22.4448 17.8227 22.3356 16.3274V11.9235C22.3413 9.57504 21.5076 7.30521 19.991 5.54052C18.4744 3.77584 16.3793 2.63776 14.0993 2.34013V1.19013C14.0993 0.874484 13.9766 0.571771 13.7582 0.34858C13.5397 0.125388 13.2435 0 12.9346 0C12.6256 0 12.3294 0.125388 12.111 0.34858C11.8925 0.571771 11.7698 0.874484 11.7698 1.19013V2.35796C9.51029 2.67705 7.44051 3.822 5.94382 5.58076C4.44712 7.33951 3.62493 9.59289 3.62953 11.9235V16.3274C3.52026 17.8227 3.11981 19.2805 2.45168 20.6155C1.85043 21.5804 1.12567 22.4588 0.296644 23.2275C0.203578 23.311 0.128989 23.4139 0.0778407 23.5292C0.0266923 23.6444 0.000156869 23.7695 0 23.8961V25.1085C0 25.345 0.091922 25.5717 0.255544 25.7389C0.419167 25.9061 0.641087 26 0.872483 26H25.1275C25.3589 26 25.5808 25.9061 25.7445 25.7389C25.9081 25.5717 26 25.345 26 25.1085V23.8961C25.9998 23.7695 25.9733 23.6444 25.9222 23.5292C25.871 23.4139 25.7964 23.311 25.7034 23.2275ZM1.81477 24.217C2.62653 23.4158 3.34126 22.5179 3.94362 21.5426C4.78523 19.9303 5.27628 18.1514 5.38322 16.3274V11.9235C5.34862 10.8788 5.52014 9.83754 5.88756 8.8619C6.25498 7.88626 6.81079 6.99614 7.52189 6.24455C8.233 5.49296 9.08486 4.89526 10.0267 4.48706C10.9686 4.07886 11.9813 3.86849 13.0044 3.86849C14.0275 3.86849 15.0401 4.07886 15.982 4.48706C16.9239 4.89526 17.7757 5.49296 18.4868 6.24455C19.1979 6.99614 19.7537 7.88626 20.1212 8.8619C20.4886 9.83754 20.6601 10.8788 20.6255 11.9235V16.3274C20.7324 18.1514 21.2235 19.9303 22.0651 21.5426C22.6675 22.5179 23.3822 23.4158 24.194 24.217H1.81477Z" fill="white"/>
<path d="M12.5475 28.9998C13.1463 28.987 13.721 28.7793 14.1698 28.4134C14.6186 28.0474 14.9127 27.5467 15 27H10C10.0898 27.5616 10.3976 28.074 10.8663 28.4419C11.3349 28.8097 11.9323 29.008 12.5475 28.9998Z" fill="white"/>
</svg>
