<svg width="12" height="7" viewBox="0 0 12 7" fill="none" xmlns="http://www.w3.org/2000/svg">
<path d="M5.99059 6.99763C5.79067 6.99809 5.59692 6.91676 5.44298 6.76775L0.309104 1.77034C0.134367 1.60069 0.0244811 1.3569 0.00362066 1.09261C-0.0172397 0.828322 0.0526339 0.565176 0.19787 0.361065C0.343106 0.156954 0.551808 0.0285965 0.778063 0.00422933C1.00432 -0.0201378 1.22959 0.0614814 1.40433 0.231132L5.99059 4.70882L10.5768 0.39105C10.6644 0.308027 10.7651 0.246028 10.8732 0.208615C10.9813 0.171203 11.0946 0.159115 11.2068 0.173047C11.3189 0.186979 11.4275 0.226656 11.5265 0.289797C11.6254 0.352938 11.7127 0.438299 11.7833 0.540973C11.8617 0.643741 11.921 0.764305 11.9576 0.895111C11.9942 1.02592 12.0073 1.16415 11.9961 1.30114C11.9848 1.43813 11.9495 1.57093 11.8923 1.69123C11.835 1.81152 11.7572 1.91672 11.6635 2.00022L6.52964 6.82772C6.37128 6.95317 6.18148 7.013 5.99059 6.99763Z" fill="black"/>
</svg>
