<svg width="16" height="16" viewBox="0 0 16 16" fill="none" xmlns="http://www.w3.org/2000/svg">
<path d="M8.5145 4.00781C8.5145 3.8752 8.46182 3.74803 8.36805 3.65426C8.27429 3.56049 8.14711 3.50781 8.0145 3.50781C7.88189 3.50781 7.75472 3.56049 7.66095 3.65426C7.56718 3.74803 7.5145 3.8752 7.5145 4.00781V7.14631C7.3254 7.25616 7.17781 7.42531 7.09458 7.62754C7.01136 7.82978 6.99715 8.05381 7.05417 8.26494C7.11118 8.47607 7.23622 8.6625 7.40993 8.79536C7.58364 8.92822 7.79631 9.00008 8.015 8.99981C8.197 8.99981 8.368 8.95081 8.5145 8.86531L10.349 9.92481C10.4638 9.99007 10.5997 10.0073 10.7271 9.97269C10.8546 9.93809 10.9631 9.8545 11.0291 9.74016C11.0952 9.62582 11.1133 9.49 11.0795 9.36235C11.0458 9.23471 10.9629 9.12559 10.849 9.05881L9.009 7.99681C9.00766 7.82402 8.96131 7.65457 8.8745 7.50516C8.7877 7.35575 8.66345 7.23155 8.514 7.14481V4.00781H8.5145Z" fill="black"/>
<path d="M15 8C15 4.134 11.866 1 8 1C4.134 1 1 4.134 1 8C1 11.866 4.134 15 8 15C11.866 15 15 11.866 15 8ZM13.5 8C13.5 11.0375 11.0375 13.5 8 13.5C4.9625 13.5 2.5 11.0375 2.5 8C2.5 4.9625 4.9625 2.5 8 2.5C11.0375 2.5 13.5 4.9625 13.5 8Z" fill="black"/>
</svg>
