<svg width="9" height="9" viewBox="0 0 9 9" fill="none" xmlns="http://www.w3.org/2000/svg">
<path d="M4.19174 7.33838C4.22614 7.38834 4.27218 7.4292 4.32588 7.45742C4.37957 7.48564 4.43933 7.50039 4.49999 7.50039C4.56065 7.50039 4.62041 7.48564 4.67411 7.45742C4.72781 7.4292 4.77384 7.38834 4.80824 7.33838L8.18324 2.46338C8.22231 2.40715 8.24521 2.34129 8.24948 2.27295C8.25374 2.20462 8.2392 2.13642 8.20742 2.07577C8.17565 2.01512 8.12786 1.96434 8.06925 1.92895C8.01065 1.89355 7.94346 1.87489 7.87499 1.875H1.12499C1.05668 1.87528 0.989743 1.89418 0.931372 1.92966C0.873 1.96514 0.825405 2.01586 0.793705 2.07637C0.762005 2.13688 0.747399 2.20489 0.751458 2.27307C0.755516 2.34126 0.778087 2.40706 0.816741 2.46338L4.19174 7.33838Z" fill="black"/>
</svg>
