<svg width="7" height="5" viewBox="0 0 7 5" fill="none" xmlns="http://www.w3.org/2000/svg">
<path d="M3.05841 4.856C3.08899 4.90041 3.1299 4.93672 3.17763 4.96181C3.22536 4.98689 3.27847 5 3.33239 5C3.38631 5 3.43942 4.98689 3.48715 4.96181C3.53488 4.93672 3.57579 4.90041 3.60637 4.856L6.60616 0.522964C6.64088 0.472986 6.66125 0.414449 6.66504 0.353711C6.66883 0.292973 6.6559 0.232358 6.62766 0.178452C6.59941 0.124546 6.55694 0.0794107 6.50485 0.0479494C6.45276 0.0164882 6.39304 -9.54414e-05 6.33218 4.13189e-07H0.332597C0.271883 0.000251199 0.212385 0.0170481 0.160503 0.0485847C0.108621 0.0801213 0.0663168 0.125204 0.0381408 0.178986C0.0099647 0.232767 -0.00301751 0.293212 0.000590225 0.35382C0.00419796 0.414427 0.0242591 0.472905 0.0586164 0.522964L3.05841 4.856Z" fill="black"/>
</svg>
