<svg width="92" height="18" viewBox="0 0 92 18" fill="none" xmlns="http://www.w3.org/2000/svg">
<path d="M8.57626 1.07227L6.13738 6.01434L0.686096 6.80228L4.63118 10.6509L3.69851 16.0807L8.57626 13.5186L13.454 16.0807L12.5213 10.6509L16.4664 6.80764L11.0151 6.01434L8.57626 1.07227Z" fill="#FFE03C"/>
<g clip-path="url(#clip0_320_1234)">
<path d="M27.2882 1.07227L24.8493 6.01434L19.398 6.80228L23.3431 10.6509L22.4104 16.0807L27.2882 13.5186L32.1659 16.0807L31.2333 10.6509L35.1783 6.80764L29.7271 6.01434L27.2882 1.07227Z" fill="#FFE03C"/>
</g>
<path d="M45.9998 1.07227L43.561 6.01434L38.1097 6.80228L42.0548 10.6509L41.1221 16.0807L45.9998 13.5186L50.8776 16.0807L49.9449 10.6509L53.89 6.80764L48.4387 6.01434L45.9998 1.07227Z" fill="#FFE03C"/>
<g clip-path="url(#clip1_320_1234)">
<path d="M64.7117 1.07227L62.2729 6.01434L56.8216 6.80228L60.7667 10.6509L59.834 16.0807L64.7117 13.5186L69.5895 16.0807L68.6568 10.6509L72.6019 6.80764L67.1506 6.01434L64.7117 1.07227Z" fill="#FFE03C"/>
</g>
<path d="M83.4237 1.07227L80.9849 6.01434L75.5336 6.80228L79.4787 10.6509L78.546 16.0807L83.4237 13.5186L88.3015 16.0807L87.3688 10.6509L91.3139 6.80764L85.8626 6.01434L83.4237 1.07227Z" fill="#FFE03C"/>
<path fill-rule="evenodd" clip-rule="evenodd" d="M84 13.8211L88.3015 16.0806L87.3689 10.6508L91.314 6.80752L85.8627 6.01421L84 2.23975V13.8211Z" fill="#707070"/>
<defs>
<clipPath id="clip0_320_1234">
<rect width="17.1525" height="17.1525" fill="white" transform="translate(18.7119)"/>
</clipPath>
<clipPath id="clip1_320_1234">
<rect width="17.1525" height="17.1525" fill="white" transform="translate(56.1355)"/>
</clipPath>
</defs>
</svg>
