<svg width="75" height="14" viewBox="0 0 75 14" fill="none" xmlns="http://www.w3.org/2000/svg">
<g clip-path="url(#clip0_1_680)">
<path d="M6.99153 0.873901L5.00331 4.90277L0.559326 5.54511L3.77543 8.68256L3.0151 13.1091L6.99153 11.0204L10.968 13.1091L10.2076 8.68256L13.4237 5.54948L8.97974 4.90277L6.99153 0.873901Z" fill="#FFDE8A"/>
</g>
<g clip-path="url(#clip1_1_680)">
<path d="M22.2457 0.873901L20.2575 4.90277L15.8135 5.54511L19.0296 8.68256L18.2693 13.1091L22.2457 11.0204L26.2222 13.1091L25.4618 8.68256L28.6779 5.54948L24.234 4.90277L22.2457 0.873901Z" fill="#FFDE8A"/>
</g>
<g clip-path="url(#clip2_1_680)">
<path d="M37.5 0.873901L35.5118 4.90277L31.0678 5.54511L34.2839 8.68256L33.5236 13.1091L37.5 11.0204L41.4764 13.1091L40.7161 8.68256L43.9322 5.54948L39.4882 4.90277L37.5 0.873901Z" fill="#FFDE8A"/>
</g>
<g clip-path="url(#clip3_1_680)">
<path d="M52.7542 0.873901L50.766 4.90277L46.322 5.54511L49.5381 8.68256L48.7778 13.1091L52.7542 11.0204L56.7307 13.1091L55.9703 8.68256L59.1864 5.54948L54.7424 4.90277L52.7542 0.873901Z" fill="#FFDE8A"/>
</g>
<g clip-path="url(#clip4_1_680)">
<path d="M68.0085 0.873901L66.0203 4.90277L61.5763 5.54511L64.7924 8.68256L64.0321 13.1091L68.0085 11.0204L71.9849 13.1091L71.2246 8.68256L74.4407 5.54948L69.9967 4.90277L68.0085 0.873901Z" fill="#FFDE8A"/>
</g>
<defs>
<clipPath id="clip0_1_680">
<rect width="13.9831" height="13.9831" fill="white"/>
</clipPath>
<clipPath id="clip1_1_680">
<rect width="13.9831" height="13.9831" fill="white" transform="translate(15.2542)"/>
</clipPath>
<clipPath id="clip2_1_680">
<rect width="13.9831" height="13.9831" fill="white" transform="translate(30.5085)"/>
</clipPath>
<clipPath id="clip3_1_680">
<rect width="13.9831" height="13.9831" fill="white" transform="translate(45.7627)"/>
</clipPath>
<clipPath id="clip4_1_680">
<rect width="13.9831" height="13.9831" fill="white" transform="translate(61.017)"/>
</clipPath>
</defs>
</svg>
