<svg width="8" height="8" viewBox="0 0 8 8" fill="none" xmlns="http://www.w3.org/2000/svg">
<path d="M3.72588 6.5232C3.75646 6.56762 3.79738 6.60393 3.84511 6.62902C3.89284 6.6541 3.94596 6.66721 3.99988 6.66721C4.0538 6.66721 4.10692 6.6541 4.15465 6.62902C4.20238 6.60393 4.2433 6.56762 4.27388 6.5232L7.27388 2.18987C7.30861 2.13989 7.32897 2.08135 7.33276 2.0206C7.33655 1.95986 7.32362 1.89924 7.29538 1.84533C7.26713 1.79142 7.22466 1.74628 7.17256 1.71482C7.12046 1.68336 7.06074 1.66677 6.99988 1.66687H0.999882C0.939163 1.66712 0.879661 1.68392 0.827776 1.71546C0.77589 1.74699 0.733583 1.79208 0.705405 1.84587C0.677227 1.89965 0.664244 1.9601 0.667852 2.02071C0.67146 2.08132 0.691522 2.13981 0.725882 2.18987L3.72588 6.5232Z" fill="white"/>
</svg>
