<svg width="16" height="16" viewBox="0 0 16 16" fill="none" xmlns="http://www.w3.org/2000/svg">
<path fill-rule="evenodd" clip-rule="evenodd" d="M15 7.72648C15 7.85455 14.9473 7.97738 14.8536 8.06794C14.7598 8.15851 14.6326 8.20938 14.5 8.20938L2.70701 8.20938L5.85401 11.2478C5.9005 11.2927 5.93737 11.346 5.96253 11.4047C5.98769 11.4634 6.00064 11.5262 6.00064 11.5897C6.00064 11.6532 5.98769 11.7161 5.96253 11.7748C5.93737 11.8334 5.9005 11.8867 5.85401 11.9316C5.80752 11.9765 5.75233 12.0121 5.69159 12.0364C5.63085 12.0607 5.56575 12.0732 5.50001 12.0732C5.43426 12.0732 5.36916 12.0607 5.30842 12.0364C5.24769 12.0121 5.1925 11.9765 5.14601 11.9316L1.14601 8.06838C1.09945 8.02352 1.0625 7.97023 1.0373 7.91156C1.01209 7.85289 0.999115 7.79 0.999115 7.72648C0.999115 7.66296 1.01209 7.60007 1.0373 7.5414C1.0625 7.48273 1.09945 7.42944 1.14601 7.38458L5.14601 3.52133C5.1925 3.47643 5.24769 3.44082 5.30842 3.41652C5.36916 3.39222 5.43426 3.37971 5.50001 3.37971C5.56575 3.37971 5.63085 3.39222 5.69159 3.41652C5.75233 3.44082 5.80752 3.47643 5.85401 3.52133C5.9005 3.56623 5.93737 3.61953 5.96253 3.6782C5.98769 3.73686 6.00064 3.79973 6.00064 3.86323C6.00064 3.92673 5.98769 3.9896 5.96253 4.04826C5.93737 4.10693 5.9005 4.16023 5.85401 4.20513L2.70701 7.24357L14.5 7.24357C14.6326 7.24357 14.7598 7.29445 14.8536 7.38501C14.9473 7.47557 15 7.5984 15 7.72648Z" fill="black"/>
</svg>
