<svg width="26" height="22" viewBox="0 0 26 22" fill="none" xmlns="http://www.w3.org/2000/svg">
<path fill-rule="evenodd" clip-rule="evenodd" d="M0 1.83333C0 1.3471 0.195663 0.880788 0.543944 0.536971C0.892226 0.193155 1.3646 0 1.85714 0H24.1429C24.6354 0 25.1078 0.193155 25.4561 0.536971C25.8043 0.880788 26 1.3471 26 1.83333C26 2.31956 25.8043 2.78588 25.4561 3.1297C25.1078 3.47351 24.6354 3.66667 24.1429 3.66667H1.85714C1.3646 3.66667 0.892226 3.47351 0.543944 3.1297C0.195663 2.78588 0 2.31956 0 1.83333ZM0 11C0 10.5138 0.195663 10.0475 0.543944 9.70364C0.892226 9.35982 1.3646 9.16667 1.85714 9.16667H24.1429C24.6354 9.16667 25.1078 9.35982 25.4561 9.70364C25.8043 10.0475 26 10.5138 26 11C26 11.4862 25.8043 11.9525 25.4561 12.2964C25.1078 12.6402 24.6354 12.8333 24.1429 12.8333H1.85714C1.3646 12.8333 0.892226 12.6402 0.543944 12.2964C0.195663 11.9525 0 11.4862 0 11ZM0 20.1667C0 19.6804 0.195663 19.2141 0.543944 18.8703C0.892226 18.5265 1.3646 18.3333 1.85714 18.3333H13C13.4925 18.3333 13.9649 18.5265 14.3132 18.8703C14.6615 19.2141 14.8571 19.6804 14.8571 20.1667C14.8571 20.6529 14.6615 21.1192 14.3132 21.463C13.9649 21.8068 13.4925 22 13 22H1.85714C1.3646 22 0.892226 21.8068 0.543944 21.463C0.195663 21.1192 0 20.6529 0 20.1667Z" fill="#0D0D0D"/>
</svg>
