<svg width="367" height="321" viewBox="0 0 367 321" fill="none" xmlns="http://www.w3.org/2000/svg">
<g filter="url(#filter0_d_320_1429)">
<rect x="9.29114" y="5.91725" width="348.418" height="302.362" rx="31" fill="#FDFDFD"/>
</g>
<rect x="43.3319" y="24.9401" width="119.143" height="28.0336" rx="14" fill="black"/>
<rect x="203.524" y="24.9401" width="119.143" height="28.0336" rx="14" fill="black"/>
<path d="M106.975 199.176C104.104 194.562 104.104 188.718 106.975 184.103L138.43 133.543C141.034 129.357 145.615 126.812 150.544 126.812H215.454C220.384 126.812 224.964 129.357 227.568 133.543L259.024 184.103C261.895 188.718 261.895 194.562 259.024 199.176L227.568 249.737C224.964 253.923 220.384 256.468 215.454 256.468H150.544C145.615 256.468 141.034 253.923 138.43 249.737L106.975 199.176Z" fill="#EBEBEB" stroke="white" stroke-width="1.5"/>
<path d="M124.846 197.286C122.684 193.833 122.684 189.447 124.846 185.994L148.751 147.823C150.696 144.717 154.103 142.831 157.767 142.831H207.231C210.895 142.831 214.301 144.717 216.246 147.823L240.151 185.994C242.314 189.447 242.314 193.833 240.151 197.286L216.246 235.457C214.301 238.563 210.895 240.448 207.231 240.448H157.767C154.103 240.448 150.696 238.563 148.751 235.457L124.846 197.286Z" fill="#EBEBEB" stroke="white" stroke-width="1.5"/>
<path d="M146.86 196.777C144.704 193.328 144.704 188.951 146.86 185.501L159.766 164.851C161.71 161.741 165.119 159.852 168.787 159.852H196.211C199.879 159.852 203.287 161.741 205.231 164.851L218.138 185.501C220.294 188.951 220.294 193.328 218.138 196.777L205.231 217.427C203.287 220.537 199.879 222.427 196.211 222.427H168.787C165.119 222.427 161.71 220.537 159.766 217.427L146.86 196.777Z" fill="#EBEBEB" stroke="white" stroke-width="1.5"/>
<path d="M122.536 201.468C119.311 194.584 122.161 186.384 128.96 182.985L165.904 164.513L198.136 150.362C203.14 148.165 208.965 149.077 213.058 152.698L247.185 182.888C252.795 187.851 253.513 196.347 248.814 202.18L218.24 240.134C215.864 243.083 212.396 244.945 208.625 245.297L155.625 250.236C149.738 250.785 144.139 247.58 141.631 242.226L122.536 201.468Z" fill="#BFC9F3" fill-opacity="0.2" stroke="#AFCFFF" stroke-width="2"/>
<path d="M131.571 200.132C129.746 195.089 130.959 189.446 134.695 185.598L157.754 161.85C160.123 159.411 163.297 157.916 166.686 157.643L198.291 155.1C202.059 154.797 205.79 156.029 208.637 158.516L238.851 184.91C243.58 189.041 244.985 195.813 242.289 201.484L222.76 242.562C220.181 247.986 214.434 251.165 208.469 250.465L155.788 244.289C150.516 243.671 146.046 240.128 144.239 235.137L131.571 200.132Z" fill="#FFB0C3" fill-opacity="0.2" stroke="#FFB0C3" stroke-width="2"/>
<path d="M223.283 43.0738H224.857V43.9629H220.64V43.0738H222.346V36.6341L220.832 37.0666V36.1895L223.163 35.5167H223.283V43.0738ZM231.982 43.1459C231.333 43.7706 230.488 44.083 229.446 44.083C228.405 44.083 227.556 43.7746 226.899 43.1579C226.243 42.5331 225.914 41.7282 225.914 40.743V38.7486C225.914 37.7714 226.243 36.9745 226.899 36.3577C227.556 35.733 228.405 35.4206 229.446 35.4206C230.488 35.4206 231.333 35.733 231.982 36.3577C232.638 36.9745 232.967 37.7714 232.967 38.7486V40.743C232.967 41.7202 232.638 42.5211 231.982 43.1459ZM227.572 42.5091C228.053 42.9657 228.678 43.1939 229.446 43.1939C230.215 43.1939 230.836 42.9657 231.309 42.5091C231.789 42.0526 232.03 41.4639 232.03 40.743V38.7486C232.03 38.0277 231.789 37.443 231.309 36.9945C230.836 36.538 230.215 36.3097 229.446 36.3097C228.678 36.3097 228.053 36.538 227.572 36.9945C227.092 37.443 226.851 38.0277 226.851 38.7486V40.743C226.851 41.4639 227.092 42.0526 227.572 42.5091ZM234.551 40.8992V40.0822H238.84V40.8992H234.551ZM242.666 43.0738H244.239V43.9629H240.022V43.0738H241.728V36.6341L240.215 37.0666V36.1895L242.545 35.5167H242.666V43.0738ZM248.913 38.7486C249.906 38.7486 250.707 38.9969 251.316 39.4935C251.925 39.9821 252.229 40.6189 252.229 41.4038C252.229 42.1967 251.917 42.8415 251.292 43.3381C250.667 43.8267 249.85 44.071 248.841 44.071C247.816 44.071 246.991 43.8267 246.366 43.3381C245.741 42.8495 245.429 42.2007 245.429 41.3918V38.1599C245.429 37.3269 245.729 36.6621 246.33 36.1655C246.939 35.6689 247.748 35.4206 248.757 35.4206C249.742 35.4206 250.531 35.6249 251.124 36.0334C251.725 36.4418 252.041 36.9945 252.073 37.6913H251.148C251.124 37.2748 250.892 36.9424 250.451 36.6941C250.019 36.4378 249.462 36.3097 248.781 36.3097C248.036 36.3097 247.447 36.4779 247.015 36.8143C246.582 37.1507 246.366 37.6112 246.366 38.1959V39.6737C247.023 39.057 247.872 38.7486 248.913 38.7486ZM247.027 42.7134C247.475 43.0337 248.076 43.1939 248.829 43.1939C249.582 43.1939 250.183 43.0337 250.631 42.7134C251.08 42.385 251.304 41.9484 251.304 41.4038C251.304 40.8591 251.08 40.4226 250.631 40.0942C250.183 39.7658 249.582 39.6016 248.829 39.6016C248.076 39.6016 247.475 39.7658 247.027 40.0942C246.586 40.4226 246.366 40.8591 246.366 41.4038C246.366 41.9484 246.586 42.385 247.027 42.7134ZM253.171 44.948L257.484 34.8199H258.373L254.048 44.948H253.171ZM261.813 43.0738H263.387V43.9629H259.17V43.0738H260.876V36.6341L259.363 37.0666V36.1895L261.693 35.5167H261.813V43.0738ZM270.512 43.1459C269.863 43.7706 269.018 44.083 267.977 44.083C266.936 44.083 266.087 43.7746 265.43 43.1579C264.773 42.5331 264.445 41.7282 264.445 40.743V38.7486C264.445 37.7714 264.773 36.9745 265.43 36.3577C266.087 35.733 266.936 35.4206 267.977 35.4206C269.018 35.4206 269.863 35.733 270.512 36.3577C271.169 36.9745 271.497 37.7714 271.497 38.7486V40.743C271.497 41.7202 271.169 42.5211 270.512 43.1459ZM266.103 42.5091C266.583 42.9657 267.208 43.1939 267.977 43.1939C268.746 43.1939 269.367 42.9657 269.839 42.5091C270.32 42.0526 270.56 41.4639 270.56 40.743V38.7486C270.56 38.0277 270.32 37.443 269.839 36.9945C269.367 36.538 268.746 36.3097 267.977 36.3097C267.208 36.3097 266.583 36.538 266.103 36.9945C265.622 37.443 265.382 38.0277 265.382 38.7486V40.743C265.382 41.4639 265.622 42.0526 266.103 42.5091ZM272.413 44.948L276.726 34.8199H277.615L273.29 44.948H272.413ZM279.602 41.9565V43.0738H285.248V43.9629H278.676V41.9565C278.676 41.2036 278.965 40.6189 279.541 40.2024C280.126 39.7778 280.943 39.5656 281.992 39.5656C282.721 39.5656 283.29 39.4214 283.698 39.1331C284.115 38.8447 284.323 38.4523 284.323 37.9557C284.323 37.443 284.119 37.0386 283.71 36.7422C283.302 36.4458 282.741 36.2977 282.028 36.2977C281.316 36.2977 280.747 36.4378 280.322 36.7182C279.898 36.9985 279.682 37.379 279.674 37.8595H278.725C278.749 37.1066 279.053 36.5179 279.638 36.0934C280.23 35.6609 281.027 35.4446 282.028 35.4446C283.022 35.4446 283.807 35.6689 284.383 36.1175C284.968 36.566 285.26 37.1747 285.26 37.9436C285.26 38.7446 284.98 39.3573 284.419 39.7818C283.867 40.2064 283.066 40.4186 282.016 40.4186C281.248 40.4186 280.651 40.5548 280.226 40.8271C279.81 41.0914 279.602 41.4679 279.602 41.9565ZM291.723 39.6497C292.203 39.7859 292.588 40.0382 292.876 40.4066C293.173 40.767 293.321 41.1835 293.321 41.6561C293.321 42.393 293.016 42.9817 292.408 43.4222C291.807 43.8627 290.994 44.083 289.969 44.083C288.96 44.083 288.151 43.8667 287.542 43.4342C286.941 43.0017 286.641 42.429 286.641 41.7162H287.566C287.566 42.1487 287.794 42.5051 288.251 42.7854C288.707 43.0578 289.3 43.1939 290.029 43.1939C290.758 43.1939 291.334 43.0578 291.759 42.7854C292.183 42.5131 292.396 42.1367 292.396 41.6561C292.396 41.1675 292.179 40.779 291.747 40.4907C291.322 40.1943 290.762 40.0462 290.065 40.0462H288.611V39.2412H289.957C290.638 39.2412 291.186 39.105 291.603 38.8327C292.027 38.5604 292.239 38.204 292.239 37.7634C292.239 37.3229 292.031 36.9705 291.615 36.7062C291.206 36.4418 290.658 36.3097 289.969 36.3097C289.28 36.3097 288.727 36.4378 288.311 36.6941C287.902 36.9505 287.698 37.2909 287.698 37.7154H286.773C286.773 37.0265 287.061 36.4739 287.638 36.0574C288.223 35.6409 289 35.4326 289.969 35.4326C290.93 35.4326 291.699 35.6449 292.276 36.0694C292.86 36.4939 293.153 37.0586 293.153 37.7634C293.153 38.1959 293.016 38.5884 292.744 38.9408C292.48 39.2933 292.139 39.5295 291.723 39.6497Z" fill="white"/>
<path d="M217.038 120.054L215.68 118.528H214.617V120.054H214.154V115.849H216.047C216.475 115.849 216.82 115.971 217.08 116.215C217.34 116.46 217.47 116.784 217.47 117.189C217.47 117.557 217.36 117.861 217.14 118.102C216.92 118.338 216.623 118.476 216.251 118.516L217.633 120.054H217.038ZM216.053 116.288H214.617V118.084H216.053C216.349 118.084 216.583 118.004 216.756 117.843C216.928 117.683 217.014 117.465 217.014 117.189C217.014 116.912 216.928 116.694 216.756 116.534C216.583 116.37 216.349 116.288 216.053 116.288ZM220.696 114.642L220.126 115.405H219.711L220.156 114.642H220.696ZM218.876 119.616H221.453V120.054H218.413V115.849H221.399V116.282H218.876V117.711H221.285V118.144H218.876V119.616ZM223.78 120.126C223.448 120.126 223.127 120.066 222.819 119.946C222.511 119.826 222.252 119.66 222.044 119.447L222.308 119.105C222.465 119.281 222.677 119.423 222.945 119.531C223.217 119.64 223.496 119.694 223.78 119.694C224.149 119.694 224.441 119.626 224.657 119.489C224.873 119.349 224.982 119.163 224.982 118.931C224.982 118.714 224.887 118.548 224.699 118.432C224.515 118.312 224.193 118.212 223.732 118.132C223.163 118.04 222.755 117.899 222.507 117.711C222.262 117.523 222.14 117.257 222.14 116.912C222.14 116.576 222.286 116.302 222.579 116.089C222.875 115.877 223.259 115.771 223.732 115.771C224.337 115.771 224.845 115.959 225.258 116.336L225.006 116.666C224.665 116.35 224.243 116.191 223.738 116.191C223.398 116.191 223.123 116.26 222.915 116.396C222.707 116.528 222.603 116.702 222.603 116.918C222.603 117.127 222.691 117.291 222.867 117.411C223.047 117.527 223.354 117.625 223.786 117.705C224.399 117.809 224.829 117.954 225.078 118.138C225.326 118.318 225.45 118.578 225.45 118.919C225.45 119.287 225.298 119.582 224.994 119.802C224.693 120.018 224.289 120.126 223.78 120.126ZM226.731 119.616H229.308V120.054H226.269V115.849H229.254V116.282H226.731V117.711H229.14V118.144H226.731V119.616ZM233.1 120.054L231.742 118.528H230.679V120.054H230.217V115.849H232.109C232.537 115.849 232.882 115.971 233.142 116.215C233.402 116.46 233.533 116.784 233.533 117.189C233.533 117.557 233.423 117.861 233.202 118.102C232.982 118.338 232.686 118.476 232.313 118.516L233.695 120.054H233.1ZM232.115 116.288H230.679V118.084H232.115C232.411 118.084 232.646 118.004 232.818 117.843C232.99 117.683 233.076 117.465 233.076 117.189C233.076 116.912 232.99 116.694 232.818 116.534C232.646 116.37 232.411 116.288 232.115 116.288ZM237.445 115.849H237.944L236.208 120.054H235.697L233.955 115.849H234.454L235.295 117.897L235.949 119.513L237.445 115.849ZM241.758 120.054L241.325 119.081H238.898L238.466 120.054H237.961L239.848 115.849H240.376L242.263 120.054H241.758ZM240.112 116.33L239.091 118.648H241.133L240.112 116.33ZM245.461 115.849V116.288H243.996V120.054H243.539V116.288H242.073V115.849H245.461ZM246.121 120.054V115.849H246.583V120.054H246.121ZM249.584 120.138C248.956 120.138 248.443 119.936 248.047 119.531C247.65 119.123 247.452 118.596 247.452 117.952C247.452 117.307 247.65 116.782 248.047 116.378C248.443 115.969 248.956 115.765 249.584 115.765C250.217 115.765 250.732 115.969 251.128 116.378C251.525 116.782 251.723 117.307 251.723 117.952C251.723 118.596 251.525 119.123 251.128 119.531C250.732 119.936 250.217 120.138 249.584 120.138ZM249.584 119.7C250.077 119.7 250.477 119.537 250.786 119.213C251.098 118.885 251.254 118.464 251.254 117.952C251.254 117.439 251.098 117.02 250.786 116.696C250.477 116.368 250.077 116.203 249.584 116.203C249.096 116.203 248.695 116.368 248.383 116.696C248.075 117.02 247.92 117.439 247.92 117.952C247.92 118.464 248.075 118.885 248.383 119.213C248.695 119.537 249.096 119.7 249.584 119.7ZM255.571 115.849H256.033V120.054H255.595L253.048 116.624V120.054H252.585V115.849H253.03L255.571 119.267V115.849ZM258.615 120.126C258.282 120.126 257.962 120.066 257.654 119.946C257.345 119.826 257.087 119.66 256.879 119.447L257.143 119.105C257.299 119.281 257.512 119.423 257.78 119.531C258.052 119.64 258.33 119.694 258.615 119.694C258.983 119.694 259.276 119.626 259.492 119.489C259.708 119.349 259.816 119.163 259.816 118.931C259.816 118.714 259.722 118.548 259.534 118.432C259.35 118.312 259.027 118.212 258.567 118.132C257.998 118.04 257.59 117.899 257.341 117.711C257.097 117.523 256.975 117.257 256.975 116.912C256.975 116.576 257.121 116.302 257.413 116.089C257.71 115.877 258.094 115.771 258.567 115.771C259.171 115.771 259.68 115.959 260.093 116.336L259.84 116.666C259.5 116.35 259.077 116.191 258.573 116.191C258.232 116.191 257.958 116.26 257.75 116.396C257.542 116.528 257.437 116.702 257.437 116.918C257.437 117.127 257.526 117.291 257.702 117.411C257.882 117.527 258.188 117.625 258.621 117.705C259.234 117.809 259.664 117.954 259.912 118.138C260.161 118.318 260.285 118.578 260.285 118.919C260.285 119.287 260.133 119.582 259.828 119.802C259.528 120.018 259.123 120.126 258.615 120.126Z" fill="black"/>
<path d="M280.971 203.154V198.949H281.433V203.154H280.971ZM285.552 198.949H286.015V203.154H285.576L283.029 199.724V203.154H282.567V198.949H283.011L285.552 202.367V198.949ZM290.194 198.949H290.693L288.957 203.154H288.446L286.704 198.949H287.202L288.043 200.997L288.698 202.613L290.194 198.949ZM291.39 203.154V198.949H291.852V203.154H291.39ZM295.905 198.949V199.387H294.439V203.154H293.982V199.387H292.517V198.949H295.905ZM298.847 197.741L298.276 198.504H297.861L298.306 197.741H298.847ZM297.026 202.715H299.603V203.154H296.564V198.949H299.549V199.381H297.026V200.811H299.435V201.243H297.026V202.715ZM301.93 203.226C301.598 203.226 301.278 203.166 300.969 203.046C300.661 202.925 300.403 202.759 300.194 202.547L300.459 202.205C300.615 202.381 300.827 202.523 301.095 202.631C301.368 202.739 301.646 202.793 301.93 202.793C302.299 202.793 302.591 202.725 302.807 202.589C303.024 202.449 303.132 202.263 303.132 202.03C303.132 201.814 303.038 201.648 302.85 201.532C302.665 201.412 302.343 201.311 301.882 201.231C301.314 201.139 300.905 200.999 300.657 200.811C300.413 200.623 300.29 200.356 300.29 200.012C300.29 199.676 300.437 199.401 300.729 199.189C301.025 198.977 301.41 198.871 301.882 198.871C302.487 198.871 302.996 199.059 303.408 199.435L303.156 199.766C302.815 199.449 302.393 199.291 301.888 199.291C301.548 199.291 301.274 199.359 301.065 199.495C300.857 199.627 300.753 199.802 300.753 200.018C300.753 200.226 300.841 200.39 301.017 200.511C301.198 200.627 301.504 200.725 301.936 200.805C302.549 200.909 302.98 201.053 303.228 201.237C303.476 201.418 303.6 201.678 303.6 202.018C303.6 202.387 303.448 202.681 303.144 202.901C302.844 203.118 302.439 203.226 301.93 203.226Z" fill="black"/>
<path d="M61.9269 203.226C61.5945 203.226 61.2741 203.166 60.9657 203.046C60.6574 202.925 60.399 202.759 60.1908 202.547L60.4551 202.205C60.6113 202.381 60.8236 202.523 61.0919 202.631C61.3642 202.739 61.6425 202.793 61.9269 202.793C62.2953 202.793 62.5877 202.725 62.8039 202.589C63.0202 202.449 63.1283 202.263 63.1283 202.03C63.1283 201.814 63.0342 201.648 62.846 201.532C62.6618 201.412 62.3394 201.311 61.8788 201.231C61.3101 201.139 60.9017 200.999 60.6534 200.811C60.4091 200.623 60.2869 200.356 60.2869 200.012C60.2869 199.676 60.4331 199.401 60.7254 199.189C61.0218 198.977 61.4063 198.871 61.8788 198.871C62.4835 198.871 62.9922 199.059 63.4047 199.435L63.1523 199.766C62.8119 199.449 62.3894 199.291 61.8848 199.291C61.5444 199.291 61.2701 199.359 61.0618 199.495C60.8536 199.627 60.7495 199.802 60.7495 200.018C60.7495 200.226 60.8376 200.39 61.0138 200.511C61.194 200.627 61.5004 200.725 61.9329 200.805C62.5456 200.909 62.9761 201.053 63.2244 201.237C63.4727 201.418 63.5969 201.678 63.5969 202.018C63.5969 202.387 63.4447 202.681 63.1403 202.901C62.84 203.118 62.4355 203.226 61.9269 203.226ZM67.3173 198.949V199.387H65.8515V203.154H65.395V199.387H63.9292V198.949H67.3173ZM69.6803 203.238C69.0515 203.238 68.5389 203.036 68.1424 202.631C67.7459 202.223 67.5477 201.696 67.5477 201.051C67.5477 200.406 67.7459 199.882 68.1424 199.477C68.5389 199.069 69.0515 198.865 69.6803 198.865C70.313 198.865 70.8276 199.069 71.2241 199.477C71.6206 199.882 71.8188 200.406 71.8188 201.051C71.8188 201.696 71.6206 202.223 71.2241 202.631C70.8276 203.036 70.313 203.238 69.6803 203.238ZM69.6803 202.799C70.1728 202.799 70.5733 202.637 70.8817 202.313C71.1941 201.984 71.3503 201.564 71.3503 201.051C71.3503 200.539 71.1941 200.12 70.8817 199.796C70.5733 199.467 70.1728 199.303 69.6803 199.303C69.1917 199.303 68.7912 199.467 68.4788 199.796C68.1704 200.12 68.0163 200.539 68.0163 201.051C68.0163 201.564 68.1704 201.984 68.4788 202.313C68.7912 202.637 69.1917 202.799 69.6803 202.799ZM75.5646 203.154L74.207 201.628H73.1437V203.154H72.6811V198.949H74.5734C75.0019 198.949 75.3463 199.071 75.6066 199.315C75.867 199.559 75.9971 199.884 75.9971 200.288C75.9971 200.657 75.887 200.961 75.6667 201.201C75.4464 201.438 75.1501 201.576 74.7776 201.616L76.1593 203.154H75.5646ZM74.5794 199.387H73.1437V201.183H74.5794C74.8758 201.183 75.11 201.103 75.2822 200.943C75.4545 200.783 75.5406 200.565 75.5406 200.288C75.5406 200.012 75.4545 199.794 75.2822 199.633C75.11 199.469 74.8758 199.387 74.5794 199.387ZM76.9401 203.154V198.949H77.4027V203.154H76.9401ZM78.9984 202.715H81.5755V203.154H78.5358V198.949H81.5214V199.381H78.9984V200.811H81.4072V201.243H78.9984V202.715ZM83.9024 203.226C83.57 203.226 83.2497 203.166 82.9413 203.046C82.6329 202.925 82.3746 202.759 82.1664 202.547L82.4307 202.205C82.5869 202.381 82.7991 202.523 83.0674 202.631C83.3398 202.739 83.6181 202.793 83.9024 202.793C84.2709 202.793 84.5632 202.725 84.7795 202.589C84.9958 202.449 85.1039 202.263 85.1039 202.03C85.1039 201.814 85.0098 201.648 84.8215 201.532C84.6373 201.412 84.3149 201.311 83.8544 201.231C83.2857 201.139 82.8772 200.999 82.6289 200.811C82.3846 200.623 82.2625 200.356 82.2625 200.012C82.2625 199.676 82.4087 199.401 82.701 199.189C82.9974 198.977 83.3818 198.871 83.8544 198.871C84.4591 198.871 84.9677 199.059 85.3802 199.435L85.1279 199.766C84.7875 199.449 84.365 199.291 83.8604 199.291C83.52 199.291 83.2457 199.359 83.0374 199.495C82.8292 199.627 82.725 199.802 82.725 200.018C82.725 200.226 82.8131 200.39 82.9893 200.511C83.1696 200.627 83.4759 200.725 83.9085 200.805C84.5212 200.909 84.9517 201.053 85.2 201.237C85.4483 201.418 85.5724 201.678 85.5724 202.018C85.5724 202.387 85.4203 202.681 85.1159 202.901C84.8155 203.118 84.4111 203.226 83.9024 203.226Z" fill="black"/>
<path d="M124.141 115.849C124.586 115.849 124.94 115.979 125.204 116.24C125.469 116.5 125.601 116.842 125.601 117.267C125.601 117.691 125.469 118.034 125.204 118.294C124.944 118.55 124.59 118.678 124.141 118.678H122.735V120.054H122.273V115.849H124.141ZM124.123 118.246C124.439 118.246 124.688 118.158 124.868 117.982C125.048 117.801 125.138 117.563 125.138 117.267C125.138 116.97 125.048 116.732 124.868 116.552C124.688 116.372 124.439 116.282 124.123 116.282H122.735V118.246H124.123ZM128.224 120.138C127.595 120.138 127.083 119.936 126.686 119.531C126.29 119.123 126.092 118.596 126.092 117.952C126.092 117.307 126.29 116.782 126.686 116.378C127.083 115.969 127.595 115.765 128.224 115.765C128.857 115.765 129.371 115.969 129.768 116.378C130.164 116.782 130.363 117.307 130.363 117.952C130.363 118.596 130.164 119.123 129.768 119.531C129.371 119.936 128.857 120.138 128.224 120.138ZM128.224 119.7C128.717 119.7 129.117 119.537 129.426 119.213C129.738 118.885 129.894 118.464 129.894 117.952C129.894 117.439 129.738 117.02 129.426 116.696C129.117 116.368 128.717 116.203 128.224 116.203C127.735 116.203 127.335 116.368 127.023 116.696C126.714 117.02 126.56 117.439 126.56 117.952C126.56 118.464 126.714 118.885 127.023 119.213C127.335 119.537 127.735 119.7 128.224 119.7ZM132.679 120.126C132.346 120.126 132.026 120.066 131.718 119.946C131.409 119.826 131.151 119.66 130.943 119.447L131.207 119.105C131.363 119.281 131.575 119.423 131.844 119.531C132.116 119.64 132.394 119.694 132.679 119.694C133.047 119.694 133.339 119.626 133.556 119.489C133.772 119.349 133.88 119.163 133.88 118.931C133.88 118.714 133.786 118.548 133.598 118.432C133.414 118.312 133.091 118.212 132.631 118.132C132.062 118.04 131.653 117.899 131.405 117.711C131.161 117.523 131.039 117.257 131.039 116.912C131.039 116.576 131.185 116.302 131.477 116.089C131.774 115.877 132.158 115.771 132.631 115.771C133.235 115.771 133.744 115.959 134.156 116.336L133.904 116.666C133.564 116.35 133.141 116.191 132.637 116.191C132.296 116.191 132.022 116.26 131.814 116.396C131.605 116.528 131.501 116.702 131.501 116.918C131.501 117.127 131.589 117.291 131.766 117.411C131.946 117.527 132.252 117.625 132.685 117.705C133.297 117.809 133.728 117.954 133.976 118.138C134.225 118.318 134.349 118.578 134.349 118.919C134.349 119.287 134.197 119.582 133.892 119.802C133.592 120.018 133.187 120.126 132.679 120.126ZM138.069 115.849V116.288H136.603V120.054H136.147V116.288H134.681V115.849H138.069Z" fill="black"/>
<path d="M76.9322 38.6485C77.4127 38.7847 77.7972 39.037 78.0855 39.4054C78.3819 39.7658 78.5301 40.1823 78.5301 40.6549C78.5301 41.3918 78.2257 41.9805 77.617 42.421C77.0163 42.8615 76.2033 43.0818 75.1781 43.0818C74.1689 43.0818 73.3599 42.8655 72.7512 42.433C72.1504 42.0005 71.8501 41.4278 71.8501 40.715H72.7752C72.7752 41.1475 73.0035 41.5039 73.46 41.7842C73.9165 42.0566 74.5093 42.1927 75.2381 42.1927C75.967 42.1927 76.5437 42.0566 76.9682 41.7842C77.3927 41.5119 77.605 41.1355 77.605 40.6549C77.605 40.1663 77.3887 39.7778 76.9562 39.4895C76.5317 39.1931 75.971 39.045 75.2742 39.045H73.8204V38.24H75.166C75.8469 38.24 76.3955 38.1038 76.812 37.8315C77.2365 37.5592 77.4488 37.2028 77.4488 36.7622C77.4488 36.3217 77.2405 35.9693 76.824 35.705C76.4155 35.4406 75.8669 35.3085 75.1781 35.3085C74.4892 35.3085 73.9366 35.4366 73.5201 35.6929C73.1116 35.9493 72.9073 36.2897 72.9073 36.7142H71.9822C71.9822 36.0253 72.2706 35.4727 72.8473 35.0562C73.432 34.6397 74.2089 34.4314 75.1781 34.4314C76.1392 34.4314 76.9081 34.6437 77.4848 35.0682C78.0695 35.4927 78.3619 36.0574 78.3619 36.7622C78.3619 37.1947 78.2257 37.5872 77.9534 37.9396C77.6891 38.2921 77.3487 38.5283 76.9322 38.6485ZM80.0555 39.898V39.081H84.3447V39.898H80.0555ZM91.1943 38.5884C91.6829 38.7406 92.0713 39.0049 92.3597 39.3814C92.656 39.7578 92.8042 40.1863 92.8042 40.6669C92.8042 41.3958 92.4838 41.9845 91.8431 42.433C91.2103 42.8816 90.3733 43.1058 89.3321 43.1058C88.2988 43.1058 87.4618 42.8816 86.8211 42.433C86.1883 41.9845 85.8719 41.3958 85.8719 40.6669C85.8719 40.1863 86.0161 39.7618 86.3044 39.3934C86.6008 39.0169 86.9933 38.7486 87.4818 38.5884C87.0413 38.4122 86.6969 38.1599 86.4486 37.8315C86.2003 37.5031 86.0762 37.1227 86.0762 36.6901C86.0762 36.0093 86.3765 35.4567 86.9772 35.0322C87.578 34.6076 88.3629 34.3954 89.3321 34.3954C90.3012 34.3954 91.0862 34.6076 91.6869 35.0322C92.2956 35.4567 92.6 36.0093 92.6 36.6901C92.6 37.5712 92.1314 38.204 91.1943 38.5884ZM87.638 35.6449C87.2055 35.9252 86.9893 36.2897 86.9893 36.7382C86.9893 37.1867 87.2055 37.5512 87.638 37.8315C88.0786 38.1118 88.6432 38.252 89.3321 38.252C90.0289 38.252 90.5936 38.1118 91.0261 37.8315C91.4586 37.5512 91.6749 37.1867 91.6749 36.7382C91.6749 36.2897 91.4586 35.9252 91.0261 35.6449C90.5936 35.3565 90.0289 35.2124 89.3321 35.2124C88.6432 35.2124 88.0786 35.3565 87.638 35.6449ZM87.4939 41.8083C87.9584 42.0966 88.5711 42.2408 89.3321 42.2408C90.093 42.2408 90.7057 42.0966 91.1703 41.8083C91.6348 41.5119 91.8671 41.1195 91.8671 40.6309C91.8671 40.1423 91.6348 39.7538 91.1703 39.4655C90.7057 39.1691 90.093 39.0209 89.3321 39.0209C88.5711 39.0209 87.9584 39.1691 87.4939 39.4655C87.0373 39.7538 86.809 40.1423 86.809 40.6309C86.809 41.1195 87.0373 41.5119 87.4939 41.8083ZM93.7594 43.9468L98.0725 33.8187H98.9616L94.6364 43.9468H93.7594ZM102.402 42.0726H103.976V42.9617H99.7585V42.0726H101.465V35.6329L99.9507 36.0654V35.1883L102.282 34.5155H102.402V42.0726ZM111.1 42.1447C110.452 42.7694 109.606 43.0818 108.565 43.0818C107.524 43.0818 106.675 42.7734 106.018 42.1567C105.361 41.5319 105.033 40.727 105.033 39.7418V37.7474C105.033 36.7702 105.361 35.9733 106.018 35.3565C106.675 34.7318 107.524 34.4194 108.565 34.4194C109.606 34.4194 110.452 34.7318 111.1 35.3565C111.757 35.9733 112.085 36.7702 112.085 37.7474V39.7418C112.085 40.719 111.757 41.5199 111.1 42.1447ZM106.691 41.5079C107.172 41.9645 107.796 42.1927 108.565 42.1927C109.334 42.1927 109.955 41.9645 110.427 41.5079C110.908 41.0514 111.148 40.4627 111.148 39.7418V37.7474C111.148 37.0265 110.908 36.4418 110.427 35.9933C109.955 35.5368 109.334 35.3085 108.565 35.3085C107.796 35.3085 107.172 35.5368 106.691 35.9933C106.21 36.4418 105.97 37.0265 105.97 37.7474V39.7418C105.97 40.4627 106.21 41.0514 106.691 41.5079ZM113.001 43.9468L117.314 33.8187H118.203L113.878 43.9468H113.001ZM120.19 40.9553V42.0726H125.837V42.9617H119.265V40.9553C119.265 40.2024 119.553 39.6177 120.13 39.2012C120.714 38.7766 121.531 38.5644 122.581 38.5644C123.309 38.5644 123.878 38.4202 124.287 38.1319C124.703 37.8435 124.911 37.4511 124.911 36.9545C124.911 36.4418 124.707 36.0374 124.299 35.741C123.89 35.4446 123.33 35.2965 122.617 35.2965C121.904 35.2965 121.335 35.4366 120.911 35.717C120.486 35.9973 120.27 36.3778 120.262 36.8583H119.313C119.337 36.1054 119.641 35.5167 120.226 35.0922C120.818 34.6597 121.615 34.4434 122.617 34.4434C123.61 34.4434 124.395 34.6677 124.971 35.1163C125.556 35.5648 125.849 36.1735 125.849 36.9424C125.849 37.7434 125.568 38.3561 125.008 38.7806C124.455 39.2052 123.654 39.4174 122.605 39.4174C121.836 39.4174 121.239 39.5536 120.814 39.8259C120.398 40.0902 120.19 40.4667 120.19 40.9553ZM132.311 38.6485C132.792 38.7847 133.176 39.037 133.464 39.4054C133.761 39.7658 133.909 40.1823 133.909 40.6549C133.909 41.3918 133.605 41.9805 132.996 42.421C132.395 42.8615 131.582 43.0818 130.557 43.0818C129.548 43.0818 128.739 42.8655 128.13 42.433C127.529 42.0005 127.229 41.4278 127.229 40.715H128.154C128.154 41.1475 128.382 41.5039 128.839 41.7842C129.295 42.0566 129.888 42.1927 130.617 42.1927C131.346 42.1927 131.923 42.0566 132.347 41.7842C132.772 41.5119 132.984 41.1355 132.984 40.6549C132.984 40.1663 132.768 39.7778 132.335 39.4895C131.911 39.1931 131.35 39.045 130.653 39.045H129.199V38.24H130.545C131.226 38.24 131.774 38.1038 132.191 37.8315C132.615 37.5592 132.828 37.2028 132.828 36.7622C132.828 36.3217 132.619 35.9693 132.203 35.705C131.794 35.4406 131.246 35.3085 130.557 35.3085C129.868 35.3085 129.315 35.4366 128.899 35.6929C128.49 35.9493 128.286 36.2897 128.286 36.7142H127.361C127.361 36.0253 127.649 35.4727 128.226 35.0562C128.811 34.6397 129.588 34.4314 130.557 34.4314C131.518 34.4314 132.287 34.6437 132.864 35.0682C133.448 35.4927 133.741 36.0574 133.741 36.7622C133.741 37.1947 133.605 37.5872 133.332 37.9396C133.068 38.2921 132.728 38.5283 132.311 38.6485Z" fill="white"/>
<path d="M220.529 106.378C222.042 106.378 222.319 107.002 222.319 107.507C222.319 108.408 221.249 108.745 220.444 108.745C219.76 108.745 218.594 108.444 218.594 107.579H216.996C217.008 109.489 218.835 110.162 220.432 110.162C222.054 110.162 223.989 109.549 223.989 107.495C223.989 106.786 223.424 105.993 222.619 105.729C223.352 105.501 223.784 104.732 223.784 104.071C223.772 102.281 222.066 101.512 220.481 101.512C218.931 101.512 217.129 102.173 217.129 103.987H218.714C218.714 103.218 219.724 102.954 220.469 102.954C221.814 102.954 222.199 103.59 222.199 104.071C222.187 104.852 221.286 105.08 220.432 105.08H219.219V106.378H220.529ZM226.66 105.224C226.66 102.185 230.889 102.221 230.889 105.224V106.438C230.889 109.489 226.66 109.489 226.66 106.438V105.224ZM225.086 106.438C225.086 111.46 232.462 111.448 232.462 106.438V105.224C232.462 100.214 225.086 100.202 225.086 105.224V106.438Z" fill="#AFCFFF"/>
<path d="M239.376 100.839L235.375 111.027H236.901L240.914 100.839H239.376Z" fill="black"/>
<path d="M243.524 110.042H247.524V108.696H246.359V101.632H243.476V103.074H244.785V108.696H243.524V110.042ZM251.977 106.33C253.035 106.33 253.936 106.702 253.948 107.531C253.96 108.192 253.263 108.793 251.977 108.793C250.692 108.793 249.995 108.18 250.007 107.531C250.019 106.702 250.992 106.33 251.977 106.33ZM248.349 107.507C248.313 109.477 250.139 110.222 251.965 110.234C253.84 110.246 255.642 109.465 255.606 107.507C255.594 106.858 255.197 105.981 254.332 105.633C255.089 105.32 255.413 104.624 255.413 104.047C255.413 102.365 253.779 101.488 251.965 101.488C250.139 101.488 248.577 102.353 248.577 104.047C248.577 104.696 248.914 105.32 249.635 105.705C248.769 106.053 248.361 106.858 248.349 107.507ZM250.199 103.999C250.175 103.422 250.776 102.809 251.965 102.809C253.035 102.809 253.779 103.29 253.755 103.999C253.731 104.732 252.95 105.176 251.977 105.176C251.052 105.176 250.223 104.732 250.199 103.999Z" fill="#FFB0C3"/>
<path d="M272.623 187.363C272.623 186.45 273.584 185.933 274.533 185.945C275.434 185.945 276.371 186.318 276.371 187.062H277.957C277.957 185.296 276.335 184.575 274.509 184.575C272.779 184.575 271.049 185.452 271.049 187.327V190.462C271.049 192.349 272.839 193.274 274.557 193.274C276.251 193.274 278.041 192.349 278.041 190.487C278.041 188.396 276.263 187.687 274.569 187.687C273.908 187.687 272.995 188 272.623 188.576V187.315V187.363ZM274.557 191.856C273.524 191.856 272.635 191.412 272.623 190.487C272.611 189.549 273.512 189.069 274.569 189.069C275.626 189.069 276.467 189.561 276.467 190.487C276.467 191.412 275.554 191.856 274.557 191.856ZM282.641 189.429C283.698 189.429 284.599 189.802 284.611 190.631C284.623 191.291 283.927 191.892 282.641 191.892C281.356 191.892 280.659 191.279 280.671 190.631C280.683 189.802 281.656 189.429 282.641 189.429ZM279.013 190.607C278.977 192.577 280.803 193.322 282.629 193.334C284.503 193.346 286.305 192.565 286.269 190.607C286.257 189.958 285.861 189.081 284.996 188.732C285.753 188.42 286.077 187.723 286.077 187.147C286.077 185.464 284.443 184.587 282.629 184.587C280.803 184.587 279.241 185.452 279.241 187.147C279.241 187.795 279.577 188.42 280.298 188.805C279.433 189.153 279.025 189.958 279.013 190.607ZM280.863 187.098C280.839 186.522 281.44 185.909 282.629 185.909C283.698 185.909 284.443 186.39 284.419 187.098C284.395 187.831 283.614 188.276 282.641 188.276C281.716 188.276 280.887 187.831 280.863 187.098Z" fill="#AFCFFF"/>
<path d="M293.212 183.939L289.211 194.127H290.737L294.75 183.939H293.212Z" fill="black"/>
<path d="M301.409 184.744L297.624 189.934L297.768 191.544H302.262V193.142H303.823V191.544H304.809V190.006H303.823V184.744H301.409ZM299.414 190.006L302.262 186.113V190.006H299.414ZM309.563 184.744L305.778 189.934L305.923 191.544H310.416V193.142H311.978V191.544H312.963V190.006H311.978V184.744H309.563ZM307.568 190.006L310.416 186.113V190.006H307.568Z" fill="#FFB0C3"/>
<path d="M116.332 283.049C116.965 283.049 117.477 283.244 117.87 283.632C118.262 284.021 118.459 284.527 118.459 285.152C118.459 285.777 118.262 286.283 117.87 286.672C117.477 287.06 116.965 287.255 116.332 287.255H114.83V283.049H116.332ZM116.332 286.816C116.821 286.816 117.219 286.662 117.528 286.353C117.836 286.045 117.99 285.645 117.99 285.152C117.99 284.659 117.836 284.259 117.528 283.951C117.219 283.642 116.821 283.488 116.332 283.488H115.293V286.816H116.332ZM119.781 286.816H122.358V287.255H119.318V283.049H122.304V283.482H119.781V284.912H122.19V285.344H119.781V286.816ZM127.159 283.049H127.603V287.255H127.141V283.83L125.489 286.023H125.381L123.729 283.83V287.255H123.266V283.049H123.711L125.435 285.35L127.159 283.049ZM132.074 287.255L131.641 286.281H129.214L128.782 287.255H128.277L130.163 283.049H130.692L132.578 287.255H132.074ZM130.428 283.53L129.406 285.849H131.449L130.428 283.53ZM136.242 283.049H136.705V287.255H136.266L133.719 283.824V287.255H133.257V283.049H133.701L136.242 286.468V283.049ZM139.334 283.049C139.967 283.049 140.48 283.244 140.872 283.632C141.265 284.021 141.461 284.527 141.461 285.152C141.461 285.777 141.265 286.283 140.872 286.672C140.48 287.06 139.967 287.255 139.334 287.255H137.832V283.049H139.334ZM139.334 286.816C139.823 286.816 140.221 286.662 140.53 286.353C140.838 286.045 140.992 285.645 140.992 285.152C140.992 284.659 140.838 284.259 140.53 283.951C140.221 283.642 139.823 283.488 139.334 283.488H138.295V286.816H139.334ZM142.783 286.816H145.36V287.255H142.32V283.049H145.306V283.482H142.783V284.912H145.192V285.344H142.783V286.816ZM147.687 287.327C147.355 287.327 147.034 287.267 146.726 287.146C146.417 287.026 146.159 286.86 145.951 286.648L146.215 286.305C146.371 286.482 146.584 286.624 146.852 286.732C147.124 286.84 147.403 286.894 147.687 286.894C148.055 286.894 148.348 286.826 148.564 286.69C148.78 286.55 148.888 286.363 148.888 286.131C148.888 285.915 148.794 285.749 148.606 285.633C148.422 285.512 148.099 285.412 147.639 285.332C147.07 285.24 146.662 285.1 146.413 284.912C146.169 284.723 146.047 284.457 146.047 284.113C146.047 283.776 146.193 283.502 146.485 283.29C146.782 283.078 147.166 282.971 147.639 282.971C148.244 282.971 148.752 283.16 149.165 283.536L148.912 283.866C148.572 283.55 148.149 283.392 147.645 283.392C147.304 283.392 147.03 283.46 146.822 283.596C146.614 283.728 146.51 283.903 146.51 284.119C146.51 284.327 146.598 284.491 146.774 284.611C146.954 284.727 147.26 284.826 147.693 284.906C148.306 285.01 148.736 285.154 148.984 285.338C149.233 285.518 149.357 285.779 149.357 286.119C149.357 286.488 149.205 286.782 148.9 287.002C148.6 287.218 148.196 287.327 147.687 287.327Z" fill="black"/>
<path d="M117.56 274.587C117.56 275.5 116.599 276.017 115.65 276.005C114.748 276.005 113.763 275.633 113.763 274.888H112.177C112.177 276.654 113.847 277.375 115.674 277.375C117.404 277.375 119.134 276.498 119.134 274.623V271.488C119.134 269.601 117.344 268.676 115.626 268.676C113.931 268.676 112.141 269.601 112.141 271.464C112.141 273.554 113.919 274.263 115.614 274.263C116.274 274.263 117.187 273.951 117.56 273.374V274.635V274.587ZM115.626 270.094C116.659 270.094 117.548 270.538 117.56 271.464C117.572 272.401 116.671 272.881 115.614 272.881C114.556 272.881 113.715 272.389 113.715 271.464C113.715 270.538 114.628 270.094 115.626 270.094ZM122.628 277.243L126.4 269.673L126.316 268.832H120.141V270.346H124.238L120.801 277.243H122.628Z" fill="#AFCFFF"/>
<path d="M133.038 268.039L129.037 278.228H130.563L134.575 268.039H133.038Z" fill="black"/>
<path d="M140.946 273.53C142.003 273.53 142.904 273.903 142.916 274.732C142.928 275.392 142.231 275.993 140.946 275.993C139.66 275.993 138.963 275.38 138.975 274.732C138.987 273.903 139.961 273.53 140.946 273.53ZM137.317 274.707C137.281 276.678 139.108 277.423 140.934 277.435C142.808 277.447 144.61 276.666 144.574 274.707C144.562 274.059 144.166 273.182 143.301 272.833C144.058 272.521 144.382 271.824 144.382 271.247C144.382 269.565 142.748 268.688 140.934 268.688C139.108 268.688 137.546 269.553 137.546 271.247C137.546 271.896 137.882 272.521 138.603 272.905C137.738 273.254 137.329 274.059 137.317 274.707ZM139.168 271.199C139.144 270.623 139.744 270.01 140.934 270.01C142.003 270.01 142.748 270.49 142.724 271.199C142.7 271.932 141.919 272.377 140.946 272.377C140.021 272.377 139.192 271.932 139.168 271.199ZM147.959 277.243L151.731 269.673L151.647 268.832H145.472V270.346H149.569L146.133 277.243H147.959Z" fill="#FFB0C3"/>
<path d="M229.348 288.256L227.99 286.73H226.927V288.256H226.464V284.051H228.356C228.785 284.051 229.129 284.173 229.39 284.417C229.65 284.661 229.78 284.986 229.78 285.39C229.78 285.759 229.67 286.063 229.45 286.303C229.229 286.54 228.933 286.678 228.561 286.718L229.942 288.256H229.348ZM228.362 284.489H226.927V286.285H228.362C228.659 286.285 228.893 286.205 229.065 286.045C229.237 285.885 229.324 285.667 229.324 285.39C229.324 285.114 229.237 284.896 229.065 284.736C228.893 284.571 228.659 284.489 228.362 284.489ZM231.186 287.817H233.763V288.256H230.723V284.051H233.709V284.483H231.186V285.913H233.595V286.345H231.186V287.817ZM237.525 284.489H235.134V286.039H237.398V286.472H235.134V288.256H234.671V284.051H237.525V284.489ZM241.298 287.853C240.986 288.174 240.571 288.334 240.055 288.334C239.538 288.334 239.123 288.174 238.811 287.853C238.499 287.533 238.342 287.11 238.342 286.586V284.051H238.805V286.58C238.805 286.972 238.919 287.291 239.147 287.535C239.376 287.775 239.678 287.895 240.055 287.895C240.431 287.895 240.733 287.775 240.962 287.535C241.194 287.291 241.31 286.972 241.31 286.58V284.051H241.767V286.586C241.767 287.11 241.61 287.533 241.298 287.853ZM244.303 288.328C243.97 288.328 243.65 288.268 243.342 288.148C243.033 288.027 242.775 287.861 242.567 287.649L242.831 287.307C242.987 287.483 243.199 287.625 243.468 287.733C243.74 287.841 244.018 287.895 244.303 287.895C244.671 287.895 244.964 287.827 245.18 287.691C245.396 287.551 245.504 287.365 245.504 287.132C245.504 286.916 245.41 286.75 245.222 286.634C245.038 286.514 244.715 286.414 244.255 286.333C243.686 286.241 243.278 286.101 243.029 285.913C242.785 285.725 242.663 285.458 242.663 285.114C242.663 284.778 242.809 284.503 243.101 284.291C243.398 284.079 243.782 283.973 244.255 283.973C244.859 283.973 245.368 284.161 245.781 284.537L245.528 284.868C245.188 284.551 244.765 284.393 244.261 284.393C243.92 284.393 243.646 284.461 243.438 284.597C243.229 284.729 243.125 284.904 243.125 285.12C243.125 285.328 243.213 285.492 243.39 285.613C243.57 285.729 243.876 285.827 244.309 285.907C244.921 286.011 245.352 286.155 245.6 286.339C245.849 286.52 245.973 286.78 245.973 287.12C245.973 287.489 245.821 287.783 245.516 288.003C245.216 288.22 244.811 288.328 244.303 288.328Z" fill="black"/>
<path d="M217.867 271.464C217.867 270.551 218.829 270.034 219.778 270.046C220.679 270.046 221.616 270.418 221.616 271.163H223.202C223.202 269.397 221.58 268.676 219.754 268.676C218.024 268.676 216.294 269.553 216.294 271.428V274.563C216.294 276.45 218.084 277.375 219.802 277.375C221.496 277.375 223.286 276.45 223.286 274.587C223.286 272.497 221.508 271.788 219.814 271.788C219.153 271.788 218.24 272.1 217.867 272.677V271.416V271.464ZM219.802 275.957C218.769 275.957 217.879 275.512 217.867 274.587C217.855 273.65 218.757 273.17 219.814 273.17C220.871 273.17 221.712 273.662 221.712 274.587C221.712 275.512 220.799 275.957 219.802 275.957ZM226.005 277.243L229.778 269.673L229.694 268.832H223.518V270.346H227.615L224.179 277.243H226.005Z" fill="#AFCFFF"/>
<path d="M236.415 268.039L232.415 278.228H233.94L237.953 268.039H236.415Z" fill="black"/>
<path d="M243.182 277.243L246.955 269.673L246.871 268.832H240.695V270.346H244.792L241.356 277.243H243.182ZM249.361 271.271C249.373 270.514 250.226 270.094 251.055 270.094C252.137 270.094 252.966 270.526 252.966 271.44C252.966 272.413 251.8 272.521 251.164 272.521C249.506 272.521 247.751 273.098 247.751 275.032C247.751 275.777 247.751 276.51 247.751 277.243H254.564V275.765H249.337V275.044C249.337 274.131 250.467 273.951 251.164 273.951C252.93 273.951 254.54 273.542 254.54 271.404C254.54 269.409 252.713 268.724 251.031 268.724C249.482 268.724 247.8 269.493 247.788 271.271H249.361Z" fill="#FFB0C3"/>
<path d="M56.42 187.363C56.42 186.45 57.3811 185.933 58.3303 185.945C59.2314 185.945 60.1685 186.318 60.1685 187.062H61.7544C61.7544 185.296 60.1324 184.575 58.3062 184.575C56.5762 184.575 54.8461 185.452 54.8461 187.327V190.462C54.8461 192.349 56.6362 193.274 58.3543 193.274C60.0483 193.274 61.8385 192.349 61.8385 190.487C61.8385 188.396 60.0603 187.687 58.3663 187.687C57.7055 187.687 56.7924 188 56.42 188.576V187.315V187.363ZM58.3543 191.856C57.3211 191.856 56.432 191.412 56.42 190.487C56.408 189.549 57.309 189.069 58.3663 189.069C59.4236 189.069 60.2646 189.561 60.2646 190.487C60.2646 191.412 59.3515 191.856 58.3543 191.856ZM62.5607 193.142H66.5615V191.796H65.3961V184.732H62.5126V186.173H63.8222V191.796H62.5607V193.142Z" fill="#AFCFFF"/>
<path d="M73.1728 183.939L69.172 194.127H70.6979L74.7107 183.939H73.1728Z" fill="black"/>
<path d="M81.3694 184.744L77.5849 189.934L77.729 191.544H82.2224V193.142H83.7843V191.544H84.7695V190.006H83.7843V184.744H81.3694ZM79.375 190.006L82.2224 186.113V190.006H79.375ZM87.4212 187.171C87.4332 186.414 88.2862 185.993 89.1152 185.993C90.1965 185.993 91.0255 186.426 91.0255 187.339C91.0255 188.312 89.8601 188.42 89.2233 188.42C87.5654 188.42 85.8112 188.997 85.8112 190.931C85.8112 191.676 85.8112 192.409 85.8112 193.142H92.6234V191.664H87.3971V190.943C87.3971 190.03 88.5265 189.85 89.2233 189.85C90.9895 189.85 92.5994 189.441 92.5994 187.303C92.5994 185.308 90.7732 184.623 89.0912 184.623C87.5413 184.623 85.8593 185.392 85.8473 187.171H87.4212Z" fill="#FFB0C3"/>
<path d="M118.444 104.263C118.444 103.35 119.405 102.833 120.354 102.845C121.255 102.845 122.192 103.218 122.192 103.963H123.778C123.778 102.197 122.156 101.476 120.33 101.476C118.6 101.476 116.87 102.353 116.87 104.227V107.363C116.87 109.249 118.66 110.174 120.378 110.174C122.072 110.174 123.862 109.249 123.862 107.387C123.862 105.296 122.084 104.588 120.39 104.588C119.729 104.588 118.816 104.9 118.444 105.477V104.215V104.263ZM120.378 108.757C119.345 108.757 118.456 108.312 118.444 107.387C118.432 106.45 119.333 105.969 120.39 105.969C121.447 105.969 122.288 106.462 122.288 107.387C122.288 108.312 121.375 108.757 120.378 108.757Z" fill="#AFCFFF"/>
<path d="M130.761 100.839L126.761 111.027H128.286L132.299 100.839H130.761Z" fill="black"/>
<path d="M134.909 110.042H138.91V108.696H137.745V101.632H134.861V103.074H136.171V108.696H134.909V110.042ZM143.158 106.378C144.672 106.378 144.949 107.002 144.949 107.507C144.949 108.408 143.879 108.745 143.074 108.745C142.39 108.745 141.224 108.444 141.224 107.579H139.626C139.638 109.489 141.464 110.162 143.062 110.162C144.684 110.162 146.619 109.549 146.619 107.495C146.619 106.786 146.054 105.993 145.249 105.729C145.982 105.501 146.414 104.732 146.414 104.071C146.402 102.281 144.696 101.512 143.11 101.512C141.561 101.512 139.758 102.173 139.758 103.987H141.344C141.344 103.218 142.354 102.954 143.098 102.954C144.444 102.954 144.828 103.59 144.828 104.071C144.816 104.852 143.915 105.08 143.062 105.08H141.849V106.378H143.158Z" fill="#FFB0C3"/>
<rect x="90.3884" y="62.9857" width="26.0312" height="1.89971" rx="0.948718" fill="#FFB0C3"/>
<rect x="250.58" y="61.9845" width="26.0312" height="1.89971" rx="0.948718" fill="#AFCFFF"/>
<path d="M304.181 41.1507C304.21 41.1929 304.249 41.2274 304.294 41.2512C304.34 41.2751 304.39 41.2875 304.441 41.2875C304.493 41.2875 304.543 41.2751 304.588 41.2512C304.634 41.2274 304.673 41.1929 304.702 41.1507L307.552 37.033C307.585 36.9855 307.605 36.9298 307.608 36.8721C307.612 36.8144 307.6 36.7568 307.573 36.7056C307.546 36.6543 307.506 36.6115 307.456 36.5816C307.407 36.5517 307.35 36.5359 307.292 36.536H301.591C301.533 36.5362 301.476 36.5522 301.427 36.5822C301.378 36.6121 301.337 36.655 301.311 36.7061C301.284 36.7572 301.272 36.8146 301.275 36.8722C301.278 36.9298 301.298 36.9854 301.33 37.033L304.181 41.1507Z" fill="white"/>
<path d="M304.181 41.1507C304.21 41.1929 304.249 41.2274 304.294 41.2512C304.34 41.2751 304.39 41.2875 304.441 41.2875C304.493 41.2875 304.543 41.2751 304.588 41.2512C304.634 41.2274 304.673 41.1929 304.702 41.1507L307.552 37.033C307.585 36.9855 307.605 36.9298 307.608 36.8721C307.612 36.8144 307.6 36.7568 307.573 36.7056C307.546 36.6543 307.506 36.6115 307.456 36.5816C307.407 36.5517 307.35 36.5359 307.292 36.536H301.591C301.533 36.5362 301.476 36.5522 301.427 36.5822C301.378 36.6121 301.337 36.655 301.311 36.7061C301.284 36.7572 301.272 36.8146 301.275 36.8722C301.278 36.9298 301.298 36.9854 301.33 37.033L304.181 41.1507Z" fill="white"/>
<defs>
<filter id="filter0_d_320_1429" x="-9.54819e-07" y="0.00015659" width="367" height="320.945" filterUnits="userSpaceOnUse" color-interpolation-filters="sRGB">
<feFlood flood-opacity="0" result="BackgroundImageFix"/>
<feColorMatrix in="SourceAlpha" type="matrix" values="0 0 0 0 0 0 0 0 0 0 0 0 0 0 0 0 0 0 127 0" result="hardAlpha"/>
<feOffset dy="3.37"/>
<feGaussianBlur stdDeviation="4.64"/>
<feComposite in2="hardAlpha" operator="out"/>
<feColorMatrix type="matrix" values="0 0 0 0 0 0 0 0 0 0 0 0 0 0 0 0 0 0 0.25 0"/>
<feBlend mode="normal" in2="BackgroundImageFix" result="effect1_dropShadow_320_1429"/>
<feBlend mode="normal" in="SourceGraphic" in2="effect1_dropShadow_320_1429" result="shape"/>
</filter>
</defs>
</svg>
