<svg width="14" height="3" viewBox="0 0 14 3" fill="none" xmlns="http://www.w3.org/2000/svg">
<path d="M1.5 2.25C1.91421 2.25 2.25 1.91421 2.25 1.5C2.25 1.08579 1.91421 0.75 1.5 0.75C1.08579 0.75 0.75 1.08579 0.75 1.5C0.75 1.91421 1.08579 2.25 1.5 2.25Z" stroke="black" stroke-width="1.5" stroke-linecap="round" stroke-linejoin="round"/>
<path d="M7 2.25C7.41421 2.25 7.75 1.91421 7.75 1.5C7.75 1.08579 7.41421 0.75 7 0.75C6.58579 0.75 6.25 1.08579 6.25 1.5C6.25 1.91421 6.58579 2.25 7 2.25Z" stroke="black" stroke-width="1.5" stroke-linecap="round" stroke-linejoin="round"/>
<path d="M12.5 2.25C12.9142 2.25 13.25 1.91421 13.25 1.5C13.25 1.08579 12.9142 0.75 12.5 0.75C12.0858 0.75 11.75 1.08579 11.75 1.5C11.75 1.91421 12.0858 2.25 12.5 2.25Z" stroke="black" stroke-width="1.5" stroke-linecap="round" stroke-linejoin="round"/>
</svg>
