<svg width="30" height="26" viewBox="0 0 30 26" fill="none" xmlns="http://www.w3.org/2000/svg">
<path d="M29.0644 3.66903C27.8079 1.19196 24.1886 -0.834729 19.9786 0.345256C17.9669 0.903487 16.2117 2.10063 14.9998 3.74109C13.7879 2.10063 12.0327 0.903487 10.0209 0.345256C5.80156 -0.816714 2.19166 1.19196 0.935224 3.66903C-0.827535 7.13693 -0.0961774 11.0372 3.11054 15.2617C5.62341 18.5675 9.21457 21.9183 14.4278 25.8095C14.5926 25.933 14.7955 26 15.0045 26C15.2134 26 15.4164 25.933 15.5811 25.8095C20.785 21.9273 24.3855 18.6035 26.8984 15.2617C30.0958 11.0372 30.8271 7.13693 29.0644 3.66903Z" fill="black"/>
</svg>
