<svg width="54" height="11" viewBox="0 0 54 11" fill="none" xmlns="http://www.w3.org/2000/svg">
<path d="M5.03392 0.629397L3.6024 3.53019L0.402712 3.99269L2.71832 6.25166L2.17088 9.43876L5.03392 7.93488L7.89696 9.43876L7.34952 6.25166L9.66513 3.99583L6.46544 3.53019L5.03392 0.629397Z" fill="#FFE03C"/>
<path d="M16.017 0.629397L14.5855 3.53019L11.3858 3.99269L13.7014 6.25166L13.154 9.43876L16.017 7.93488L18.88 9.43876L18.3326 6.25166L20.6482 3.99583L17.4485 3.53019L16.017 0.629397Z" fill="#FFE03C"/>
<path d="M27.0002 0.629397L25.5687 3.53019L22.369 3.99269L24.6846 6.25166L24.1372 9.43876L27.0002 7.93488L29.8632 9.43876L29.3158 6.25166L31.6314 3.99583L28.4317 3.53019L27.0002 0.629397Z" fill="#FFE03C"/>
<path d="M37.9833 0.629397L36.5518 3.53019L33.3521 3.99269L35.6677 6.25166L35.1202 9.43876L37.9833 7.93488L40.8463 9.43876L40.2989 6.25166L42.6145 3.99583L39.4148 3.53019L37.9833 0.629397Z" fill="#FFE03C"/>
<g clip-path="url(#clip0_313_237)">
<path d="M48.9661 0.629397L47.5346 3.53019L44.3349 3.99269L46.6505 6.25166L46.1031 9.43876L48.9661 7.93488L51.8292 9.43876L51.2817 6.25166L53.5973 3.99583L50.3976 3.53019L48.9661 0.629397Z" fill="#FFE03B"/>
</g>
<defs>
<clipPath id="clip0_313_237">
<rect width="10.0678" height="10.0678" fill="white" transform="translate(43.9322)"/>
</clipPath>
</defs>
</svg>
