<svg width="390" height="92" viewBox="0 0 390 92" fill="none" xmlns="http://www.w3.org/2000/svg">
<rect width="390" height="92" rx="30" fill="#0D0D0D"/>
<path d="M23.5 40C23.5 29.5066 32.0066 21 42.5 21H61.5C71.9934 21 80.5 29.5066 80.5 40C80.5 50.4934 71.9934 59 61.5 59H42.5C32.0066 59 23.5 50.4934 23.5 40Z" fill="#D2EFF5"/>
<path d="M351.703 48.2275C350.862 47.4611 350.125 46.5826 349.513 45.6155C348.845 44.2805 348.445 42.8227 348.336 41.3274V36.9235C348.341 34.575 347.508 32.3052 345.991 30.5405C344.474 28.7758 342.379 27.6378 340.099 27.3401V26.1901C340.099 25.8745 339.977 25.5718 339.758 25.3486C339.54 25.1254 339.243 25 338.935 25C338.626 25 338.329 25.1254 338.111 25.3486C337.893 25.5718 337.77 25.8745 337.77 26.1901V27.358C335.51 27.677 333.441 28.822 331.944 30.5808C330.447 32.3395 329.625 34.5929 329.63 36.9235V41.3274C329.52 42.8227 329.12 44.2805 328.452 45.6155C327.85 46.5804 327.126 47.4588 326.297 48.2275C326.204 48.311 326.129 48.4139 326.078 48.5292C326.027 48.6444 326 48.7695 326 48.8961V50.1085C326 50.345 326.092 50.5717 326.256 50.7389C326.419 50.9061 326.641 51 326.872 51H351.128C351.359 51 351.581 50.9061 351.744 50.7389C351.908 50.5717 352 50.345 352 50.1085V48.8961C352 48.7695 351.973 48.6444 351.922 48.5292C351.871 48.4139 351.796 48.311 351.703 48.2275ZM327.815 49.217C328.627 48.4158 329.341 47.5179 329.944 46.5426C330.785 44.9303 331.276 43.1514 331.383 41.3274V36.9235C331.349 35.8788 331.52 34.8375 331.888 33.8619C332.255 32.8863 332.811 31.9961 333.522 31.2445C334.233 30.493 335.085 29.8953 336.027 29.4871C336.969 29.0789 337.981 28.8685 339.004 28.8685C340.027 28.8685 341.04 29.0789 341.982 29.4871C342.924 29.8953 343.776 30.493 344.487 31.2445C345.198 31.9961 345.754 32.8863 346.121 33.8619C346.489 34.8375 346.66 35.8788 346.626 36.9235V41.3274C346.732 43.1514 347.223 44.9303 348.065 46.5426C348.667 47.5179 349.382 48.4158 350.194 49.217H327.815Z" fill="white"/>
<path d="M338.548 53.9998C339.146 53.987 339.721 53.7793 340.17 53.4134C340.619 53.0474 340.913 52.5467 341 52H336C336.09 52.5616 336.398 53.074 336.866 53.4419C337.335 53.8097 337.932 54.008 338.548 53.9998Z" fill="white"/>
<path d="M146.256 41.2196H145.256V42.2196V51H139V36.3052L150 28.24L161 36.3052V51H154.744V42.2196V41.2196H153.744H146.256Z" stroke="white" stroke-width="2"/>
<path d="M252.069 29.5088H237.017C234.246 29.5088 232 31.7551 232 34.526V47.0692C232 49.8401 234.246 52.0864 237.017 52.0864H252.069C254.84 52.0864 257.086 49.8401 257.086 47.0692V34.526C257.086 31.7551 254.84 29.5088 252.069 29.5088Z" stroke="white" stroke-width="2" stroke-linecap="round" stroke-linejoin="round"/>
<path d="M239.526 27V32.0173M249.56 27V32.0173M232 37.0345H257.086" stroke="white" stroke-width="2" stroke-linecap="round" stroke-linejoin="round"/>
<path d="M42.2969 42.375H40.3594C40.0919 42.375 39.875 42.5919 39.875 42.8594V51.5781C39.875 51.8456 40.0919 52.0625 40.3594 52.0625H42.2969C42.5644 52.0625 42.7812 51.8456 42.7812 51.5781V42.8594C42.7812 42.5919 42.5644 42.375 42.2969 42.375Z" fill="black" stroke="black" stroke-width="0.5" stroke-linecap="round" stroke-linejoin="round"/>
<path d="M55.8594 36.5625H53.9219C53.6544 36.5625 53.4375 36.7794 53.4375 37.0469V51.5781C53.4375 51.8456 53.6544 52.0625 53.9219 52.0625H55.8594C56.1269 52.0625 56.3438 51.8456 56.3438 51.5781V37.0469C56.3438 36.7794 56.1269 36.5625 55.8594 36.5625Z" fill="black" stroke="black" stroke-width="0.5" stroke-linecap="round" stroke-linejoin="round"/>
<path d="M62.6406 29.7812H60.7031C60.4356 29.7812 60.2188 29.9981 60.2188 30.2656V51.5781C60.2188 51.8456 60.4356 52.0625 60.7031 52.0625H62.6406C62.9081 52.0625 63.125 51.8456 63.125 51.5781V30.2656C63.125 29.9981 62.9081 29.7812 62.6406 29.7812Z" fill="black" stroke="black" stroke-width="0.5" stroke-linecap="round" stroke-linejoin="round"/>
<path d="M49.0781 24.9375H47.1406C46.8731 24.9375 46.6562 25.1544 46.6562 25.4219V51.5781C46.6562 51.8456 46.8731 52.0625 47.1406 52.0625H49.0781C49.3456 52.0625 49.5625 51.8456 49.5625 51.5781V25.4219C49.5625 25.1544 49.3456 24.9375 49.0781 24.9375Z" fill="black" stroke="black" stroke-width="0.5" stroke-linecap="round" stroke-linejoin="round"/>
</svg>
