<svg width="7" height="7" viewBox="0 0 7 7" fill="none" xmlns="http://www.w3.org/2000/svg">
<g clip-path="url(#clip0_0_21)">
<circle cx="3.49999" cy="3.50001" r="2.33333" fill="black"/>
<path fill-rule="evenodd" clip-rule="evenodd" d="M3.5 6.5625C4.31223 6.5625 5.09118 6.23984 5.66551 5.66551C6.23984 5.09118 6.5625 4.31223 6.5625 3.5C6.5625 2.68777 6.23984 1.90882 5.66551 1.33449C5.09118 0.760155 4.31223 0.4375 3.5 0.4375C2.68777 0.4375 1.90882 0.760155 1.33449 1.33449C0.760155 1.90882 0.4375 2.68777 0.4375 3.5C0.4375 4.31223 0.760155 5.09118 1.33449 5.66551C1.90882 6.23984 2.68777 6.5625 3.5 6.5625ZM3.05375 4.75562H2.74312L1.75 3.7625L2.06063 3.45187L2.90062 4.29188L4.73812 2.45L5.04875 2.76062L3.05375 4.75562Z" fill="#80D64C"/>
</g>
<defs>
<clipPath id="clip0_0_21">
<rect width="7" height="7" fill="white"/>
</clipPath>
</defs>
</svg>
