<svg width="5" height="7" viewBox="0 0 5 7" fill="none" xmlns="http://www.w3.org/2000/svg">
<path d="M4.856 3.60728C4.90041 3.5767 4.93672 3.53579 4.96181 3.48806C4.98689 3.44033 5 3.38722 5 3.3333C5 3.27938 4.98689 3.22627 4.96181 3.17854C4.93672 3.13081 4.90041 3.0899 4.856 3.05932L0.522964 0.0595292C0.472986 0.0248067 0.414449 0.00444449 0.353711 0.000655094C0.292973 -0.0031343 0.232358 0.00979376 0.178452 0.0380351C0.124546 0.0662765 0.0794107 0.108751 0.0479494 0.160844C0.0164882 0.212936 -9.54414e-05 0.272654 4.13189e-07 0.33351L4.13189e-07 6.33309C0.000251199 6.39381 0.0170481 6.45331 0.0485847 6.50519C0.0801213 6.55707 0.125204 6.59937 0.178986 6.62755C0.232767 6.65573 0.293212 6.66871 0.35382 6.6651C0.414427 6.66149 0.472905 6.64143 0.522964 6.60707L4.856 3.60728Z" fill="black"/>
</svg>
