<svg width="168" height="154" viewBox="0 0 168 154" fill="none" xmlns="http://www.w3.org/2000/svg">
<rect width="168" height="154" rx="20" fill="#EBEBEB"/>
<rect x="20.25" y="73.25" width="84.5" height="23.5" rx="11.75" stroke="black" stroke-width="0.5"/>
<path d="M25.847 32.096C25.879 30.08 28.151 28.96 30.359 28.96C33.239 28.96 35.447 30.112 35.447 32.544C35.447 35.136 32.343 35.424 30.647 35.424C26.231 35.424 21.559 36.96 21.559 42.112C21.559 44.096 21.559 46.048 21.559 48H39.703V44.064H25.783V42.144C25.783 39.712 28.791 39.232 30.647 39.232C35.351 39.232 39.639 38.144 39.639 32.448C39.639 27.136 34.775 25.312 30.295 25.312C26.167 25.312 21.687 27.36 21.655 32.096H25.847ZM46.4958 35.168C46.4958 27.072 57.7598 27.168 57.7598 35.168V38.4C57.7598 46.528 46.4958 46.528 46.4958 38.4V35.168ZM42.3038 38.4C42.3038 51.776 61.9518 51.744 61.9518 38.4V35.168C61.9518 21.824 42.3038 21.792 42.3038 35.168V38.4Z" fill="black"/>
<path d="M23.9765 58.976C24.7605 58.976 25.3765 59.216 25.8245 59.696C26.2805 60.176 26.5085 60.832 26.5085 61.664V65H25.6205V61.712C25.6205 61.104 25.4685 60.632 25.1645 60.296C24.8605 59.96 24.4285 59.792 23.8685 59.792C23.2765 59.792 22.7925 59.984 22.4165 60.368C22.0485 60.744 21.8645 61.22 21.8645 61.796V65H20.9765V59.072H21.7805L21.7925 60.02C22.3045 59.324 23.0325 58.976 23.9765 58.976ZM33.1738 64.244C32.6058 64.828 31.8658 65.12 30.9538 65.12C30.0418 65.12 29.2978 64.828 28.7218 64.244C28.1458 63.66 27.8578 62.924 27.8578 62.036C27.8578 61.148 28.1458 60.412 28.7218 59.828C29.2978 59.244 30.0418 58.952 30.9538 58.952C31.8658 58.952 32.6058 59.244 33.1738 59.828C33.7498 60.412 34.0378 61.148 34.0378 62.036C34.0378 62.924 33.7498 63.66 33.1738 64.244ZM29.3578 63.644C29.7738 64.076 30.3058 64.292 30.9538 64.292C31.6018 64.292 32.1298 64.076 32.5378 63.644C32.9458 63.212 33.1498 62.676 33.1498 62.036C33.1498 61.396 32.9458 60.86 32.5378 60.428C32.1298 59.996 31.6018 59.78 30.9538 59.78C30.3058 59.78 29.7738 59.996 29.3578 60.428C28.9498 60.86 28.7458 61.396 28.7458 62.036C28.7458 62.676 28.9498 63.212 29.3578 63.644ZM39.9488 59.072H40.8368V65H40.0448L40.0328 64.04C39.5208 64.744 38.8008 65.096 37.8728 65.096C37.1048 65.096 36.4968 64.856 36.0488 64.376C35.6008 63.896 35.3768 63.24 35.3768 62.408V59.072H36.2648V62.36C36.2648 62.968 36.4128 63.44 36.7088 63.776C37.0128 64.112 37.4368 64.28 37.9808 64.28C38.5648 64.28 39.0368 64.092 39.3968 63.716C39.7648 63.332 39.9488 62.852 39.9488 62.276V59.072ZM47.1079 59.072H48.0679L45.5599 65H44.5999L42.0919 59.072H43.0639L44.0239 61.4L45.0799 64.052L46.1479 61.4L47.1079 59.072ZM51.6589 58.952C52.6589 58.952 53.4309 59.264 53.9749 59.888C54.5189 60.504 54.7469 61.336 54.6589 62.384H49.5589C49.6069 62.984 49.8309 63.456 50.2309 63.8C50.6309 64.144 51.1429 64.316 51.7669 64.316C52.1509 64.316 52.5229 64.244 52.8829 64.1C53.2429 63.956 53.5189 63.764 53.7109 63.524L54.2869 64.064C54.0069 64.4 53.6389 64.664 53.1829 64.856C52.7349 65.048 52.2549 65.144 51.7429 65.144C50.8229 65.144 50.0749 64.86 49.4989 64.292C48.9309 63.716 48.6469 62.964 48.6469 62.036C48.6469 61.124 48.9269 60.384 49.4869 59.816C50.0469 59.24 50.7709 58.952 51.6589 58.952ZM51.6829 59.756C51.0909 59.756 50.6069 59.924 50.2309 60.26C49.8629 60.588 49.6429 61.04 49.5709 61.616H53.8189C53.7869 61.056 53.5789 60.608 53.1949 60.272C52.8109 59.928 52.3069 59.756 51.6829 59.756ZM60.983 59.072H61.787V65H60.983L60.971 63.98C60.739 64.34 60.415 64.62 59.999 64.82C59.583 65.02 59.119 65.12 58.607 65.12C57.735 65.12 57.023 64.832 56.471 64.256C55.919 63.68 55.643 62.94 55.643 62.036C55.643 61.132 55.919 60.392 56.471 59.816C57.023 59.24 57.735 58.952 58.607 58.952C59.119 58.952 59.579 59.056 59.987 59.264C60.403 59.464 60.731 59.744 60.971 60.104L60.983 59.072ZM57.143 63.668C57.551 64.084 58.075 64.292 58.715 64.292C59.355 64.292 59.879 64.084 60.287 63.668C60.695 63.252 60.899 62.708 60.899 62.036C60.899 61.364 60.695 60.82 60.287 60.404C59.879 59.988 59.355 59.78 58.715 59.78C58.075 59.78 57.551 59.988 57.143 60.404C56.735 60.82 56.531 61.364 56.531 62.036C56.531 62.708 56.735 63.252 57.143 63.668ZM68.0973 59.072H68.9853V65H68.1933L68.1813 64.04C67.6693 64.744 66.9493 65.096 66.0213 65.096C65.2533 65.096 64.6453 64.856 64.1973 64.376C63.7493 63.896 63.5253 63.24 63.5253 62.408V59.072H64.4133V62.36C64.4133 62.968 64.5613 63.44 64.8573 63.776C65.1613 64.112 65.5853 64.28 66.1293 64.28C66.7133 64.28 67.1853 64.092 67.5453 63.716C67.9133 63.332 68.0973 62.852 68.0973 62.276V59.072ZM73.4323 61.916L75.6643 65H74.5963L73.8403 63.92L72.8683 62.552L71.8963 63.92L71.1163 65H70.0723L72.2923 61.928L70.2283 59.072H71.2963L72.1843 60.308L72.8563 61.292L74.4523 59.072H75.5083L73.4323 61.916ZM84.7837 59.072H85.5877V65H84.7837L84.7717 63.98C84.5397 64.34 84.2157 64.62 83.7997 64.82C83.3837 65.02 82.9197 65.12 82.4077 65.12C81.5357 65.12 80.8237 64.832 80.2717 64.256C79.7197 63.68 79.4437 62.94 79.4437 62.036C79.4437 61.132 79.7197 60.392 80.2717 59.816C80.8237 59.24 81.5357 58.952 82.4077 58.952C82.9197 58.952 83.3797 59.056 83.7877 59.264C84.2037 59.464 84.5317 59.744 84.7717 60.104L84.7837 59.072ZM80.9437 63.668C81.3517 64.084 81.8757 64.292 82.5157 64.292C83.1557 64.292 83.6797 64.084 84.0877 63.668C84.4957 63.252 84.6997 62.708 84.6997 62.036C84.6997 61.364 84.4957 60.82 84.0877 60.404C83.6797 59.988 83.1557 59.78 82.5157 59.78C81.8757 59.78 81.3517 59.988 80.9437 60.404C80.5357 60.82 80.3317 61.364 80.3317 62.036C80.3317 62.708 80.5357 63.252 80.9437 63.668ZM91.85 59.072H92.81L90.302 65H89.342L86.834 59.072H87.806L88.766 61.4L89.822 64.052L90.89 61.4L91.85 59.072ZM94.4986 57.908C94.3146 57.908 94.1626 57.852 94.0426 57.74C93.9226 57.62 93.8626 57.468 93.8626 57.284C93.8626 57.1 93.9226 56.948 94.0426 56.828C94.1626 56.708 94.3146 56.648 94.4986 56.648C94.6906 56.648 94.8466 56.708 94.9666 56.828C95.0866 56.948 95.1466 57.1 95.1466 57.284C95.1466 57.468 95.0866 57.62 94.9666 57.74C94.8466 57.852 94.6906 57.908 94.4986 57.908ZM94.0546 65V59.072H94.9426V65H94.0546ZM98.9216 65.12C97.8656 65.12 96.9896 64.796 96.2936 64.148L96.7616 63.512C97.3136 64.048 98.0376 64.316 98.9336 64.316C99.4216 64.316 99.8056 64.232 100.086 64.064C100.374 63.888 100.518 63.652 100.518 63.356C100.518 63.084 100.394 62.876 100.146 62.732C99.9056 62.588 99.4696 62.464 98.8376 62.36C98.0136 62.248 97.4136 62.056 97.0376 61.784C96.6696 61.512 96.4856 61.136 96.4856 60.656C96.4856 60.136 96.7096 59.724 97.1576 59.42C97.6056 59.108 98.2056 58.952 98.9576 58.952C99.8456 58.952 100.618 59.196 101.274 59.684L100.842 60.332C100.298 59.932 99.6816 59.732 98.9936 59.732C97.9056 59.732 97.3616 60.036 97.3616 60.644C97.3616 60.9 97.4736 61.096 97.6976 61.232C97.9296 61.368 98.3376 61.484 98.9216 61.58C99.8176 61.716 100.454 61.92 100.83 62.192C101.206 62.464 101.394 62.856 101.394 63.368C101.394 63.888 101.166 64.312 100.71 64.64C100.262 64.96 99.6656 65.12 98.9216 65.12ZM105.867 65V56.6H106.755V65H105.867ZM113.518 59.072H114.322V65H113.518L113.506 63.98C113.274 64.34 112.95 64.62 112.534 64.82C112.118 65.02 111.654 65.12 111.142 65.12C110.27 65.12 109.558 64.832 109.006 64.256C108.454 63.68 108.178 62.94 108.178 62.036C108.178 61.132 108.454 60.392 109.006 59.816C109.558 59.24 110.27 58.952 111.142 58.952C111.654 58.952 112.114 59.056 112.522 59.264C112.938 59.464 113.266 59.744 113.506 60.104L113.518 59.072ZM109.678 63.668C110.086 64.084 110.61 64.292 111.25 64.292C111.89 64.292 112.414 64.084 112.822 63.668C113.23 63.252 113.434 62.708 113.434 62.036C113.434 61.364 113.23 60.82 112.822 60.404C112.414 59.988 111.89 59.78 111.25 59.78C110.61 59.78 110.086 59.988 109.678 60.404C109.27 60.82 109.066 61.364 109.066 62.036C109.066 62.708 109.27 63.252 109.678 63.668ZM116.588 57.908C116.404 57.908 116.252 57.852 116.132 57.74C116.012 57.62 115.952 57.468 115.952 57.284C115.952 57.1 116.012 56.948 116.132 56.828C116.252 56.708 116.404 56.648 116.588 56.648C116.78 56.648 116.936 56.708 117.056 56.828C117.176 56.948 117.236 57.1 117.236 57.284C117.236 57.468 117.176 57.62 117.056 57.74C116.936 57.852 116.78 57.908 116.588 57.908ZM116.144 65V59.072H117.032V65H116.144ZM121.011 65.12C119.955 65.12 119.079 64.796 118.383 64.148L118.851 63.512C119.403 64.048 120.127 64.316 121.023 64.316C121.511 64.316 121.895 64.232 122.175 64.064C122.463 63.888 122.607 63.652 122.607 63.356C122.607 63.084 122.483 62.876 122.235 62.732C121.995 62.588 121.559 62.464 120.927 62.36C120.103 62.248 119.503 62.056 119.127 61.784C118.759 61.512 118.575 61.136 118.575 60.656C118.575 60.136 118.799 59.724 119.247 59.42C119.695 59.108 120.295 58.952 121.047 58.952C121.935 58.952 122.707 59.196 123.363 59.684L122.931 60.332C122.387 59.932 121.771 59.732 121.083 59.732C119.995 59.732 119.451 60.036 119.451 60.644C119.451 60.9 119.563 61.096 119.787 61.232C120.019 61.368 120.427 61.484 121.011 61.58C121.907 61.716 122.543 61.92 122.919 62.192C123.295 62.464 123.483 62.856 123.483 63.368C123.483 63.888 123.255 64.312 122.799 64.64C122.351 64.96 121.755 65.12 121.011 65.12ZM127.023 65.12C125.967 65.12 125.091 64.796 124.395 64.148L124.863 63.512C125.415 64.048 126.139 64.316 127.035 64.316C127.523 64.316 127.907 64.232 128.187 64.064C128.475 63.888 128.619 63.652 128.619 63.356C128.619 63.084 128.495 62.876 128.247 62.732C128.007 62.588 127.571 62.464 126.939 62.36C126.115 62.248 125.515 62.056 125.139 61.784C124.771 61.512 124.587 61.136 124.587 60.656C124.587 60.136 124.811 59.724 125.259 59.42C125.707 59.108 126.307 58.952 127.059 58.952C127.947 58.952 128.719 59.196 129.375 59.684L128.943 60.332C128.399 59.932 127.783 59.732 127.095 59.732C126.007 59.732 125.463 60.036 125.463 60.644C125.463 60.9 125.575 61.096 125.799 61.232C126.031 61.368 126.439 61.484 127.023 61.58C127.919 61.716 128.555 61.92 128.931 62.192C129.307 62.464 129.495 62.856 129.495 63.368C129.495 63.888 129.267 64.312 128.811 64.64C128.363 64.96 127.767 65.12 127.023 65.12ZM134.86 56.6L133.732 58.16H132.904L133.78 56.6H134.86ZM133.456 58.952C134.456 58.952 135.228 59.264 135.772 59.888C136.316 60.504 136.544 61.336 136.456 62.384H131.356C131.404 62.984 131.628 63.456 132.028 63.8C132.428 64.144 132.94 64.316 133.564 64.316C133.948 64.316 134.32 64.244 134.68 64.1C135.04 63.956 135.316 63.764 135.508 63.524L136.084 64.064C135.804 64.4 135.436 64.664 134.98 64.856C134.532 65.048 134.052 65.144 133.54 65.144C132.62 65.144 131.872 64.86 131.296 64.292C130.728 63.716 130.444 62.964 130.444 62.036C130.444 61.124 130.724 60.384 131.284 59.816C131.844 59.24 132.568 58.952 133.456 58.952ZM133.48 59.756C132.888 59.756 132.404 59.924 132.028 60.26C131.66 60.588 131.44 61.04 131.368 61.616H135.616C135.584 61.056 135.376 60.608 134.992 60.272C134.608 59.928 134.104 59.756 133.48 59.756ZM139.996 65.12C138.94 65.12 138.064 64.796 137.368 64.148L137.836 63.512C138.388 64.048 139.112 64.316 140.008 64.316C140.496 64.316 140.88 64.232 141.16 64.064C141.448 63.888 141.592 63.652 141.592 63.356C141.592 63.084 141.468 62.876 141.22 62.732C140.98 62.588 140.544 62.464 139.912 62.36C139.088 62.248 138.488 62.056 138.112 61.784C137.744 61.512 137.56 61.136 137.56 60.656C137.56 60.136 137.784 59.724 138.232 59.42C138.68 59.108 139.28 58.952 140.032 58.952C140.92 58.952 141.692 59.196 142.348 59.684L141.916 60.332C141.372 59.932 140.756 59.732 140.068 59.732C138.98 59.732 138.436 60.036 138.436 60.644C138.436 60.9 138.548 61.096 138.772 61.232C139.004 61.368 139.412 61.484 139.996 61.58C140.892 61.716 141.528 61.92 141.904 62.192C142.28 62.464 142.468 62.856 142.468 63.368C142.468 63.888 142.24 64.312 141.784 64.64C141.336 64.96 140.74 65.12 139.996 65.12Z" fill="black"/>
<path d="M32.257 81.179C29.661 81.179 28.374 83.071 28.374 85.139C28.374 87.174 29.672 89.132 32.257 89.132C34.842 89.132 36.129 87.185 36.14 85.161C36.151 83.082 34.853 81.179 32.257 81.179ZM32.257 81.729C34.468 81.729 35.568 83.368 35.568 85.15C35.568 86.888 34.457 88.582 32.257 88.582C30.068 88.582 28.968 86.888 28.957 85.15C28.946 83.335 30.046 81.729 32.257 81.729ZM41.6452 87.878C41.2052 88.318 40.6112 88.549 40.0282 88.549C38.7962 88.549 37.7622 87.746 37.7622 86.283C37.7622 84.82 38.7962 84.017 40.0282 84.017C40.6112 84.017 41.2162 84.226 41.6562 84.666L42.0082 84.325C41.4582 83.786 40.7432 83.511 40.0282 83.511C38.4552 83.511 37.2342 84.567 37.2342 86.283C37.2342 87.999 38.4992 89.055 40.0282 89.055C40.7432 89.055 41.4582 88.791 42.0082 88.241L41.6452 87.878ZM43.822 81.982V83.566H42.667V84.017H43.822V87.328C43.822 88.395 44.196 89.077 45.351 89.077C45.692 89.077 46.033 88.967 46.374 88.802L46.187 88.362C45.912 88.494 45.615 88.582 45.351 88.582C44.504 88.582 44.35 88.065 44.35 87.328V84.017H46.198V83.566H44.35V81.927L43.822 81.982ZM50.9494 83.346C50.9494 82.07 52.2914 81.718 53.3144 81.718C54.3704 81.718 55.7344 82.092 55.7344 83.445C55.7344 84.743 54.3154 85.117 53.3144 85.117C51.8954 85.117 50.3224 85.557 50.3224 87.262V89H56.2074V88.428H50.9054V87.251C50.9054 85.931 52.2144 85.667 53.3364 85.656C54.7004 85.656 56.2844 85.018 56.2844 83.445C56.2734 81.784 54.7334 81.201 53.3144 81.201C51.9284 81.201 50.3664 81.707 50.3664 83.346H50.9494ZM58.1008 84.226C58.1008 80.937 62.8308 80.948 62.8308 84.226V86.063C62.8308 89.352 58.1008 89.363 58.1008 86.063V84.226ZM57.5178 86.063C57.5178 90.1 63.4138 90.089 63.4138 86.063V84.226C63.4138 80.2 57.5178 80.189 57.5178 84.226V86.063ZM64.8605 83.346C64.8605 82.07 66.2025 81.718 67.2255 81.718C68.2815 81.718 69.6455 82.092 69.6455 83.445C69.6455 84.743 68.2265 85.117 67.2255 85.117C65.8065 85.117 64.2335 85.557 64.2335 87.262V89H70.1185V88.428H64.8165V87.251C64.8165 85.931 66.1255 85.667 67.2475 85.656C68.6115 85.656 70.1955 85.018 70.1955 83.445C70.1845 81.784 68.6445 81.201 67.2255 81.201C65.8395 81.201 64.2775 81.707 64.2775 83.346H64.8605ZM72.1329 83.346C72.1329 82.07 73.4749 81.718 74.4979 81.718C75.5539 81.718 76.9179 82.092 76.9179 83.445C76.9179 84.743 75.4989 85.117 74.4979 85.117C73.0789 85.117 71.5059 85.557 71.5059 87.262V89H77.3909V88.428H72.0889V87.251C72.0889 85.931 73.3979 85.667 74.5199 85.656C75.8839 85.656 77.4679 85.018 77.4679 83.445C77.4569 81.784 75.9169 81.201 74.4979 81.201C73.1119 81.201 71.5499 81.707 71.5499 83.346H72.1329Z" fill="black"/>
<path d="M88.1917 88.3384C88.2261 88.3883 88.2722 88.4292 88.3259 88.4574C88.3796 88.4856 88.4393 88.5004 88.5 88.5004C88.5607 88.5004 88.6204 88.4856 88.6741 88.4574C88.7278 88.4292 88.7738 88.3883 88.8082 88.3384L92.1832 83.4634C92.2223 83.4071 92.2452 83.3413 92.2495 83.273C92.2537 83.2046 92.2392 83.1364 92.2074 83.0758C92.1756 83.0151 92.1279 82.9643 92.0693 82.9289C92.0106 82.8936 91.9435 82.8749 91.875 82.875H85.125C85.0567 82.8753 84.9897 82.8942 84.9314 82.9297C84.873 82.9651 84.8254 83.0159 84.7937 83.0764C84.762 83.1369 84.7474 83.2049 84.7515 83.2731C84.7555 83.3413 84.7781 83.4071 84.8167 83.4634L88.1917 88.3384Z" fill="black"/>
<rect x="133" y="121" width="21.6774" height="21" rx="6.77419" fill="black"/>
<path fill-rule="evenodd" clip-rule="evenodd" d="M137 131.726C137 131.855 137.053 131.977 137.146 132.068C137.24 132.159 137.367 132.209 137.5 132.209H149.293L146.146 135.248C146.1 135.293 146.063 135.346 146.037 135.405C146.012 135.463 145.999 135.526 145.999 135.59C145.999 135.653 146.012 135.716 146.037 135.775C146.063 135.833 146.1 135.887 146.146 135.932C146.192 135.977 146.248 136.012 146.308 136.036C146.369 136.061 146.434 136.073 146.5 136.073C146.566 136.073 146.631 136.061 146.692 136.036C146.752 136.012 146.808 135.977 146.854 135.932L150.854 132.068C150.901 132.024 150.937 131.97 150.963 131.912C150.988 131.853 151.001 131.79 151.001 131.726C151.001 131.663 150.988 131.6 150.963 131.541C150.937 131.483 150.901 131.429 150.854 131.385L146.854 127.521C146.808 127.476 146.752 127.441 146.692 127.417C146.631 127.392 146.566 127.38 146.5 127.38C146.434 127.38 146.369 127.392 146.308 127.417C146.248 127.441 146.192 127.476 146.146 127.521C146.1 127.566 146.063 127.62 146.037 127.678C146.012 127.737 145.999 127.8 145.999 127.863C145.999 127.927 146.012 127.99 146.037 128.048C146.063 128.107 146.1 128.16 146.146 128.205L149.293 131.244H137.5C137.367 131.244 137.24 131.294 137.146 131.385C137.053 131.476 137 131.598 137 131.726Z" fill="white"/>
</svg>
