<svg width="33" height="33" viewBox="0 0 33 33" fill="none" xmlns="http://www.w3.org/2000/svg">
<g clip-path="url(#clip0_334_1090)">
<path d="M30.1125 25.7859L29.8008 25.5109C28.9166 24.7232 28.1427 23.8197 27.5 22.8251C26.798 21.4524 26.3773 19.9534 26.2625 18.4159V13.8876C26.2686 11.4728 25.3926 9.1388 23.7992 7.32426C22.2058 5.50971 20.0046 4.33949 17.6092 4.03345V2.85095C17.6092 2.52639 17.4802 2.21512 17.2507 1.98563C17.0212 1.75613 16.71 1.6272 16.3854 1.6272C16.0609 1.6272 15.7496 1.75613 15.5201 1.98563C15.2906 2.21512 15.1617 2.52639 15.1617 2.85095V4.05178C12.7877 4.37988 10.6131 5.55718 9.04066 7.36563C7.46817 9.17408 6.60434 11.4911 6.60917 13.8876V18.4159C6.49436 19.9534 6.07363 21.4524 5.37167 22.8251C4.73998 23.8173 3.97852 24.7205 3.1075 25.5109L2.79584 25.7859V28.3709H30.1125V25.7859Z" fill="black"/>
<path d="M14.0433 29.3333C14.1237 29.9143 14.4116 30.4466 14.8539 30.832C15.2962 31.2173 15.863 31.4295 16.4496 31.4295C17.0362 31.4295 17.603 31.2173 18.0452 30.832C18.4875 30.4466 18.7755 29.9143 18.8558 29.3333H14.0433Z" fill="black"/>
</g>
<path d="M17.8538 30.0258C17.495 30.3184 17.0296 30.489 16.5389 30.4998C16.0346 30.5061 15.5501 30.343 15.175 30.0486C14.9759 29.8923 14.8155 29.7054 14.6986 29.5H18.3016C18.1904 29.6955 18.0398 29.8742 17.8538 30.0258Z" fill="black"/>
<path d="M17.8538 30.0258C17.495 30.3184 17.0296 30.489 16.5389 30.4998C16.0346 30.5061 15.5501 30.343 15.175 30.0486C14.9759 29.8923 14.8155 29.7054 14.6986 29.5H18.3016C18.1904 29.6955 18.0398 29.8742 17.8538 30.0258Z" stroke="black"/>
<path d="M17.8538 30.0258C17.495 30.3184 17.0296 30.489 16.5389 30.4998C16.0346 30.5061 15.5501 30.343 15.175 30.0486C14.9759 29.8923 14.8155 29.7054 14.6986 29.5H18.3016C18.1904 29.6955 18.0398 29.8742 17.8538 30.0258Z" stroke="black" stroke-opacity="0.2"/>
<defs>
<clipPath id="clip0_334_1090">
<rect width="33" height="33" fill="white"/>
</clipPath>
</defs>
</svg>
