<svg width="14" height="9" viewBox="0 0 14 9" fill="none" xmlns="http://www.w3.org/2000/svg">
<path d="M6.98902 8.99696C6.75578 8.99755 6.52974 8.89297 6.35014 8.7014L0.360621 2.27615C0.156761 2.05803 0.0285612 1.74459 0.00422411 1.40479C-0.020113 1.06498 0.0614062 0.726655 0.230848 0.464227C0.40029 0.201798 0.643776 0.0367669 0.90774 0.00543771C1.1717 -0.0258915 1.43452 0.0790476 1.63838 0.29717L6.98902 6.05419L12.3397 0.502779C12.4418 0.396035 12.5593 0.316321 12.6854 0.26822C12.8115 0.220118 12.9438 0.204577 13.0746 0.222489C13.2054 0.240402 13.3321 0.291414 13.4475 0.372596C13.563 0.453777 13.6648 0.563527 13.7472 0.695536C13.8386 0.827667 13.9079 0.982678 13.9506 1.15086C13.9933 1.31904 14.0086 1.49676 13.9954 1.67289C13.9823 1.84903 13.9411 2.01977 13.8743 2.17444C13.8076 2.3291 13.7167 2.46435 13.6074 2.57171L7.61792 8.7785C7.43316 8.9398 7.21173 9.01671 6.98902 8.99696Z" fill="black"/>
</svg>
