<svg width="16" height="14" viewBox="0 0 16 14" fill="none" xmlns="http://www.w3.org/2000/svg">
<path d="M15.501 1.97564C14.8309 0.641834 12.9006 -0.449462 10.6553 0.185915C9.58235 0.486501 8.64624 1.13111 7.99989 2.01444C7.35354 1.13111 6.41743 0.486501 5.3445 0.185915C3.09417 -0.439761 1.16888 0.641834 0.498785 1.97564C-0.441353 3.84297 -0.0512957 5.94311 1.65896 8.21785C2.99915 9.99788 4.91443 11.8022 7.69484 13.8974C7.78271 13.9639 7.89095 14 8.00239 14C8.11382 14 8.22206 13.9639 8.30993 13.8974C11.0853 11.807 13.0056 10.0173 14.3458 8.21785C16.0511 5.94311 16.4411 3.84297 15.501 1.97564Z" fill="#FFB0C3"/>
</svg>
