<svg width="168" height="154" viewBox="0 0 168 154" fill="none" xmlns="http://www.w3.org/2000/svg">
<path d="M0 20C0 8.9543 8.9543 0 20 0H148C159.046 0 168 8.9543 168 20V134C168 145.046 159.046 154 148 154H20C8.95431 154 0 145.046 0 134V20Z" fill="#EBEBEB"/>
<rect x="20.25" y="73.25" width="84.5" height="23.5" rx="11.75" stroke="black" stroke-width="0.5"/>
<path d="M21.288 48H31.944V44.416H28.84V25.6H21.16V29.44H24.648V44.416H21.288V48ZM38.597 32.096C38.629 30.08 40.901 28.96 43.109 28.96C45.989 28.96 48.197 30.112 48.197 32.544C48.197 35.136 45.093 35.424 43.397 35.424C38.981 35.424 34.309 36.96 34.309 42.112C34.309 44.096 34.309 46.048 34.309 48H52.453V44.064H38.533V42.144C38.533 39.712 41.541 39.232 43.397 39.232C48.101 39.232 52.389 38.144 52.389 32.448C52.389 27.136 47.525 25.312 43.045 25.312C38.917 25.312 34.437 27.36 34.405 32.096H38.597ZM59.2458 35.168C59.2458 27.072 70.5098 27.168 70.5098 35.168V38.4C70.5098 46.528 59.2458 46.528 59.2458 38.4V35.168ZM55.0538 38.4C55.0538 51.776 74.7018 51.744 74.7018 38.4V35.168C74.7018 21.824 55.0538 21.792 55.0538 35.168V38.4ZM87.9958 35.168C87.9958 27.072 99.2598 27.168 99.2598 35.168V38.4C99.2598 46.528 87.9958 46.528 87.9958 38.4V35.168ZM83.8038 38.4C83.8038 51.776 103.452 51.744 103.452 38.4V35.168C103.452 21.824 83.8038 21.792 83.8038 35.168V38.4ZM110.277 35.168C110.277 27.072 121.541 27.168 121.541 35.168V38.4C121.541 46.528 110.277 46.528 110.277 38.4V35.168ZM106.085 38.4C106.085 51.776 125.733 51.744 125.733 38.4V35.168C125.733 21.824 106.085 21.792 106.085 35.168V38.4ZM132.558 35.168C132.558 27.072 143.822 27.168 143.822 35.168V38.4C143.822 46.528 132.558 46.528 132.558 38.4V35.168ZM128.366 38.4C128.366 51.776 148.014 51.744 148.014 38.4V35.168C148.014 21.824 128.366 21.792 128.366 35.168V38.4Z" fill="black"/>
<path d="M25.352 59.072H26.312L23.804 65H22.844L20.336 59.072H21.308L22.268 61.4L23.324 64.052L24.392 61.4L25.352 59.072ZM32.0445 59.072H32.9325V65H32.1405L32.1285 64.04C31.6165 64.744 30.8965 65.096 29.9685 65.096C29.2005 65.096 28.5925 64.856 28.1445 64.376C27.6965 63.896 27.4725 63.24 27.4725 62.408V59.072H28.3605V62.36C28.3605 62.968 28.5085 63.44 28.8045 63.776C29.1085 64.112 29.5325 64.28 30.0765 64.28C30.6605 64.28 31.1325 64.092 31.4925 63.716C31.8605 63.332 32.0445 62.852 32.0445 62.276V59.072ZM37.3796 58.952C38.3796 58.952 39.1516 59.264 39.6956 59.888C40.2396 60.504 40.4676 61.336 40.3796 62.384H35.2796C35.3276 62.984 35.5516 63.456 35.9516 63.8C36.3516 64.144 36.8636 64.316 37.4876 64.316C37.8716 64.316 38.2436 64.244 38.6036 64.1C38.9636 63.956 39.2396 63.764 39.4316 63.524L40.0076 64.064C39.7276 64.4 39.3596 64.664 38.9036 64.856C38.4556 65.048 37.9756 65.144 37.4636 65.144C36.5436 65.144 35.7956 64.86 35.2196 64.292C34.6516 63.716 34.3676 62.964 34.3676 62.036C34.3676 61.124 34.6476 60.384 35.2076 59.816C35.7676 59.24 36.4916 58.952 37.3796 58.952ZM37.4036 59.756C36.8116 59.756 36.3276 59.924 35.9516 60.26C35.5836 60.588 35.3636 61.04 35.2916 61.616H39.5396C39.5076 61.056 39.2996 60.608 38.9156 60.272C38.5316 59.928 38.0276 59.756 37.4036 59.756ZM43.9197 65.12C42.8637 65.12 41.9877 64.796 41.2917 64.148L41.7597 63.512C42.3117 64.048 43.0357 64.316 43.9317 64.316C44.4197 64.316 44.8037 64.232 45.0837 64.064C45.3717 63.888 45.5157 63.652 45.5157 63.356C45.5157 63.084 45.3917 62.876 45.1437 62.732C44.9037 62.588 44.4677 62.464 43.8357 62.36C43.0117 62.248 42.4117 62.056 42.0357 61.784C41.6677 61.512 41.4837 61.136 41.4837 60.656C41.4837 60.136 41.7077 59.724 42.1557 59.42C42.6037 59.108 43.2037 58.952 43.9557 58.952C44.8437 58.952 45.6157 59.196 46.2717 59.684L45.8397 60.332C45.2957 59.932 44.6797 59.732 43.9917 59.732C42.9037 59.732 42.3597 60.036 42.3597 60.644C42.3597 60.9 42.4717 61.096 42.6957 61.232C42.9277 61.368 43.3357 61.484 43.9197 61.58C44.8157 61.716 45.4517 61.92 45.8277 62.192C46.2037 62.464 46.3917 62.856 46.3917 63.368C46.3917 63.888 46.1637 64.312 45.7077 64.64C45.2597 64.96 44.6637 65.12 43.9197 65.12ZM53.4811 58.952C54.4811 58.952 55.2531 59.264 55.7971 59.888C56.3411 60.504 56.5691 61.336 56.4811 62.384H51.3811C51.4291 62.984 51.6531 63.456 52.0531 63.8C52.4531 64.144 52.9651 64.316 53.5891 64.316C53.9731 64.316 54.3451 64.244 54.7051 64.1C55.0651 63.956 55.3411 63.764 55.5331 63.524L56.1091 64.064C55.8291 64.4 55.4611 64.664 55.0051 64.856C54.5571 65.048 54.0771 65.144 53.5651 65.144C52.6451 65.144 51.8971 64.86 51.3211 64.292C50.7531 63.716 50.4691 62.964 50.4691 62.036C50.4691 61.124 50.7491 60.384 51.3091 59.816C51.8691 59.24 52.5931 58.952 53.4811 58.952ZM53.5051 59.756C52.9131 59.756 52.4291 59.924 52.0531 60.26C51.6851 60.588 51.4651 61.04 51.3931 61.616H55.6411C55.6091 61.056 55.4011 60.608 55.0171 60.272C54.6331 59.928 54.1291 59.756 53.5051 59.756ZM60.0212 65.12C58.9652 65.12 58.0892 64.796 57.3932 64.148L57.8612 63.512C58.4132 64.048 59.1372 64.316 60.0332 64.316C60.5212 64.316 60.9052 64.232 61.1852 64.064C61.4732 63.888 61.6172 63.652 61.6172 63.356C61.6172 63.084 61.4932 62.876 61.2452 62.732C61.0052 62.588 60.5692 62.464 59.9372 62.36C59.1132 62.248 58.5132 62.056 58.1372 61.784C57.7692 61.512 57.5852 61.136 57.5852 60.656C57.5852 60.136 57.8092 59.724 58.2572 59.42C58.7052 59.108 59.3052 58.952 60.0572 58.952C60.9452 58.952 61.7172 59.196 62.3732 59.684L61.9412 60.332C61.3972 59.932 60.7812 59.732 60.0932 59.732C59.0052 59.732 58.4612 60.036 58.4612 60.644C58.4612 60.9 58.5732 61.096 58.7972 61.232C59.0292 61.368 59.4372 61.484 60.0212 61.58C60.9172 61.716 61.5532 61.92 61.9292 62.192C62.3052 62.464 62.4932 62.856 62.4932 63.368C62.4932 63.888 62.2652 64.312 61.8092 64.64C61.3612 64.96 60.7652 65.12 60.0212 65.12ZM67.3049 64.064L67.5809 64.796C67.1409 64.996 66.7249 65.096 66.3329 65.096C65.1489 65.096 64.5569 64.432 64.5569 63.104V59.852H63.3569V59.072H64.5569V57.416L65.4449 57.332V59.072H67.3289V59.852H65.4449V63.104C65.4449 63.488 65.5169 63.784 65.6609 63.992C65.8049 64.192 66.0569 64.292 66.4169 64.292C66.6889 64.292 66.9849 64.216 67.3049 64.064ZM69.1451 57.908C68.9611 57.908 68.8091 57.852 68.6891 57.74C68.5691 57.62 68.5091 57.468 68.5091 57.284C68.5091 57.1 68.5691 56.948 68.6891 56.828C68.8091 56.708 68.9611 56.648 69.1451 56.648C69.3371 56.648 69.4931 56.708 69.6131 56.828C69.7331 56.948 69.7931 57.1 69.7931 57.284C69.7931 57.468 69.7331 57.62 69.6131 57.74C69.4931 57.852 69.3371 57.908 69.1451 57.908ZM68.7011 65V59.072H69.5891V65H68.7011ZM78.3201 58.976C79.0721 58.976 79.6601 59.204 80.0841 59.66C80.5161 60.116 80.7321 60.748 80.7321 61.556V65H79.8441V61.604C79.8441 61.02 79.7081 60.572 79.4361 60.26C79.1721 59.948 78.7881 59.792 78.2841 59.792C77.7721 59.792 77.3481 59.972 77.0121 60.332C76.6841 60.684 76.5201 61.136 76.5201 61.688V65H75.6321V61.604C75.6321 61.02 75.4961 60.572 75.2241 60.26C74.9601 59.948 74.5721 59.792 74.0601 59.792C73.5481 59.792 73.1241 59.972 72.7881 60.332C72.4601 60.684 72.2961 61.136 72.2961 61.688V65H71.4081V59.072H72.2121L72.2241 59.96C72.6641 59.304 73.2921 58.976 74.1081 58.976C74.5881 58.976 75.0041 59.084 75.3561 59.3C75.7161 59.516 75.9801 59.82 76.1481 60.212C76.6121 59.388 77.3361 58.976 78.3201 58.976ZM86.4906 56.6L85.3626 58.16H84.5346L85.4106 56.6H86.4906ZM85.0866 58.952C86.0866 58.952 86.8586 59.264 87.4026 59.888C87.9466 60.504 88.1746 61.336 88.0866 62.384H82.9866C83.0346 62.984 83.2586 63.456 83.6586 63.8C84.0586 64.144 84.5706 64.316 85.1946 64.316C85.5786 64.316 85.9506 64.244 86.3106 64.1C86.6706 63.956 86.9466 63.764 87.1386 63.524L87.7146 64.064C87.4346 64.4 87.0666 64.664 86.6106 64.856C86.1626 65.048 85.6826 65.144 85.1706 65.144C84.2506 65.144 83.5026 64.86 82.9266 64.292C82.3586 63.716 82.0746 62.964 82.0746 62.036C82.0746 61.124 82.3546 60.384 82.9146 59.816C83.4746 59.24 84.1986 58.952 85.0866 58.952ZM85.1106 59.756C84.5186 59.756 84.0346 59.924 83.6586 60.26C83.2906 60.588 83.0706 61.04 82.9986 61.616H87.2466C87.2146 61.056 87.0066 60.608 86.6226 60.272C86.2386 59.928 85.7346 59.756 85.1106 59.756ZM91.6267 65.12C90.5707 65.12 89.6947 64.796 88.9987 64.148L89.4667 63.512C90.0187 64.048 90.7427 64.316 91.6387 64.316C92.1267 64.316 92.5107 64.232 92.7907 64.064C93.0787 63.888 93.2227 63.652 93.2227 63.356C93.2227 63.084 93.0987 62.876 92.8507 62.732C92.6107 62.588 92.1747 62.464 91.5427 62.36C90.7187 62.248 90.1187 62.056 89.7427 61.784C89.3747 61.512 89.1907 61.136 89.1907 60.656C89.1907 60.136 89.4147 59.724 89.8627 59.42C90.3107 59.108 90.9107 58.952 91.6627 58.952C92.5507 58.952 93.3227 59.196 93.9787 59.684L93.5467 60.332C93.0027 59.932 92.3867 59.732 91.6987 59.732C90.6107 59.732 90.0667 60.036 90.0667 60.644C90.0667 60.9 90.1787 61.096 90.4027 61.232C90.6347 61.368 91.0427 61.484 91.6267 61.58C92.5227 61.716 93.1587 61.92 93.5347 62.192C93.9107 62.464 94.0987 62.856 94.0987 63.368C94.0987 63.888 93.8707 64.312 93.4147 64.64C92.9667 64.96 92.3707 65.12 91.6267 65.12Z" fill="black"/>
<path d="M32.257 81.179C29.661 81.179 28.374 83.071 28.374 85.139C28.374 87.174 29.672 89.132 32.257 89.132C34.842 89.132 36.129 87.185 36.14 85.161C36.151 83.082 34.853 81.179 32.257 81.179ZM32.257 81.729C34.468 81.729 35.568 83.368 35.568 85.15C35.568 86.888 34.457 88.582 32.257 88.582C30.068 88.582 28.968 86.888 28.957 85.15C28.946 83.335 30.046 81.729 32.257 81.729ZM41.6452 87.878C41.2052 88.318 40.6112 88.549 40.0282 88.549C38.7962 88.549 37.7622 87.746 37.7622 86.283C37.7622 84.82 38.7962 84.017 40.0282 84.017C40.6112 84.017 41.2162 84.226 41.6562 84.666L42.0082 84.325C41.4582 83.786 40.7432 83.511 40.0282 83.511C38.4552 83.511 37.2342 84.567 37.2342 86.283C37.2342 87.999 38.4992 89.055 40.0282 89.055C40.7432 89.055 41.4582 88.791 42.0082 88.241L41.6452 87.878ZM43.822 81.982V83.566H42.667V84.017H43.822V87.328C43.822 88.395 44.196 89.077 45.351 89.077C45.692 89.077 46.033 88.967 46.374 88.802L46.187 88.362C45.912 88.494 45.615 88.582 45.351 88.582C44.504 88.582 44.35 88.065 44.35 87.328V84.017H46.198V83.566H44.35V81.927L43.822 81.982ZM50.9494 83.346C50.9494 82.07 52.2914 81.718 53.3144 81.718C54.3704 81.718 55.7344 82.092 55.7344 83.445C55.7344 84.743 54.3154 85.117 53.3144 85.117C51.8954 85.117 50.3224 85.557 50.3224 87.262V89H56.2074V88.428H50.9054V87.251C50.9054 85.931 52.2144 85.667 53.3364 85.656C54.7004 85.656 56.2844 85.018 56.2844 83.445C56.2734 81.784 54.7334 81.201 53.3144 81.201C51.9284 81.201 50.3664 81.707 50.3664 83.346H50.9494ZM58.1008 84.226C58.1008 80.937 62.8308 80.948 62.8308 84.226V86.063C62.8308 89.352 58.1008 89.363 58.1008 86.063V84.226ZM57.5178 86.063C57.5178 90.1 63.4138 90.089 63.4138 86.063V84.226C63.4138 80.2 57.5178 80.189 57.5178 84.226V86.063ZM64.8605 83.346C64.8605 82.07 66.2025 81.718 67.2255 81.718C68.2815 81.718 69.6455 82.092 69.6455 83.445C69.6455 84.743 68.2265 85.117 67.2255 85.117C65.8065 85.117 64.2335 85.557 64.2335 87.262V89H70.1185V88.428H64.8165V87.251C64.8165 85.931 66.1255 85.667 67.2475 85.656C68.6115 85.656 70.1955 85.018 70.1955 83.445C70.1845 81.784 68.6445 81.201 67.2255 81.201C65.8395 81.201 64.2775 81.707 64.2775 83.346H64.8605ZM72.1329 83.346C72.1329 82.07 73.4749 81.718 74.4979 81.718C75.5539 81.718 76.9179 82.092 76.9179 83.445C76.9179 84.743 75.4989 85.117 74.4979 85.117C73.0789 85.117 71.5059 85.557 71.5059 87.262V89H77.3909V88.428H72.0889V87.251C72.0889 85.931 73.3979 85.667 74.5199 85.656C75.8839 85.656 77.4679 85.018 77.4679 83.445C77.4569 81.784 75.9169 81.201 74.4979 81.201C73.1119 81.201 71.5499 81.707 71.5499 83.346H72.1329Z" fill="black"/>
<path d="M88.1917 88.3384C88.2261 88.3883 88.2722 88.4292 88.3259 88.4574C88.3796 88.4856 88.4393 88.5004 88.5 88.5004C88.5607 88.5004 88.6204 88.4856 88.6741 88.4574C88.7278 88.4292 88.7738 88.3883 88.8082 88.3384L92.1832 83.4634C92.2223 83.4071 92.2452 83.3413 92.2495 83.273C92.2537 83.2046 92.2392 83.1364 92.2074 83.0758C92.1756 83.0151 92.1279 82.9643 92.0693 82.9289C92.0106 82.8936 91.9435 82.8749 91.875 82.875H85.125C85.0567 82.8753 84.9897 82.8942 84.9314 82.9297C84.873 82.9651 84.8254 83.0159 84.7937 83.0764C84.762 83.1369 84.7474 83.2049 84.7515 83.2731C84.7555 83.3413 84.7781 83.4071 84.8167 83.4634L88.1917 88.3384Z" fill="black"/>
<rect x="133" y="121" width="21.6774" height="21" rx="6.77419" fill="black"/>
<path fill-rule="evenodd" clip-rule="evenodd" d="M137 131.726C137 131.855 137.053 131.977 137.146 132.068C137.24 132.159 137.367 132.209 137.5 132.209H149.293L146.146 135.248C146.1 135.293 146.063 135.346 146.037 135.405C146.012 135.463 145.999 135.526 145.999 135.59C145.999 135.653 146.012 135.716 146.037 135.775C146.063 135.833 146.1 135.887 146.146 135.932C146.193 135.977 146.248 136.012 146.308 136.036C146.369 136.061 146.434 136.073 146.5 136.073C146.566 136.073 146.631 136.061 146.692 136.036C146.752 136.012 146.808 135.977 146.854 135.932L150.854 132.068C150.901 132.024 150.938 131.97 150.963 131.912C150.988 131.853 151.001 131.79 151.001 131.726C151.001 131.663 150.988 131.6 150.963 131.541C150.938 131.483 150.901 131.429 150.854 131.385L146.854 127.521C146.808 127.476 146.752 127.441 146.692 127.417C146.631 127.392 146.566 127.38 146.5 127.38C146.434 127.38 146.369 127.392 146.308 127.417C146.248 127.441 146.193 127.476 146.146 127.521C146.1 127.566 146.063 127.62 146.037 127.678C146.012 127.737 145.999 127.8 145.999 127.863C145.999 127.927 146.012 127.99 146.037 128.048C146.063 128.107 146.1 128.16 146.146 128.205L149.293 131.244H137.5C137.367 131.244 137.24 131.294 137.146 131.385C137.053 131.476 137 131.598 137 131.726Z" fill="white"/>
</svg>
