<svg width="23" height="4" viewBox="0 0 23 4" fill="none" xmlns="http://www.w3.org/2000/svg">
<path d="M2 3.25C2.69036 3.25 3.25 2.69036 3.25 2C3.25 1.30964 2.69036 0.75 2 0.75C1.30964 0.75 0.75 1.30964 0.75 2C0.75 2.69036 1.30964 3.25 2 3.25Z" fill="black" stroke="black" stroke-width="1.5" stroke-linecap="round" stroke-linejoin="round"/>
<path d="M11.1667 3.25C11.857 3.25 12.4167 2.69036 12.4167 2C12.4167 1.30964 11.857 0.75 11.1667 0.75C10.4763 0.75 9.91669 1.30964 9.91669 2C9.91669 2.69036 10.4763 3.25 11.1667 3.25Z" fill="black" stroke="black" stroke-width="1.5" stroke-linecap="round" stroke-linejoin="round"/>
<path d="M20.3333 3.25C21.0237 3.25 21.5833 2.69036 21.5833 2C21.5833 1.30964 21.0237 0.75 20.3333 0.75C19.643 0.75 19.0833 1.30964 19.0833 2C19.0833 2.69036 19.643 3.25 20.3333 3.25Z" fill="black" stroke="black" stroke-width="1.5" stroke-linecap="round" stroke-linejoin="round"/>
</svg>
