<svg width="14" height="14" viewBox="0 0 14 14" fill="none" xmlns="http://www.w3.org/2000/svg">
<path d="M6.12499 8.16667H10.5V7.00001H7.29166L6.12499 8.16667ZM3.49999 8.16667H4.92916L8.37082 4.75417C8.42916 4.69584 8.45832 4.62292 8.45832 4.53542C8.45832 4.44792 8.42916 4.37501 8.37082 4.31667L7.34999 3.29584C7.29166 3.23751 7.21874 3.20834 7.13124 3.20834C7.04374 3.20834 6.97082 3.23751 6.91249 3.29584L3.49999 6.73751V8.16667ZM1.16666 12.8333V2.33334C1.16666 2.01251 1.28099 1.73776 1.50966 1.50909C1.73793 1.28081 2.01249 1.16667 2.33332 1.16667H11.6667C11.9875 1.16667 12.2622 1.28081 12.4909 1.50909C12.7192 1.73776 12.8333 2.01251 12.8333 2.33334V9.33334C12.8333 9.65417 12.7192 9.92892 12.4909 10.1576C12.2622 10.3859 11.9875 10.5 11.6667 10.5H3.49999L1.16666 12.8333Z" fill="black"/>
</svg>
