<svg width="27" height="24" viewBox="0 0 27 24" fill="none" xmlns="http://www.w3.org/2000/svg">
<path d="M26.1579 3.38681C25.0271 1.10029 21.7698 -0.770506 17.9808 0.318711C16.1702 0.834001 14.5905 1.93905 13.4998 3.45333C12.4091 1.93905 10.8294 0.834001 9.01883 0.318711C5.2214 -0.753877 1.97248 1.10029 0.841693 3.38681C-0.74479 6.58794 -0.0865679 10.1882 2.79948 14.0877C5.06106 17.1392 8.2931 20.2323 12.985 23.8242C13.1333 23.9381 13.316 24 13.504 24C13.6921 24 13.8747 23.9381 14.023 23.8242C18.7065 20.2406 21.947 17.1725 24.2086 14.0877C27.0862 10.1882 27.7444 6.58794 26.1579 3.38681Z" fill="#FFB0C3"/>
</svg>
