<svg width="54" height="11" viewBox="0 0 54 11" fill="none" xmlns="http://www.w3.org/2000/svg">
<path d="M5.03392 0.629397L3.6024 3.53019L0.402712 3.99269L2.71832 6.25166L2.17088 9.43876L5.03392 7.93488L7.89696 9.43876L7.34952 6.25166L9.66513 3.99583L6.46544 3.53019L5.03392 0.629397Z" fill="#FFE03C"/>
<path d="M16.017 0.629397L14.5855 3.53019L11.3858 3.99269L13.7014 6.25166L13.154 9.43876L16.017 7.93488L18.88 9.43876L18.3326 6.25166L20.6482 3.99583L17.4485 3.53019L16.017 0.629397Z" fill="#FFE03C"/>
<path d="M27.0002 0.629397L25.5687 3.53019L22.369 3.99269L24.6846 6.25166L24.1372 9.43876L27.0002 7.93488L29.8632 9.43876L29.3158 6.25166L31.6314 3.99583L28.4317 3.53019L27.0002 0.629397Z" fill="#FFE03C"/>
<path d="M37.9833 0.629397L36.5518 3.53019L33.3521 3.99269L35.6677 6.25166L35.1202 9.43876L37.9833 7.93488L40.8463 9.43876L40.2989 6.25166L42.6145 3.99583L39.4148 3.53019L37.9833 0.629397Z" fill="#FFE03C"/>
<g clip-path="url(#clip0_320_1754)">
<path d="M47.5704 3.77762L47.7006 3.7588L47.7588 3.64083L48.9661 1.19432L50.1735 3.64083L50.2316 3.75867L50.3616 3.77759L53.06 4.17027L51.1073 6.07258L51.0131 6.16436L51.0353 6.29398L51.497 8.98191L49.0824 7.71355L48.9661 7.65248L48.8499 7.71355L46.4352 8.98191L46.8969 6.29398L46.9192 6.16447L46.8251 6.07271L44.8722 4.16762L47.5704 3.77762Z" stroke="#FFE03B" stroke-width="0.5"/>
</g>
<defs>
<clipPath id="clip0_320_1754">
<rect width="10.0678" height="10.0678" fill="white" transform="translate(43.9322)"/>
</clipPath>
</defs>
</svg>
