<svg width="14" height="11" viewBox="0 0 14 11" fill="none" xmlns="http://www.w3.org/2000/svg">
<path d="M4.38565 5.33333C5.10143 5.33333 5.7879 5.05238 6.29403 4.55229C6.80016 4.05219 7.08451 3.37391 7.08451 2.66667C7.08451 1.95942 6.80016 1.28115 6.29403 0.781048C5.7879 0.280951 5.10143 0 4.38565 0C3.66987 0 2.9834 0.280951 2.47727 0.781048C1.97113 1.28115 1.68679 1.95942 1.68679 2.66667C1.68679 3.37391 1.97113 4.05219 2.47727 4.55229C2.9834 5.05238 3.66987 5.33333 4.38565 5.33333ZM10.4581 5.33333C10.9949 5.33333 11.5098 5.12262 11.8894 4.74755C12.269 4.37247 12.4822 3.86377 12.4822 3.33333C12.4822 2.8029 12.269 2.29419 11.8894 1.91912C11.5098 1.54405 10.9949 1.33333 10.4581 1.33333C9.92125 1.33333 9.4064 1.54405 9.0268 1.91912C8.64719 2.29419 8.43394 2.8029 8.43394 3.33333C8.43394 3.86377 8.64719 4.37247 9.0268 4.74755C9.4064 5.12262 9.92125 5.33333 10.4581 5.33333ZM1.26509 6.33333C0.929568 6.33333 0.607787 6.46503 0.370536 6.69945C0.133286 6.93387 0 7.25181 0 7.58333V8C0 8 0 11 4.38565 11C8.7713 11 8.7713 8 8.7713 8V7.58333C8.7713 7.25181 8.63801 6.93387 8.40076 6.69945C8.16351 6.46503 7.84173 6.33333 7.5062 6.33333H1.26509ZM8.66132 10.0297C9.12552 10.2157 9.71354 10.3333 10.4577 10.3333C14 10.3333 14 7.66667 14 7.66667V7.58333C14 7.25187 13.8668 6.93398 13.6296 6.69957C13.3924 6.46516 13.0707 6.33342 12.7352 6.33333H8.97607C9.27942 6.68075 9.44601 7.12449 9.44534 7.58333V8.015L9.445 8.034C9.44302 8.0987 9.43852 8.16331 9.4315 8.22767C9.41478 8.37646 9.38761 8.52393 9.3502 8.669C9.22245 9.16629 8.98746 9.63044 8.66132 10.0297Z" fill="black"/>
</svg>
