<svg width="23" height="4" viewBox="0 0 23 4" fill="none" xmlns="http://www.w3.org/2000/svg">
<path d="M2 3.25C2.69036 3.25 3.25 2.69036 3.25 2C3.25 1.30964 2.69036 0.75 2 0.75C1.30964 0.75 0.75 1.30964 0.75 2C0.75 2.69036 1.30964 3.25 2 3.25Z" fill="white" stroke="white" stroke-width="1.5" stroke-linecap="round" stroke-linejoin="round"/>
<path d="M11.1666 3.25C11.857 3.25 12.4166 2.69036 12.4166 2C12.4166 1.30964 11.857 0.75 11.1666 0.75C10.4763 0.75 9.91663 1.30964 9.91663 2C9.91663 2.69036 10.4763 3.25 11.1666 3.25Z" fill="white" stroke="white" stroke-width="1.5" stroke-linecap="round" stroke-linejoin="round"/>
<path d="M20.3334 3.25C21.0237 3.25 21.5834 2.69036 21.5834 2C21.5834 1.30964 21.0237 0.75 20.3334 0.75C19.643 0.75 19.0834 1.30964 19.0834 2C19.0834 2.69036 19.643 3.25 20.3334 3.25Z" fill="white" stroke="white" stroke-width="1.5" stroke-linecap="round" stroke-linejoin="round"/>
</svg>
