<svg width="27" height="24" viewBox="0 0 27 24" fill="none" xmlns="http://www.w3.org/2000/svg">
<path d="M25.4859 3.71985L25.4856 3.71928C24.5202 1.76718 21.6386 0.0475619 18.188 1.03952L18.1861 1.04007C16.5364 1.50956 15.0994 2.51575 14.1084 3.89167L13.4998 4.73656L12.8912 3.89167C11.9003 2.51596 10.4636 1.50987 8.81431 1.04029C5.35056 0.0622683 2.47804 1.76988 1.51397 3.71928L1.51369 3.71985C0.0965892 6.57922 0.614465 9.87458 3.40219 13.6414L25.4859 3.71985ZM25.4859 3.71985C26.9032 6.57954 26.385 9.87526 23.6051 13.6424L23.6037 13.6443C21.4022 16.6471 18.2245 19.665 13.5672 23.2285L13.566 23.2295C13.5496 23.2421 13.5278 23.25 13.504 23.25C13.4803 23.25 13.4585 23.2421 13.442 23.2295L13.4409 23.2287M25.4859 3.71985L13.4409 23.2287M13.4409 23.2287C8.77802 19.6589 5.60601 16.6148 3.40234 13.6416L13.4409 23.2287Z" fill="white" stroke="black" stroke-width="1.5"/>
</svg>
