<svg width="18" height="18" viewBox="0 0 18 18" fill="none" xmlns="http://www.w3.org/2000/svg">
<path d="M9.57882 4.50879C9.57882 4.3596 9.51956 4.21653 9.41407 4.11104C9.30858 4.00555 9.16551 3.94629 9.01632 3.94629C8.86714 3.94629 8.72406 4.00555 8.61858 4.11104C8.51309 4.21653 8.45382 4.3596 8.45382 4.50879V8.0396C8.24109 8.16318 8.07504 8.35347 7.98142 8.58099C7.88779 8.8085 7.87181 9.06054 7.93595 9.29806C8.00008 9.53558 8.14076 9.74532 8.33618 9.89478C8.5316 10.0442 8.77086 10.1251 9.01689 10.1248C9.22164 10.1248 9.41401 10.0697 9.57882 9.97348L11.6426 11.1654C11.7718 11.2388 11.9247 11.2582 12.068 11.2193C12.2114 11.1804 12.3335 11.0863 12.4078 10.9577C12.4821 10.829 12.5024 10.6763 12.4645 10.5326C12.4265 10.389 12.3333 10.2663 12.2051 10.1912L10.1351 8.99641C10.1336 8.80203 10.0815 8.61139 9.98383 8.4433C9.88617 8.27522 9.74639 8.1355 9.57826 8.03791V4.50879H9.57882Z" fill="black"/>
<path d="M16.875 9C16.875 4.65075 13.3492 1.125 9 1.125C4.65075 1.125 1.125 4.65075 1.125 9C1.125 13.3492 4.65075 16.875 9 16.875C13.3492 16.875 16.875 13.3492 16.875 9ZM15.1875 9C15.1875 12.4172 12.4172 15.1875 9 15.1875C5.58281 15.1875 2.8125 12.4172 2.8125 9C2.8125 5.58281 5.58281 2.8125 9 2.8125C12.4172 2.8125 15.1875 5.58281 15.1875 9Z" fill="black"/>
</svg>
