<svg width="32" height="27" viewBox="0 0 32 27" fill="none" xmlns="http://www.w3.org/2000/svg">
<path d="M21.0597 11.0484C16.9311 15.3726 12.8009 25.9865 12.8009 25.9865C12.8009 25.9865 6.90054 11.0468 1.00187 7.60017" stroke="white" stroke-width="2" stroke-linecap="round" stroke-linejoin="round"/>
<path d="M30.2463 1.87867L30.9583 9.27333C31.4196 14.0705 27.8243 18.3411 23.0271 18.8041C18.3202 19.2554 14.0562 15.8155 13.6033 11.1086C13.4954 9.98935 13.609 8.85979 13.9377 7.78445C14.2664 6.7091 14.8037 5.70904 15.5189 4.84138C16.2342 3.97372 17.1133 3.25545 18.1062 2.7276C19.0991 2.19975 20.1862 1.87266 21.3055 1.76501L29.1882 1.00616C29.315 0.993937 29.4429 1.00682 29.5647 1.04406C29.6865 1.0813 29.7997 1.14217 29.898 1.2232C29.9963 1.30423 30.0776 1.40382 30.1373 1.51629C30.1971 1.62876 30.2341 1.7519 30.2463 1.87867V1.87867Z" stroke="white" stroke-width="2" stroke-linecap="round" stroke-linejoin="round"/>
</svg>
