<svg width="16" height="16" viewBox="0 0 16 16" fill="none" xmlns="http://www.w3.org/2000/svg">
<path fill-rule="evenodd" clip-rule="evenodd" d="M0.999961 7.72648C0.999961 7.85455 1.05264 7.97738 1.14641 8.06794C1.24018 8.15851 1.36735 8.20938 1.49996 8.20938H13.293L10.146 11.2478C10.0995 11.2927 10.0626 11.346 10.0374 11.4047C10.0123 11.4634 9.99933 11.5262 9.99933 11.5897C9.99933 11.6532 10.0123 11.7161 10.0374 11.7748C10.0626 11.8334 10.0995 11.8867 10.146 11.9316C10.1924 11.9765 10.2476 12.0121 10.3084 12.0364C10.3691 12.0607 10.4342 12.0732 10.5 12.0732C10.5657 12.0732 10.6308 12.0607 10.6915 12.0364C10.7523 12.0121 10.8075 11.9765 10.854 11.9316L14.854 8.06838C14.9005 8.02352 14.9375 7.97023 14.9627 7.91156C14.9879 7.85289 15.0009 7.79 15.0009 7.72648C15.0009 7.66296 14.9879 7.60007 14.9627 7.5414C14.9375 7.48273 14.9005 7.42944 14.854 7.38458L10.854 3.52133C10.8075 3.47643 10.7523 3.44082 10.6915 3.41652C10.6308 3.39222 10.5657 3.37971 10.5 3.37971C10.4342 3.37971 10.3691 3.39222 10.3084 3.41652C10.2476 3.44082 10.1924 3.47643 10.146 3.52133C10.0995 3.56623 10.0626 3.61953 10.0374 3.6782C10.0123 3.73686 9.99933 3.79973 9.99933 3.86323C9.99933 3.92673 10.0123 3.9896 10.0374 4.04826C10.0626 4.10693 10.0995 4.16023 10.146 4.20513L13.293 7.24357H1.49996C1.36735 7.24357 1.24018 7.29445 1.14641 7.38501C1.05264 7.47557 0.999961 7.5984 0.999961 7.72648Z" fill="black"/>
</svg>
