<svg width="17" height="17" viewBox="0 0 17 17" fill="none" xmlns="http://www.w3.org/2000/svg">
<path d="M7.43746 9.91669H12.75V8.50002H8.85413L7.43746 9.91669ZM4.24996 9.91669H5.98538L10.1645 5.77294C10.2354 5.7021 10.2708 5.61356 10.2708 5.50731C10.2708 5.40106 10.2354 5.31252 10.1645 5.24169L8.92496 4.0021C8.85413 3.93127 8.76558 3.89585 8.65934 3.89585C8.55308 3.89585 8.46454 3.93127 8.39371 4.0021L4.24996 8.18127V9.91669ZM1.41663 15.5834V2.83335C1.41663 2.44377 1.55546 2.11015 1.83313 1.83248C2.11032 1.55528 2.44371 1.41669 2.83329 1.41669H14.1666C14.5562 1.41669 14.8898 1.55528 15.1675 1.83248C15.4447 2.11015 15.5833 2.44377 15.5833 2.83335V11.3334C15.5833 11.7229 15.4447 12.0566 15.1675 12.3342C14.8898 12.6114 14.5562 12.75 14.1666 12.75H4.24996L1.41663 15.5834Z" fill="#F8F8F8"/>
</svg>
