<svg width="348" height="160" viewBox="0 0 348 160" fill="none" xmlns="http://www.w3.org/2000/svg">
<rect width="168" height="160" rx="20" fill="#EBEBEB"/>
<path d="M180 20C180 8.95431 188.954 0 200 0H328C339.046 0 348 8.9543 348 20V54C348 65.0457 339.046 74 328 74H200C188.954 74 180 65.0457 180 54V20Z" fill="#D7E1FA"/>
<path d="M180 106C180 94.9543 188.954 86 200 86H328C339.046 86 348 94.9543 348 106V140C348 151.046 339.046 160 328 160H200C188.954 160 180 151.046 180 140V106Z" fill="#D7E1FA"/>
<path d="M33.2912 63L42.9389 43.9091V43.75H31.7003V39.7273H48.0298V43.8068L38.3707 63H33.2912Z" fill="black"/>
<path d="M203.69 43.9091V40.0341L213.406 24.7273H216.747V30.0909H214.77L208.645 39.7841V39.9659H222.452V43.9091H203.69ZM214.861 48V42.7273L214.952 41.0114V24.7273H219.565V48H214.861Z" fill="black"/>
<path d="M199.926 134.318C198.229 134.318 196.718 134.027 195.392 133.443C194.074 132.852 193.032 132.042 192.267 131.011C191.509 129.973 191.119 128.777 191.097 127.42H196.051C196.081 127.989 196.267 128.489 196.608 128.92C196.956 129.345 197.419 129.674 197.994 129.909C198.57 130.144 199.218 130.261 199.938 130.261C200.688 130.261 201.35 130.129 201.926 129.864C202.502 129.598 202.953 129.231 203.278 128.761C203.604 128.292 203.767 127.75 203.767 127.136C203.767 126.515 203.593 125.966 203.244 125.489C202.903 125.004 202.411 124.625 201.767 124.352C201.131 124.08 200.373 123.943 199.494 123.943H197.324V120.33H199.494C200.237 120.33 200.892 120.201 201.46 119.943C202.036 119.686 202.483 119.33 202.801 118.875C203.119 118.413 203.278 117.875 203.278 117.261C203.278 116.678 203.138 116.167 202.858 115.727C202.585 115.28 202.199 114.932 201.699 114.682C201.206 114.432 200.631 114.307 199.972 114.307C199.305 114.307 198.695 114.428 198.142 114.67C197.589 114.905 197.146 115.242 196.812 115.682C196.479 116.121 196.301 116.636 196.278 117.227H191.562C191.585 115.886 191.968 114.705 192.71 113.682C193.453 112.659 194.453 111.86 195.71 111.284C196.975 110.701 198.403 110.409 199.994 110.409C201.6 110.409 203.006 110.701 204.21 111.284C205.415 111.867 206.35 112.655 207.017 113.648C207.691 114.633 208.025 115.739 208.017 116.966C208.025 118.269 207.619 119.356 206.801 120.227C205.991 121.098 204.934 121.652 203.631 121.886V122.068C205.343 122.288 206.646 122.883 207.54 123.852C208.441 124.814 208.888 126.019 208.881 127.466C208.888 128.792 208.506 129.97 207.733 131C206.968 132.03 205.911 132.841 204.562 133.432C203.214 134.023 201.669 134.318 199.926 134.318ZM221.543 134.511C219.588 134.504 217.906 134.023 216.497 133.068C215.096 132.114 214.016 130.731 213.259 128.92C212.509 127.11 212.137 124.932 212.145 122.386C212.145 119.848 212.52 117.686 213.27 115.898C214.027 114.11 215.107 112.75 216.509 111.818C217.918 110.879 219.596 110.409 221.543 110.409C223.49 110.409 225.164 110.879 226.565 111.818C227.974 112.758 229.058 114.121 229.815 115.909C230.573 117.689 230.948 119.848 230.94 122.386C230.94 124.939 230.562 127.121 229.804 128.932C229.054 130.742 227.978 132.125 226.577 133.08C225.175 134.034 223.497 134.511 221.543 134.511ZM221.543 130.432C222.876 130.432 223.94 129.761 224.736 128.42C225.531 127.08 225.925 125.068 225.918 122.386C225.918 120.621 225.736 119.152 225.372 117.977C225.016 116.803 224.509 115.92 223.849 115.33C223.198 114.739 222.429 114.443 221.543 114.443C220.217 114.443 219.156 115.106 218.361 116.432C217.565 117.758 217.164 119.742 217.156 122.386C217.156 124.174 217.334 125.667 217.69 126.864C218.054 128.053 218.565 128.947 219.224 129.545C219.884 130.136 220.656 130.432 221.543 130.432Z" fill="black"/>
<path d="M28.8849 106V95.8182H32.902C33.6709 95.8182 34.3272 95.9557 34.8707 96.2308C35.4176 96.5026 35.8336 96.8887 36.1186 97.3892C36.407 97.8864 36.5511 98.4714 36.5511 99.1442C36.5511 99.8203 36.4053 100.402 36.1136 100.889C35.822 101.373 35.3994 101.744 34.8459 102.003C34.2957 102.261 33.6295 102.391 32.8473 102.391H30.1577V100.661H32.4993C32.9103 100.661 33.2517 100.604 33.5234 100.491C33.7952 100.379 33.9974 100.21 34.13 99.9844C34.2659 99.759 34.3338 99.4789 34.3338 99.1442C34.3338 98.8061 34.2659 98.5211 34.13 98.2891C33.9974 98.0571 33.7936 97.8814 33.5185 97.7621C33.2467 97.6394 32.9036 97.5781 32.4893 97.5781H31.0376V106H28.8849ZM34.3835 101.366L36.9141 106H34.5376L32.0618 101.366H34.3835ZM41.3897 106.149C40.6042 106.149 39.9281 105.99 39.3613 105.672C38.7979 105.35 38.3637 104.896 38.0588 104.31C37.7538 103.72 37.6014 103.022 37.6014 102.217C37.6014 101.431 37.7538 100.742 38.0588 100.148C38.3637 99.5552 38.7929 99.0928 39.3464 98.7614C39.9032 98.4299 40.5562 98.2642 41.3052 98.2642C41.809 98.2642 42.278 98.3454 42.7122 98.5078C43.1497 98.6669 43.5308 98.9072 43.8556 99.2287C44.1838 99.5502 44.439 99.9545 44.6213 100.442C44.8036 100.926 44.8947 101.492 44.8947 102.142V102.724H38.4466V101.411H42.9011C42.9011 101.106 42.8348 100.836 42.7022 100.601C42.5697 100.366 42.3857 100.182 42.1504 100.049C41.9184 99.9131 41.6483 99.8452 41.34 99.8452C41.0185 99.8452 40.7335 99.9197 40.4849 100.069C40.2396 100.215 40.0474 100.412 39.9082 100.661C39.769 100.906 39.6977 101.179 39.6944 101.481V102.729C39.6944 103.107 39.764 103.433 39.9032 103.708C40.0458 103.983 40.2463 104.195 40.5048 104.344C40.7633 104.494 41.0699 104.568 41.4245 104.568C41.6599 104.568 41.8753 104.535 42.0708 104.469C42.2664 104.402 42.4338 104.303 42.573 104.17C42.7122 104.038 42.8182 103.875 42.8912 103.683L44.85 103.812C44.7505 104.283 44.5467 104.694 44.2385 105.045C43.9335 105.393 43.5391 105.665 43.0552 105.861C42.5746 106.053 42.0195 106.149 41.3897 106.149ZM40.4949 97.3793L41.5488 95.1172H43.5076L41.9913 97.3793H40.4949ZM52.6305 100.541L50.6916 100.661C50.6584 100.495 50.5872 100.346 50.4778 100.213C50.3684 100.077 50.2243 99.9695 50.0453 99.8899C49.8696 99.8071 49.6592 99.7656 49.4139 99.7656C49.0858 99.7656 48.809 99.8352 48.5836 99.9744C48.3583 100.11 48.2456 100.293 48.2456 100.521C48.2456 100.704 48.3185 100.858 48.4643 100.984C48.6101 101.11 48.8604 101.211 49.215 101.287L50.5971 101.565C51.3395 101.718 51.8931 101.963 52.2576 102.301C52.6222 102.639 52.8045 103.083 52.8045 103.634C52.8045 104.134 52.657 104.573 52.362 104.951C52.0704 105.329 51.6693 105.624 51.1589 105.836C50.6518 106.045 50.0668 106.149 49.4039 106.149C48.3931 106.149 47.5877 105.939 46.9877 105.518C46.3912 105.094 46.0415 104.517 45.9387 103.788L48.0218 103.678C48.0848 103.987 48.2373 104.222 48.4792 104.384C48.7212 104.543 49.0311 104.623 49.4089 104.623C49.7801 104.623 50.0784 104.552 50.3038 104.409C50.5325 104.263 50.6485 104.076 50.6518 103.847C50.6485 103.655 50.5673 103.498 50.4082 103.375C50.2491 103.249 50.0038 103.153 49.6724 103.087L48.35 102.823C47.6042 102.674 47.0491 102.415 46.6845 102.048C46.3232 101.68 46.1426 101.211 46.1426 100.641C46.1426 100.15 46.2752 99.7275 46.5403 99.3729C46.8088 99.0182 47.185 98.7448 47.6689 98.5526C48.1561 98.3603 48.7261 98.2642 49.3791 98.2642C50.3436 98.2642 51.1026 98.468 51.6561 98.8757C52.2129 99.2834 52.5377 99.8385 52.6305 100.541ZM57.6183 106.149C56.8327 106.149 56.1566 105.99 55.5898 105.672C55.0264 105.35 54.5922 104.896 54.2873 104.31C53.9824 103.72 53.8299 103.022 53.8299 102.217C53.8299 101.431 53.9824 100.742 54.2873 100.148C54.5922 99.5552 55.0214 99.0928 55.5749 98.7614C56.1317 98.4299 56.7847 98.2642 57.5337 98.2642C58.0375 98.2642 58.5065 98.3454 58.9407 98.5078C59.3782 98.6669 59.7594 98.9072 60.0842 99.2287C60.4123 99.5502 60.6675 99.9545 60.8498 100.442C61.0321 100.926 61.1232 101.492 61.1232 102.142V102.724H54.6751V101.411H59.1296C59.1296 101.106 59.0633 100.836 58.9308 100.601C58.7982 100.366 58.6142 100.182 58.3789 100.049C58.1469 99.9131 57.8768 99.8452 57.5685 99.8452C57.247 99.8452 56.962 99.9197 56.7134 100.069C56.4682 100.215 56.2759 100.412 56.1367 100.661C55.9975 100.906 55.9263 101.179 55.9229 101.481V102.729C55.9229 103.107 55.9925 103.433 56.1317 103.708C56.2743 103.983 56.4748 104.195 56.7333 104.344C56.9918 104.494 57.2984 104.568 57.6531 104.568C57.8884 104.568 58.1038 104.535 58.2994 104.469C58.4949 104.402 58.6623 104.303 58.8015 104.17C58.9407 104.038 59.0468 103.875 59.1197 103.683L61.0785 103.812C60.979 104.283 60.7752 104.694 60.467 105.045C60.1621 105.393 59.7676 105.665 59.2837 105.861C58.8031 106.053 58.248 106.149 57.6183 106.149ZM62.5053 106V98.3636H64.5586V99.696H64.6381C64.7773 99.2221 65.011 98.8641 65.3391 98.6222C65.6673 98.3769 66.0451 98.2543 66.4727 98.2543C66.5787 98.2543 66.6931 98.2609 66.8157 98.2741C66.9383 98.2874 67.046 98.3056 67.1388 98.3288V100.208C67.0394 100.178 66.9019 100.152 66.7262 100.129C66.5505 100.105 66.3898 100.094 66.244 100.094C65.9324 100.094 65.654 100.162 65.4087 100.298C65.1668 100.43 64.9746 100.616 64.832 100.854C64.6928 101.093 64.6232 101.368 64.6232 101.68V106H62.5053ZM75.5856 98.3636L72.9158 106H70.5295L67.8597 98.3636H70.0969L71.6829 103.827H71.7624L73.3434 98.3636H75.5856ZM78.6419 106.144C78.1547 106.144 77.7205 106.06 77.3393 105.891C76.9582 105.718 76.6565 105.465 76.4345 105.13C76.2157 104.792 76.1064 104.371 76.1064 103.867C76.1064 103.443 76.1842 103.087 76.34 102.798C76.4958 102.51 76.7079 102.278 76.9764 102.102C77.2449 101.927 77.5498 101.794 77.8912 101.705C78.2359 101.615 78.5971 101.552 78.975 101.516C79.4191 101.469 79.777 101.426 80.0488 101.386C80.3206 101.343 80.5178 101.28 80.6404 101.197C80.7631 101.115 80.8244 100.992 80.8244 100.83V100.8C80.8244 100.485 80.725 100.241 80.5261 100.069C80.3306 99.8965 80.0521 99.8104 79.6909 99.8104C79.3097 99.8104 79.0065 99.8949 78.7811 100.064C78.5557 100.23 78.4065 100.438 78.3336 100.69L76.3748 100.531C76.4743 100.067 76.6698 99.6662 76.9615 99.3281C77.2531 98.9867 77.6293 98.7249 78.09 98.5426C78.554 98.357 79.091 98.2642 79.7008 98.2642C80.1251 98.2642 80.5311 98.3139 80.9189 98.4134C81.31 98.5128 81.6563 98.6669 81.9579 98.8757C82.2628 99.0845 82.5031 99.353 82.6788 99.6811C82.8545 100.006 82.9423 100.395 82.9423 100.849V106H80.9338V104.941H80.8741C80.7515 105.18 80.5874 105.39 80.3819 105.572C80.1764 105.751 79.9295 105.892 79.6412 105.995C79.3528 106.094 79.0197 106.144 78.6419 106.144ZM79.2484 104.683C79.56 104.683 79.835 104.621 80.0737 104.499C80.3123 104.373 80.4996 104.204 80.6355 103.991C80.7714 103.779 80.8393 103.539 80.8393 103.271V102.46C80.773 102.503 80.6819 102.543 80.5659 102.58C80.4532 102.613 80.3256 102.644 80.1831 102.674C80.0405 102.701 79.898 102.725 79.7555 102.749C79.613 102.768 79.4837 102.787 79.3677 102.803C79.1191 102.84 78.902 102.898 78.7164 102.977C78.5308 103.057 78.3867 103.165 78.2839 103.3C78.1812 103.433 78.1298 103.599 78.1298 103.798C78.1298 104.086 78.2342 104.306 78.443 104.459C78.6551 104.608 78.9236 104.683 79.2484 104.683ZM88.6472 98.3636V99.9545H84.0485V98.3636H88.6472ZM85.0925 96.5341H87.2104V103.653C87.2104 103.849 87.2402 104.001 87.2999 104.111C87.3596 104.217 87.4424 104.291 87.5485 104.335C87.6578 104.378 87.7838 104.399 87.9263 104.399C88.0257 104.399 88.1252 104.391 88.2246 104.374C88.324 104.354 88.4003 104.339 88.4533 104.33L88.7864 105.906C88.6803 105.939 88.5312 105.977 88.339 106.02C88.1467 106.066 87.9131 106.094 87.638 106.104C87.1275 106.124 86.6801 106.056 86.2956 105.901C85.9145 105.745 85.6178 105.503 85.4057 105.175C85.1936 104.847 85.0892 104.432 85.0925 103.932V96.5341ZM90.0268 106V98.3636H92.1447V106H90.0268ZM91.0907 97.3793C90.7759 97.3793 90.5057 97.2749 90.2804 97.0661C90.0583 96.8539 89.9473 96.6004 89.9473 96.3054C89.9473 96.0137 90.0583 95.7635 90.2804 95.5547C90.5057 95.3426 90.7759 95.2365 91.0907 95.2365C91.4056 95.2365 91.6741 95.3426 91.8961 95.5547C92.1215 95.7635 92.2342 96.0137 92.2342 96.3054C92.2342 96.6004 92.1215 96.8539 91.8961 97.0661C91.6741 97.2749 91.4056 97.3793 91.0907 97.3793ZM97.2915 106.149C96.5193 106.149 95.8514 105.985 95.288 105.657C94.7279 105.326 94.2953 104.865 93.9904 104.275C93.6855 103.682 93.533 102.994 93.533 102.212C93.533 101.423 93.6855 100.733 93.9904 100.143C94.2953 99.5502 94.7279 99.0895 95.288 98.7614C95.8514 98.4299 96.5193 98.2642 97.2915 98.2642C98.0638 98.2642 98.73 98.4299 99.2901 98.7614C99.8536 99.0895 100.288 99.5502 100.593 100.143C100.898 100.733 101.05 101.423 101.05 102.212C101.05 102.994 100.898 103.682 100.593 104.275C100.288 104.865 99.8536 105.326 99.2901 105.657C98.73 105.985 98.0638 106.149 97.2915 106.149ZM97.3015 104.509C97.6528 104.509 97.9461 104.409 98.1815 104.21C98.4168 104.008 98.5941 103.733 98.7134 103.385C98.8361 103.037 98.8974 102.641 98.8974 102.197C98.8974 101.753 98.8361 101.357 98.7134 101.009C98.5941 100.661 98.4168 100.385 98.1815 100.183C97.9461 99.9811 97.6528 99.88 97.3015 99.88C96.9469 99.88 96.6486 99.9811 96.4066 100.183C96.168 100.385 95.9873 100.661 95.8647 101.009C95.7454 101.357 95.6857 101.753 95.6857 102.197C95.6857 102.641 95.7454 103.037 95.8647 103.385C95.9873 103.733 96.168 104.008 96.4066 104.21C96.6486 104.409 96.9469 104.509 97.3015 104.509ZM104.545 101.585V106H102.427V98.3636H104.446V99.7109H104.535C104.704 99.2668 104.988 98.9155 105.385 98.657C105.783 98.3951 106.265 98.2642 106.832 98.2642C107.362 98.2642 107.825 98.3802 108.219 98.6122C108.614 98.8442 108.92 99.1757 109.139 99.6065C109.358 100.034 109.467 100.545 109.467 101.138V106H107.349V101.516C107.352 101.048 107.233 100.684 106.991 100.422C106.749 100.157 106.416 100.024 105.992 100.024C105.707 100.024 105.455 100.085 105.236 100.208C105.021 100.331 104.852 100.51 104.729 100.745C104.61 100.977 104.548 101.257 104.545 101.585ZM117.49 100.541L115.551 100.661C115.518 100.495 115.447 100.346 115.337 100.213C115.228 100.077 115.084 99.9695 114.905 99.8899C114.729 99.8071 114.519 99.7656 114.273 99.7656C113.945 99.7656 113.668 99.8352 113.443 99.9744C113.218 100.11 113.105 100.293 113.105 100.521C113.105 100.704 113.178 100.858 113.324 100.984C113.47 101.11 113.72 101.211 114.074 101.287L115.456 101.565C116.199 101.718 116.752 101.963 117.117 102.301C117.482 102.639 117.664 103.083 117.664 103.634C117.664 104.134 117.516 104.573 117.221 104.951C116.93 105.329 116.529 105.624 116.018 105.836C115.511 106.045 114.926 106.149 114.263 106.149C113.252 106.149 112.447 105.939 111.847 105.518C111.251 105.094 110.901 104.517 110.798 103.788L112.881 103.678C112.944 103.987 113.097 104.222 113.339 104.384C113.581 104.543 113.89 104.623 114.268 104.623C114.64 104.623 114.938 104.552 115.163 104.409C115.392 104.263 115.508 104.076 115.511 103.847C115.508 103.655 115.427 103.498 115.268 103.375C115.108 103.249 114.863 103.153 114.532 103.087L113.209 102.823C112.464 102.674 111.908 102.415 111.544 102.048C111.183 101.68 111.002 101.211 111.002 100.641C111.002 100.15 111.135 99.7275 111.4 99.3729C111.668 99.0182 112.044 98.7448 112.528 98.5526C113.015 98.3603 113.586 98.2642 114.238 98.2642C115.203 98.2642 115.962 98.468 116.515 98.8757C117.072 99.2834 117.397 99.8385 117.49 100.541ZM31.0227 123.144C30.5355 123.144 30.1013 123.06 29.7202 122.891C29.339 122.718 29.0374 122.465 28.8153 122.13C28.5966 121.792 28.4872 121.371 28.4872 120.867C28.4872 120.443 28.5651 120.087 28.7209 119.798C28.8767 119.51 29.0888 119.278 29.3572 119.102C29.6257 118.927 29.9306 118.794 30.272 118.705C30.6167 118.615 30.978 118.552 31.3558 118.516C31.8 118.469 32.1579 118.426 32.4297 118.386C32.7015 118.343 32.8987 118.28 33.0213 118.197C33.1439 118.115 33.2053 117.992 33.2053 117.83V117.8C33.2053 117.485 33.1058 117.241 32.907 117.069C32.7114 116.897 32.433 116.81 32.0717 116.81C31.6906 116.81 31.3873 116.895 31.1619 117.064C30.9366 117.23 30.7874 117.438 30.7145 117.69L28.7557 117.531C28.8551 117.067 29.0507 116.666 29.3423 116.328C29.634 115.987 30.0102 115.725 30.4709 115.543C30.9349 115.357 31.4718 115.264 32.0817 115.264C32.5059 115.264 32.9119 115.314 33.2997 115.413C33.6908 115.513 34.0372 115.667 34.3388 115.876C34.6437 116.085 34.884 116.353 35.0597 116.681C35.2353 117.006 35.3232 117.395 35.3232 117.849V123H33.3146V121.941H33.255C33.1323 122.18 32.9683 122.39 32.7628 122.572C32.5573 122.751 32.3104 122.892 32.022 122.995C31.7337 123.094 31.4006 123.144 31.0227 123.144ZM31.6293 121.683C31.9408 121.683 32.2159 121.621 32.4545 121.499C32.6932 121.373 32.8804 121.204 33.0163 120.991C33.1522 120.779 33.2202 120.539 33.2202 120.271V119.46C33.1539 119.503 33.0627 119.543 32.9467 119.58C32.834 119.613 32.7064 119.644 32.5639 119.674C32.4214 119.701 32.2789 119.725 32.1364 119.749C31.9938 119.768 31.8646 119.787 31.7486 119.803C31.5 119.84 31.2829 119.898 31.0973 119.977C30.9117 120.057 30.7675 120.165 30.6648 120.3C30.562 120.433 30.5107 120.599 30.5107 120.798C30.5107 121.086 30.6151 121.306 30.8239 121.459C31.036 121.608 31.3045 121.683 31.6293 121.683ZM41.8633 119.749V115.364H43.9812V123H41.9478V121.613H41.8683C41.6959 122.06 41.4092 122.42 41.0082 122.692C40.6104 122.964 40.1249 123.099 39.5515 123.099C39.0411 123.099 38.592 122.983 38.2042 122.751C37.8164 122.519 37.5131 122.19 37.2944 121.762C37.079 121.335 36.9696 120.822 36.9663 120.226V115.364H39.0842V119.848C39.0875 120.299 39.2085 120.655 39.4471 120.917C39.6857 121.179 40.0056 121.31 40.4066 121.31C40.6618 121.31 40.9005 121.252 41.1225 121.136C41.3446 121.016 41.5236 120.841 41.6594 120.609C41.7987 120.377 41.8666 120.09 41.8633 119.749ZM45.6752 115.364H47.7931V123.378C47.7931 123.968 47.6771 124.445 47.4451 124.81C47.2131 125.174 46.88 125.441 46.4458 125.61C46.015 125.779 45.4996 125.864 44.8997 125.864C44.8268 125.864 44.7572 125.862 44.6909 125.859C44.6213 125.859 44.5484 125.857 44.4721 125.854V124.198C44.5285 124.201 44.5782 124.203 44.6213 124.203C44.661 124.206 44.7041 124.208 44.7505 124.208C45.0919 124.208 45.3306 124.135 45.4664 123.989C45.6056 123.847 45.6752 123.631 45.6752 123.343V115.364ZM46.7292 114.379C46.4177 114.379 46.1492 114.275 45.9238 114.066C45.6984 113.854 45.5858 113.6 45.5858 113.305C45.5858 113.014 45.6984 112.763 45.9238 112.555C46.1492 112.343 46.4177 112.237 46.7292 112.237C47.0474 112.237 47.3175 112.343 47.5396 112.555C47.765 112.763 47.8777 113.014 47.8777 113.305C47.8777 113.6 47.765 113.854 47.5396 114.066C47.3175 114.275 47.0474 114.379 46.7292 114.379ZM52.94 123.149C52.1677 123.149 51.4999 122.985 50.9364 122.657C50.3763 122.326 49.9438 121.865 49.6388 121.275C49.3339 120.682 49.1815 119.994 49.1815 119.212C49.1815 118.423 49.3339 117.733 49.6388 117.143C49.9438 116.55 50.3763 116.089 50.9364 115.761C51.4999 115.43 52.1677 115.264 52.94 115.264C53.7122 115.264 54.3784 115.43 54.9386 115.761C55.502 116.089 55.9362 116.55 56.2411 117.143C56.546 117.733 56.6985 118.423 56.6985 119.212C56.6985 119.994 56.546 120.682 56.2411 121.275C55.9362 121.865 55.502 122.326 54.9386 122.657C54.3784 122.985 53.7122 123.149 52.94 123.149ZM52.9499 121.509C53.3013 121.509 53.5946 121.409 53.8299 121.21C54.0652 121.008 54.2425 120.733 54.3619 120.385C54.4845 120.037 54.5458 119.641 54.5458 119.197C54.5458 118.753 54.4845 118.357 54.3619 118.009C54.2425 117.661 54.0652 117.385 53.8299 117.183C53.5946 116.981 53.3013 116.88 52.9499 116.88C52.5953 116.88 52.297 116.981 52.055 117.183C51.8164 117.385 51.6358 117.661 51.5131 118.009C51.3938 118.357 51.3342 118.753 51.3342 119.197C51.3342 119.641 51.3938 120.037 51.5131 120.385C51.6358 120.733 51.8164 121.008 52.055 121.21C52.297 121.409 52.5953 121.509 52.9499 121.509ZM62.9727 119.749V115.364H65.0906V123H63.0572V121.613H62.9776C62.8053 122.06 62.5186 122.42 62.1175 122.692C61.7198 122.964 61.2343 123.099 60.6609 123.099C60.1504 123.099 59.7013 122.983 59.3136 122.751C58.9258 122.519 58.6225 122.19 58.4038 121.762C58.1883 121.335 58.079 120.822 58.0756 120.226V115.364H60.1935V119.848C60.1969 120.299 60.3178 120.655 60.5565 120.917C60.7951 121.179 61.1149 121.31 61.516 121.31C61.7712 121.31 62.0098 121.252 62.2319 121.136C62.454 121.016 62.6329 120.841 62.7688 120.609C62.908 120.377 62.976 120.09 62.9727 119.749ZM66.7846 123V115.364H68.8379V116.696H68.9174C69.0566 116.222 69.2903 115.864 69.6184 115.622C69.9466 115.377 70.3244 115.254 70.752 115.254C70.858 115.254 70.9724 115.261 71.095 115.274C71.2176 115.287 71.3253 115.306 71.4181 115.329V117.208C71.3187 117.178 71.1812 117.152 71.0055 117.129C70.8298 117.105 70.6691 117.094 70.5233 117.094C70.2117 117.094 69.9333 117.162 69.688 117.298C69.4461 117.43 69.2538 117.616 69.1113 117.854C68.9721 118.093 68.9025 118.368 68.9025 118.68V123H66.7846ZM74.9716 123.124C74.3916 123.124 73.8662 122.975 73.3956 122.677C72.9283 122.375 72.5571 121.933 72.282 121.349C72.0102 120.763 71.8743 120.044 71.8743 119.192C71.8743 118.317 72.0152 117.589 72.2969 117.009C72.5786 116.426 72.9531 115.99 73.4205 115.702C73.8911 115.41 74.4065 115.264 74.9666 115.264C75.3942 115.264 75.7505 115.337 76.0355 115.483C76.3239 115.625 76.5559 115.804 76.7315 116.02C76.9105 116.232 77.0464 116.441 77.1392 116.646H77.2038V112.818H79.3168V123H77.2287V121.777H77.1392C77.0398 121.989 76.8989 122.2 76.7166 122.408C76.5376 122.614 76.304 122.785 76.0156 122.92C75.7306 123.056 75.3826 123.124 74.9716 123.124ZM75.6428 121.439C75.9841 121.439 76.2725 121.346 76.5078 121.161C76.7464 120.972 76.9287 120.708 77.0547 120.37C77.1839 120.032 77.2486 119.636 77.2486 119.182C77.2486 118.728 77.1856 118.333 77.0597 117.999C76.9337 117.664 76.7514 117.405 76.5128 117.223C76.2741 117.041 75.9841 116.95 75.6428 116.95C75.2947 116.95 75.0014 117.044 74.7628 117.233C74.5241 117.422 74.3435 117.684 74.2209 118.018C74.0982 118.353 74.0369 118.741 74.0369 119.182C74.0369 119.626 74.0982 120.019 74.2209 120.36C74.3468 120.698 74.5275 120.963 74.7628 121.156C75.0014 121.344 75.2947 121.439 75.6428 121.439ZM82.8329 112.818V113.892C82.8329 114.197 82.7733 114.509 82.6539 114.827C82.5379 115.142 82.3822 115.44 82.1866 115.722C81.9911 116 81.7773 116.237 81.5453 116.433L80.6106 115.881C80.7763 115.619 80.9222 115.329 81.0481 115.011C81.1774 114.692 81.242 114.323 81.242 113.902V112.818H82.8329ZM86.3615 118.585V123H84.2436V112.818H86.3018V116.711H86.3913C86.5637 116.26 86.8421 115.907 87.2266 115.652C87.611 115.393 88.0933 115.264 88.6733 115.264C89.2036 115.264 89.666 115.38 90.0604 115.612C90.4581 115.841 90.7663 116.171 90.9851 116.602C91.2072 117.029 91.3165 117.541 91.3132 118.138V123H89.1953V118.516C89.1986 118.045 89.0793 117.679 88.8374 117.417C88.5987 117.155 88.264 117.024 87.8331 117.024C87.5447 117.024 87.2895 117.085 87.0675 117.208C86.8487 117.331 86.6764 117.51 86.5504 117.745C86.4278 117.977 86.3648 118.257 86.3615 118.585ZM97.877 119.749V115.364H99.9949V123H97.9615V121.613H97.8819C97.7096 122.06 97.4229 122.42 97.0218 122.692C96.6241 122.964 96.1386 123.099 95.5652 123.099C95.0547 123.099 94.6056 122.983 94.2179 122.751C93.8301 122.519 93.5268 122.19 93.3081 121.762C93.0926 121.335 92.9833 120.822 92.9799 120.226V115.364H95.0978V119.848C95.1011 120.299 95.2221 120.655 95.4608 120.917C95.6994 121.179 96.0192 121.31 96.4203 121.31C96.6755 121.31 96.9141 121.252 97.1362 121.136C97.3583 121.016 97.5372 120.841 97.6731 120.609C97.8123 120.377 97.8803 120.09 97.877 119.749ZM101.689 123V115.364H103.807V123H101.689ZM102.753 114.379C102.438 114.379 102.168 114.275 101.942 114.066C101.72 113.854 101.609 113.6 101.609 113.305C101.609 113.014 101.72 112.763 101.942 112.555C102.168 112.343 102.438 112.237 102.753 112.237C103.068 112.237 103.336 112.343 103.558 112.555C103.784 112.763 103.896 113.014 103.896 113.305C103.896 113.6 103.784 113.854 103.558 114.066C103.336 114.275 103.068 114.379 102.753 114.379Z" fill="black"/>
<path d="M240.885 34V23.8182H244.902C245.671 23.8182 246.327 23.9557 246.871 24.2308C247.418 24.5026 247.834 24.8887 248.119 25.3892C248.407 25.8864 248.551 26.4714 248.551 27.1442C248.551 27.8203 248.405 28.402 248.114 28.8892C247.822 29.3731 247.399 29.7443 246.846 30.0028C246.296 30.2614 245.629 30.3906 244.847 30.3906H242.158V28.6605H244.499C244.91 28.6605 245.252 28.6042 245.523 28.4915C245.795 28.3788 245.997 28.2098 246.13 27.9844C246.266 27.759 246.334 27.4789 246.334 27.1442C246.334 26.8061 246.266 26.5211 246.13 26.2891C245.997 26.0571 245.794 25.8814 245.518 25.7621C245.247 25.6394 244.904 25.5781 244.489 25.5781H243.038V34H240.885ZM246.384 29.3665L248.914 34H246.538L244.062 29.3665H246.384ZM253.39 34.1491C252.604 34.1491 251.928 33.9901 251.361 33.6719C250.798 33.3504 250.364 32.8963 250.059 32.3097C249.754 31.7197 249.601 31.022 249.601 30.2166C249.601 29.4311 249.754 28.7417 250.059 28.1484C250.364 27.5552 250.793 27.0928 251.346 26.7614C251.903 26.4299 252.556 26.2642 253.305 26.2642C253.809 26.2642 254.278 26.3454 254.712 26.5078C255.15 26.6669 255.531 26.9072 255.856 27.2287C256.184 27.5502 256.439 27.9545 256.621 28.4418C256.804 28.9257 256.895 29.4924 256.895 30.142V30.7237H250.447V29.4112H254.901C254.901 29.1063 254.835 28.8362 254.702 28.6009C254.57 28.3655 254.386 28.1816 254.15 28.049C253.918 27.9131 253.648 27.8452 253.34 27.8452C253.019 27.8452 252.733 27.9197 252.485 28.0689C252.24 28.2147 252.047 28.4119 251.908 28.6605C251.769 28.9058 251.698 29.1792 251.694 29.4808V30.7287C251.694 31.1065 251.764 31.433 251.903 31.7081C252.046 31.9832 252.246 32.1953 252.505 32.3445C252.763 32.4936 253.07 32.5682 253.425 32.5682C253.66 32.5682 253.875 32.535 254.071 32.4688C254.266 32.4025 254.434 32.303 254.573 32.1705C254.712 32.0379 254.818 31.8755 254.891 31.6832L256.85 31.8125C256.751 32.2831 256.547 32.6941 256.238 33.0455C255.934 33.3935 255.539 33.6652 255.055 33.8608C254.575 34.053 254.019 34.1491 253.39 34.1491ZM252.495 25.3793L253.549 23.1172H255.508L253.991 25.3793H252.495ZM264.631 28.5412L262.692 28.6605C262.658 28.4948 262.587 28.3456 262.478 28.2131C262.368 28.0772 262.224 27.9695 262.045 27.8899C261.87 27.8071 261.659 27.7656 261.414 27.7656C261.086 27.7656 260.809 27.8352 260.584 27.9744C260.358 28.1103 260.246 28.2926 260.246 28.5213C260.246 28.7036 260.318 28.8577 260.464 28.9837C260.61 29.1096 260.86 29.2107 261.215 29.2869L262.597 29.5653C263.34 29.7178 263.893 29.9631 264.258 30.3011C264.622 30.6392 264.805 31.0833 264.805 31.6335C264.805 32.134 264.657 32.5732 264.362 32.951C264.07 33.3288 263.669 33.6238 263.159 33.8359C262.652 34.0447 262.067 34.1491 261.404 34.1491C260.393 34.1491 259.588 33.9387 258.988 33.5178C258.391 33.0935 258.041 32.5168 257.939 31.7876L260.022 31.6783C260.085 31.9865 260.237 32.2218 260.479 32.3842C260.721 32.5433 261.031 32.6229 261.409 32.6229C261.78 32.6229 262.078 32.5516 262.304 32.4091C262.532 32.2633 262.648 32.076 262.652 31.8473C262.648 31.6551 262.567 31.4976 262.408 31.375C262.249 31.2491 262.004 31.1529 261.672 31.0866L260.35 30.8232C259.604 30.674 259.049 30.4155 258.684 30.0476C258.323 29.6797 258.143 29.2107 258.143 28.6406C258.143 28.1501 258.275 27.7275 258.54 27.3729C258.809 27.0182 259.185 26.7448 259.669 26.5526C260.156 26.3603 260.726 26.2642 261.379 26.2642C262.344 26.2642 263.103 26.468 263.656 26.8757C264.213 27.2834 264.538 27.8385 264.631 28.5412ZM269.618 34.1491C268.833 34.1491 268.157 33.9901 267.59 33.6719C267.026 33.3504 266.592 32.8963 266.287 32.3097C265.982 31.7197 265.83 31.022 265.83 30.2166C265.83 29.4311 265.982 28.7417 266.287 28.1484C266.592 27.5552 267.021 27.0928 267.575 26.7614C268.132 26.4299 268.785 26.2642 269.534 26.2642C270.038 26.2642 270.507 26.3454 270.941 26.5078C271.378 26.6669 271.759 26.9072 272.084 27.2287C272.412 27.5502 272.667 27.9545 272.85 28.4418C273.032 28.9257 273.123 29.4924 273.123 30.142V30.7237H266.675V29.4112H271.13C271.13 29.1063 271.063 28.8362 270.931 28.6009C270.798 28.3655 270.614 28.1816 270.379 28.049C270.147 27.9131 269.877 27.8452 269.569 27.8452C269.247 27.8452 268.962 27.9197 268.713 28.0689C268.468 28.2147 268.276 28.4119 268.137 28.6605C267.998 28.9058 267.926 29.1792 267.923 29.4808V30.7287C267.923 31.1065 267.993 31.433 268.132 31.7081C268.274 31.9832 268.475 32.1953 268.733 32.3445C268.992 32.4936 269.298 32.5682 269.653 32.5682C269.888 32.5682 270.104 32.535 270.299 32.4688C270.495 32.4025 270.662 32.303 270.801 32.1705C270.941 32.0379 271.047 31.8755 271.12 31.6832L273.078 31.8125C272.979 32.2831 272.775 32.6941 272.467 33.0455C272.162 33.3935 271.768 33.6652 271.284 33.8608C270.803 34.053 270.248 34.1491 269.618 34.1491ZM274.505 34V26.3636H276.559V27.696H276.638C276.777 27.2221 277.011 26.8641 277.339 26.6222C277.667 26.3769 278.045 26.2543 278.473 26.2543C278.579 26.2543 278.693 26.2609 278.816 26.2741C278.938 26.2874 279.046 26.3056 279.139 26.3288V28.2081C279.039 28.1783 278.902 28.1518 278.726 28.1286C278.551 28.1054 278.39 28.0938 278.244 28.0938C277.932 28.0938 277.654 28.1617 277.409 28.2976C277.167 28.4302 276.975 28.6158 276.832 28.8544C276.693 29.093 276.623 29.3681 276.623 29.6797V34H274.505ZM287.586 26.3636L284.916 34H282.529L279.86 26.3636H282.097L283.683 31.8274H283.762L285.343 26.3636H287.586ZM290.642 34.1442C290.155 34.1442 289.72 34.0597 289.339 33.8906C288.958 33.7183 288.657 33.4647 288.434 33.13C288.216 32.7919 288.106 32.371 288.106 31.8672C288.106 31.4429 288.184 31.0866 288.34 30.7983C288.496 30.5099 288.708 30.2779 288.976 30.1023C289.245 29.9266 289.55 29.794 289.891 29.7045C290.236 29.6151 290.597 29.5521 290.975 29.5156C291.419 29.4692 291.777 29.4261 292.049 29.3864C292.321 29.3433 292.518 29.2803 292.64 29.1974C292.763 29.1146 292.824 28.992 292.824 28.8295V28.7997C292.824 28.4848 292.725 28.2412 292.526 28.0689C292.331 27.8965 292.052 27.8104 291.691 27.8104C291.31 27.8104 291.006 27.8949 290.781 28.0639C290.556 28.2296 290.407 28.4384 290.334 28.6903L288.375 28.5312C288.474 28.0672 288.67 27.6662 288.961 27.3281C289.253 26.9867 289.629 26.7249 290.09 26.5426C290.554 26.357 291.091 26.2642 291.701 26.2642C292.125 26.2642 292.531 26.3139 292.919 26.4134C293.31 26.5128 293.656 26.6669 293.958 26.8757C294.263 27.0845 294.503 27.353 294.679 27.6811C294.854 28.0059 294.942 28.3954 294.942 28.8494V34H292.934V32.9411H292.874C292.751 33.1797 292.587 33.3902 292.382 33.5724C292.176 33.7514 291.93 33.8923 291.641 33.995C291.353 34.0945 291.02 34.1442 290.642 34.1442ZM291.248 32.6825C291.56 32.6825 291.835 32.6212 292.074 32.4986C292.312 32.3726 292.5 32.2036 292.635 31.9915C292.771 31.7794 292.839 31.5391 292.839 31.2706V30.4602C292.773 30.5033 292.682 30.5431 292.566 30.5795C292.453 30.6127 292.326 30.6442 292.183 30.674C292.041 30.7005 291.898 30.7254 291.756 30.7486C291.613 30.7685 291.484 30.7867 291.368 30.8033C291.119 30.8397 290.902 30.8977 290.716 30.9773C290.531 31.0568 290.387 31.1645 290.284 31.3004C290.181 31.433 290.13 31.5987 290.13 31.7976C290.13 32.0859 290.234 32.3063 290.443 32.4588C290.655 32.608 290.924 32.6825 291.248 32.6825ZM300.647 26.3636V27.9545H296.048V26.3636H300.647ZM297.093 24.5341H299.21V31.6534C299.21 31.849 299.24 32.0014 299.3 32.1108C299.36 32.2169 299.442 32.2914 299.548 32.3345C299.658 32.3776 299.784 32.3991 299.926 32.3991C300.026 32.3991 300.125 32.3909 300.225 32.3743C300.324 32.3544 300.4 32.3395 300.453 32.3295L300.786 33.9055C300.68 33.9387 300.531 33.9768 300.339 34.0199C300.147 34.0663 299.913 34.0945 299.638 34.1044C299.128 34.1243 298.68 34.0563 298.296 33.9006C297.914 33.7448 297.618 33.5028 297.406 33.1747C297.194 32.8466 297.089 32.4323 297.093 31.9318V24.5341ZM302.027 34V26.3636H304.145V34H302.027ZM303.091 25.3793C302.776 25.3793 302.506 25.2749 302.28 25.0661C302.058 24.8539 301.947 24.6004 301.947 24.3054C301.947 24.0137 302.058 23.7635 302.28 23.5547C302.506 23.3426 302.776 23.2365 303.091 23.2365C303.406 23.2365 303.674 23.3426 303.896 23.5547C304.122 23.7635 304.234 24.0137 304.234 24.3054C304.234 24.6004 304.122 24.8539 303.896 25.0661C303.674 25.2749 303.406 25.3793 303.091 25.3793ZM309.292 34.1491C308.519 34.1491 307.851 33.9851 307.288 33.657C306.728 33.3255 306.295 32.8648 305.99 32.2749C305.685 31.6816 305.533 30.9938 305.533 30.2116C305.533 29.4228 305.685 28.7334 305.99 28.1435C306.295 27.5502 306.728 27.0895 307.288 26.7614C307.851 26.4299 308.519 26.2642 309.292 26.2642C310.064 26.2642 310.73 26.4299 311.29 26.7614C311.854 27.0895 312.288 27.5502 312.593 28.1435C312.898 28.7334 313.05 29.4228 313.05 30.2116C313.05 30.9938 312.898 31.6816 312.593 32.2749C312.288 32.8648 311.854 33.3255 311.29 33.657C310.73 33.9851 310.064 34.1491 309.292 34.1491ZM309.301 32.5085C309.653 32.5085 309.946 32.4091 310.181 32.2102C310.417 32.008 310.594 31.733 310.713 31.3849C310.836 31.0369 310.897 30.6409 310.897 30.1967C310.897 29.7526 310.836 29.3565 310.713 29.0085C310.594 28.6605 310.417 28.3854 310.181 28.1832C309.946 27.9811 309.653 27.88 309.301 27.88C308.947 27.88 308.649 27.9811 308.407 28.1832C308.168 28.3854 307.987 28.6605 307.865 29.0085C307.745 29.3565 307.686 29.7526 307.686 30.1967C307.686 30.6409 307.745 31.0369 307.865 31.3849C307.987 31.733 308.168 32.008 308.407 32.2102C308.649 32.4091 308.947 32.5085 309.301 32.5085ZM316.545 29.5852V34H314.427V26.3636H316.446V27.7109H316.535C316.704 27.2668 316.988 26.9155 317.385 26.657C317.783 26.3951 318.265 26.2642 318.832 26.2642C319.362 26.2642 319.825 26.3802 320.219 26.6122C320.614 26.8442 320.92 27.1757 321.139 27.6065C321.358 28.0341 321.467 28.5445 321.467 29.1378V34H319.349V29.5156C319.352 29.0483 319.233 28.6837 318.991 28.4219C318.749 28.1567 318.416 28.0241 317.992 28.0241C317.707 28.0241 317.455 28.0855 317.236 28.2081C317.021 28.3307 316.852 28.5097 316.729 28.745C316.61 28.977 316.548 29.2571 316.545 29.5852ZM329.49 28.5412L327.551 28.6605C327.518 28.4948 327.447 28.3456 327.337 28.2131C327.228 28.0772 327.084 27.9695 326.905 27.8899C326.729 27.8071 326.519 27.7656 326.273 27.7656C325.945 27.7656 325.668 27.8352 325.443 27.9744C325.218 28.1103 325.105 28.2926 325.105 28.5213C325.105 28.7036 325.178 28.8577 325.324 28.9837C325.47 29.1096 325.72 29.2107 326.074 29.2869L327.456 29.5653C328.199 29.7178 328.752 29.9631 329.117 30.3011C329.482 30.6392 329.664 31.0833 329.664 31.6335C329.664 32.134 329.516 32.5732 329.221 32.951C328.93 33.3288 328.529 33.6238 328.018 33.8359C327.511 34.0447 326.926 34.1491 326.263 34.1491C325.252 34.1491 324.447 33.9387 323.847 33.5178C323.251 33.0935 322.901 32.5168 322.798 31.7876L324.881 31.6783C324.944 31.9865 325.097 32.2218 325.339 32.3842C325.581 32.5433 325.89 32.6229 326.268 32.6229C326.64 32.6229 326.938 32.5516 327.163 32.4091C327.392 32.2633 327.508 32.076 327.511 31.8473C327.508 31.6551 327.427 31.4976 327.268 31.375C327.108 31.2491 326.863 31.1529 326.532 31.0866L325.209 30.8232C324.464 30.674 323.908 30.4155 323.544 30.0476C323.183 29.6797 323.002 29.2107 323.002 28.6406C323.002 28.1501 323.135 27.7275 323.4 27.3729C323.668 27.0182 324.044 26.7448 324.528 26.5526C325.015 26.3603 325.586 26.2642 326.238 26.2642C327.203 26.2642 327.962 26.468 328.515 26.8757C329.072 27.2834 329.397 27.8385 329.49 28.5412ZM242.963 46.5852V51H240.845V40.8182H242.903V44.7109H242.993C243.165 44.2602 243.444 43.9072 243.828 43.652C244.213 43.3935 244.695 43.2642 245.275 43.2642C245.805 43.2642 246.268 43.3802 246.662 43.6122C247.06 43.8409 247.368 44.1707 247.587 44.6016C247.809 45.0291 247.918 45.5412 247.915 46.1378V51H245.797V46.5156C245.8 46.045 245.681 45.6787 245.439 45.4169C245.2 45.1551 244.866 45.0241 244.435 45.0241C244.146 45.0241 243.891 45.0855 243.669 45.2081C243.45 45.3307 243.278 45.5097 243.152 45.745C243.029 45.977 242.966 46.2571 242.963 46.5852ZM249.581 51V43.3636H251.699V51H249.581ZM250.645 42.3793C250.331 42.3793 250.06 42.2749 249.835 42.0661C249.613 41.8539 249.502 41.6004 249.502 41.3054C249.502 41.0137 249.613 40.7635 249.835 40.5547C250.06 40.3426 250.331 40.2365 250.645 40.2365C250.96 40.2365 251.229 40.3426 251.451 40.5547C251.676 40.7635 251.789 41.0137 251.789 41.3054C251.789 41.6004 251.676 41.8539 251.451 42.0661C251.229 42.2749 250.96 42.3793 250.645 42.3793ZM256.876 51.1491C256.091 51.1491 255.414 50.9901 254.848 50.6719C254.284 50.3504 253.85 49.8963 253.545 49.3097C253.24 48.7197 253.088 48.022 253.088 47.2166C253.088 46.4311 253.24 45.7417 253.545 45.1484C253.85 44.5552 254.279 44.0928 254.833 43.7614C255.39 43.4299 256.042 43.2642 256.792 43.2642C257.295 43.2642 257.764 43.3454 258.199 43.5078C258.636 43.6669 259.017 43.9072 259.342 44.2287C259.67 44.5502 259.925 44.9545 260.108 45.4418C260.29 45.9257 260.381 46.4924 260.381 47.142V47.7237H253.933V46.4112H258.387C258.387 46.1063 258.321 45.8362 258.189 45.6009C258.056 45.3655 257.872 45.1816 257.637 45.049C257.405 44.9131 257.135 44.8452 256.826 44.8452C256.505 44.8452 256.22 44.9197 255.971 45.0689C255.726 45.2147 255.534 45.4119 255.395 45.6605C255.255 45.9058 255.184 46.1792 255.181 46.4808V47.7287C255.181 48.1065 255.25 48.433 255.39 48.7081C255.532 48.9832 255.733 49.1953 255.991 49.3445C256.25 49.4936 256.556 49.5682 256.911 49.5682C257.146 49.5682 257.362 49.535 257.557 49.4688C257.753 49.4025 257.92 49.303 258.059 49.1705C258.199 49.0379 258.305 48.8755 258.377 48.6832L260.336 48.8125C260.237 49.2831 260.033 49.6941 259.725 50.0455C259.42 50.3935 259.025 50.6652 258.542 50.8608C258.061 51.053 257.506 51.1491 256.876 51.1491ZM261.763 51V43.3636H263.816V44.696H263.896C264.035 44.2221 264.269 43.8641 264.597 43.6222C264.925 43.3769 265.303 43.2543 265.73 43.2543C265.837 43.2543 265.951 43.2609 266.074 43.2741C266.196 43.2874 266.304 43.3056 266.397 43.3288V45.2081C266.297 45.1783 266.16 45.1518 265.984 45.1286C265.808 45.1054 265.648 45.0938 265.502 45.0938C265.19 45.0938 264.912 45.1617 264.667 45.2976C264.425 45.4302 264.232 45.6158 264.09 45.8544C263.951 46.093 263.881 46.3681 263.881 46.6797V51H261.763Z" fill="black"/>
<path d="M240.885 120V109.818H244.902C245.671 109.818 246.327 109.956 246.871 110.231C247.418 110.503 247.834 110.889 248.119 111.389C248.407 111.886 248.551 112.471 248.551 113.144C248.551 113.82 248.405 114.402 248.114 114.889C247.822 115.373 247.399 115.744 246.846 116.003C246.296 116.261 245.629 116.391 244.847 116.391H242.158V114.661H244.499C244.91 114.661 245.252 114.604 245.523 114.491C245.795 114.379 245.997 114.21 246.13 113.984C246.266 113.759 246.334 113.479 246.334 113.144C246.334 112.806 246.266 112.521 246.13 112.289C245.997 112.057 245.794 111.881 245.518 111.762C245.247 111.639 244.904 111.578 244.489 111.578H243.038V120H240.885ZM246.384 115.366L248.914 120H246.538L244.062 115.366H246.384ZM253.39 120.149C252.604 120.149 251.928 119.99 251.361 119.672C250.798 119.35 250.364 118.896 250.059 118.31C249.754 117.72 249.601 117.022 249.601 116.217C249.601 115.431 249.754 114.742 250.059 114.148C250.364 113.555 250.793 113.093 251.346 112.761C251.903 112.43 252.556 112.264 253.305 112.264C253.809 112.264 254.278 112.345 254.712 112.508C255.15 112.667 255.531 112.907 255.856 113.229C256.184 113.55 256.439 113.955 256.621 114.442C256.804 114.926 256.895 115.492 256.895 116.142V116.724H250.447V115.411H254.901C254.901 115.106 254.835 114.836 254.702 114.601C254.57 114.366 254.386 114.182 254.15 114.049C253.918 113.913 253.648 113.845 253.34 113.845C253.019 113.845 252.733 113.92 252.485 114.069C252.24 114.215 252.047 114.412 251.908 114.661C251.769 114.906 251.698 115.179 251.694 115.481V116.729C251.694 117.107 251.764 117.433 251.903 117.708C252.046 117.983 252.246 118.195 252.505 118.344C252.763 118.494 253.07 118.568 253.425 118.568C253.66 118.568 253.875 118.535 254.071 118.469C254.266 118.402 254.434 118.303 254.573 118.17C254.712 118.038 254.818 117.875 254.891 117.683L256.85 117.812C256.751 118.283 256.547 118.694 256.238 119.045C255.934 119.393 255.539 119.665 255.055 119.861C254.575 120.053 254.019 120.149 253.39 120.149ZM252.495 111.379L253.549 109.117H255.508L253.991 111.379H252.495ZM264.631 114.541L262.692 114.661C262.658 114.495 262.587 114.346 262.478 114.213C262.368 114.077 262.224 113.969 262.045 113.89C261.87 113.807 261.659 113.766 261.414 113.766C261.086 113.766 260.809 113.835 260.584 113.974C260.358 114.11 260.246 114.293 260.246 114.521C260.246 114.704 260.318 114.858 260.464 114.984C260.61 115.11 260.86 115.211 261.215 115.287L262.597 115.565C263.34 115.718 263.893 115.963 264.258 116.301C264.622 116.639 264.805 117.083 264.805 117.634C264.805 118.134 264.657 118.573 264.362 118.951C264.07 119.329 263.669 119.624 263.159 119.836C262.652 120.045 262.067 120.149 261.404 120.149C260.393 120.149 259.588 119.939 258.988 119.518C258.391 119.094 258.041 118.517 257.939 117.788L260.022 117.678C260.085 117.987 260.237 118.222 260.479 118.384C260.721 118.543 261.031 118.623 261.409 118.623C261.78 118.623 262.078 118.552 262.304 118.409C262.532 118.263 262.648 118.076 262.652 117.847C262.648 117.655 262.567 117.498 262.408 117.375C262.249 117.249 262.004 117.153 261.672 117.087L260.35 116.823C259.604 116.674 259.049 116.415 258.684 116.048C258.323 115.68 258.143 115.211 258.143 114.641C258.143 114.15 258.275 113.728 258.54 113.373C258.809 113.018 259.185 112.745 259.669 112.553C260.156 112.36 260.726 112.264 261.379 112.264C262.344 112.264 263.103 112.468 263.656 112.876C264.213 113.283 264.538 113.839 264.631 114.541ZM269.618 120.149C268.833 120.149 268.157 119.99 267.59 119.672C267.026 119.35 266.592 118.896 266.287 118.31C265.982 117.72 265.83 117.022 265.83 116.217C265.83 115.431 265.982 114.742 266.287 114.148C266.592 113.555 267.021 113.093 267.575 112.761C268.132 112.43 268.785 112.264 269.534 112.264C270.038 112.264 270.507 112.345 270.941 112.508C271.378 112.667 271.759 112.907 272.084 113.229C272.412 113.55 272.667 113.955 272.85 114.442C273.032 114.926 273.123 115.492 273.123 116.142V116.724H266.675V115.411H271.13C271.13 115.106 271.063 114.836 270.931 114.601C270.798 114.366 270.614 114.182 270.379 114.049C270.147 113.913 269.877 113.845 269.569 113.845C269.247 113.845 268.962 113.92 268.713 114.069C268.468 114.215 268.276 114.412 268.137 114.661C267.998 114.906 267.926 115.179 267.923 115.481V116.729C267.923 117.107 267.993 117.433 268.132 117.708C268.274 117.983 268.475 118.195 268.733 118.344C268.992 118.494 269.298 118.568 269.653 118.568C269.888 118.568 270.104 118.535 270.299 118.469C270.495 118.402 270.662 118.303 270.801 118.17C270.941 118.038 271.047 117.875 271.12 117.683L273.078 117.812C272.979 118.283 272.775 118.694 272.467 119.045C272.162 119.393 271.768 119.665 271.284 119.861C270.803 120.053 270.248 120.149 269.618 120.149ZM274.505 120V112.364H276.559V113.696H276.638C276.777 113.222 277.011 112.864 277.339 112.622C277.667 112.377 278.045 112.254 278.473 112.254C278.579 112.254 278.693 112.261 278.816 112.274C278.938 112.287 279.046 112.306 279.139 112.329V114.208C279.039 114.178 278.902 114.152 278.726 114.129C278.551 114.105 278.39 114.094 278.244 114.094C277.932 114.094 277.654 114.162 277.409 114.298C277.167 114.43 276.975 114.616 276.832 114.854C276.693 115.093 276.623 115.368 276.623 115.68V120H274.505ZM287.586 112.364L284.916 120H282.529L279.86 112.364H282.097L283.683 117.827H283.762L285.343 112.364H287.586ZM290.642 120.144C290.155 120.144 289.72 120.06 289.339 119.891C288.958 119.718 288.657 119.465 288.434 119.13C288.216 118.792 288.106 118.371 288.106 117.867C288.106 117.443 288.184 117.087 288.34 116.798C288.496 116.51 288.708 116.278 288.976 116.102C289.245 115.927 289.55 115.794 289.891 115.705C290.236 115.615 290.597 115.552 290.975 115.516C291.419 115.469 291.777 115.426 292.049 115.386C292.321 115.343 292.518 115.28 292.64 115.197C292.763 115.115 292.824 114.992 292.824 114.83V114.8C292.824 114.485 292.725 114.241 292.526 114.069C292.331 113.897 292.052 113.81 291.691 113.81C291.31 113.81 291.006 113.895 290.781 114.064C290.556 114.23 290.407 114.438 290.334 114.69L288.375 114.531C288.474 114.067 288.67 113.666 288.961 113.328C289.253 112.987 289.629 112.725 290.09 112.543C290.554 112.357 291.091 112.264 291.701 112.264C292.125 112.264 292.531 112.314 292.919 112.413C293.31 112.513 293.656 112.667 293.958 112.876C294.263 113.085 294.503 113.353 294.679 113.681C294.854 114.006 294.942 114.395 294.942 114.849V120H292.934V118.941H292.874C292.751 119.18 292.587 119.39 292.382 119.572C292.176 119.751 291.93 119.892 291.641 119.995C291.353 120.094 291.02 120.144 290.642 120.144ZM291.248 118.683C291.56 118.683 291.835 118.621 292.074 118.499C292.312 118.373 292.5 118.204 292.635 117.991C292.771 117.779 292.839 117.539 292.839 117.271V116.46C292.773 116.503 292.682 116.543 292.566 116.58C292.453 116.613 292.326 116.644 292.183 116.674C292.041 116.701 291.898 116.725 291.756 116.749C291.613 116.768 291.484 116.787 291.368 116.803C291.119 116.84 290.902 116.898 290.716 116.977C290.531 117.057 290.387 117.165 290.284 117.3C290.181 117.433 290.13 117.599 290.13 117.798C290.13 118.086 290.234 118.306 290.443 118.459C290.655 118.608 290.924 118.683 291.248 118.683ZM300.647 112.364V113.955H296.048V112.364H300.647ZM297.093 110.534H299.21V117.653C299.21 117.849 299.24 118.001 299.3 118.111C299.36 118.217 299.442 118.291 299.548 118.335C299.658 118.378 299.784 118.399 299.926 118.399C300.026 118.399 300.125 118.391 300.225 118.374C300.324 118.354 300.4 118.339 300.453 118.33L300.786 119.906C300.68 119.939 300.531 119.977 300.339 120.02C300.147 120.066 299.913 120.094 299.638 120.104C299.128 120.124 298.68 120.056 298.296 119.901C297.914 119.745 297.618 119.503 297.406 119.175C297.194 118.847 297.089 118.432 297.093 117.932V110.534ZM302.027 120V112.364H304.145V120H302.027ZM303.091 111.379C302.776 111.379 302.506 111.275 302.28 111.066C302.058 110.854 301.947 110.6 301.947 110.305C301.947 110.014 302.058 109.763 302.28 109.555C302.506 109.343 302.776 109.237 303.091 109.237C303.406 109.237 303.674 109.343 303.896 109.555C304.122 109.763 304.234 110.014 304.234 110.305C304.234 110.6 304.122 110.854 303.896 111.066C303.674 111.275 303.406 111.379 303.091 111.379ZM309.292 120.149C308.519 120.149 307.851 119.985 307.288 119.657C306.728 119.326 306.295 118.865 305.99 118.275C305.685 117.682 305.533 116.994 305.533 116.212C305.533 115.423 305.685 114.733 305.99 114.143C306.295 113.55 306.728 113.089 307.288 112.761C307.851 112.43 308.519 112.264 309.292 112.264C310.064 112.264 310.73 112.43 311.29 112.761C311.854 113.089 312.288 113.55 312.593 114.143C312.898 114.733 313.05 115.423 313.05 116.212C313.05 116.994 312.898 117.682 312.593 118.275C312.288 118.865 311.854 119.326 311.29 119.657C310.73 119.985 310.064 120.149 309.292 120.149ZM309.301 118.509C309.653 118.509 309.946 118.409 310.181 118.21C310.417 118.008 310.594 117.733 310.713 117.385C310.836 117.037 310.897 116.641 310.897 116.197C310.897 115.753 310.836 115.357 310.713 115.009C310.594 114.661 310.417 114.385 310.181 114.183C309.946 113.981 309.653 113.88 309.301 113.88C308.947 113.88 308.649 113.981 308.407 114.183C308.168 114.385 307.987 114.661 307.865 115.009C307.745 115.357 307.686 115.753 307.686 116.197C307.686 116.641 307.745 117.037 307.865 117.385C307.987 117.733 308.168 118.008 308.407 118.21C308.649 118.409 308.947 118.509 309.301 118.509ZM316.545 115.585V120H314.427V112.364H316.446V113.711H316.535C316.704 113.267 316.988 112.915 317.385 112.657C317.783 112.395 318.265 112.264 318.832 112.264C319.362 112.264 319.825 112.38 320.219 112.612C320.614 112.844 320.92 113.176 321.139 113.607C321.358 114.034 321.467 114.545 321.467 115.138V120H319.349V115.516C319.352 115.048 319.233 114.684 318.991 114.422C318.749 114.157 318.416 114.024 317.992 114.024C317.707 114.024 317.455 114.085 317.236 114.208C317.021 114.331 316.852 114.51 316.729 114.745C316.61 114.977 316.548 115.257 316.545 115.585ZM329.49 114.541L327.551 114.661C327.518 114.495 327.447 114.346 327.337 114.213C327.228 114.077 327.084 113.969 326.905 113.89C326.729 113.807 326.519 113.766 326.273 113.766C325.945 113.766 325.668 113.835 325.443 113.974C325.218 114.11 325.105 114.293 325.105 114.521C325.105 114.704 325.178 114.858 325.324 114.984C325.47 115.11 325.72 115.211 326.074 115.287L327.456 115.565C328.199 115.718 328.752 115.963 329.117 116.301C329.482 116.639 329.664 117.083 329.664 117.634C329.664 118.134 329.516 118.573 329.221 118.951C328.93 119.329 328.529 119.624 328.018 119.836C327.511 120.045 326.926 120.149 326.263 120.149C325.252 120.149 324.447 119.939 323.847 119.518C323.251 119.094 322.901 118.517 322.798 117.788L324.881 117.678C324.944 117.987 325.097 118.222 325.339 118.384C325.581 118.543 325.89 118.623 326.268 118.623C326.64 118.623 326.938 118.552 327.163 118.409C327.392 118.263 327.508 118.076 327.511 117.847C327.508 117.655 327.427 117.498 327.268 117.375C327.108 117.249 326.863 117.153 326.532 117.087L325.209 116.823C324.464 116.674 323.908 116.415 323.544 116.048C323.183 115.68 323.002 115.211 323.002 114.641C323.002 114.15 323.135 113.728 323.4 113.373C323.668 113.018 324.044 112.745 324.528 112.553C325.015 112.36 325.586 112.264 326.238 112.264C327.203 112.264 327.962 112.468 328.515 112.876C329.072 113.283 329.397 113.839 329.49 114.541ZM244.295 137.149C243.513 137.149 242.84 136.983 242.277 136.652C241.717 136.317 241.286 135.853 240.984 135.26C240.686 134.667 240.537 133.984 240.537 133.212C240.537 132.429 240.688 131.743 240.989 131.153C241.294 130.56 241.727 130.098 242.287 129.766C242.847 129.432 243.513 129.264 244.286 129.264C244.952 129.264 245.535 129.385 246.036 129.627C246.536 129.869 246.932 130.209 247.224 130.646C247.515 131.084 247.676 131.598 247.706 132.188H245.707C245.651 131.806 245.502 131.5 245.26 131.268C245.021 131.032 244.708 130.915 244.32 130.915C243.992 130.915 243.705 131.004 243.46 131.183C243.218 131.359 243.029 131.616 242.893 131.954C242.758 132.292 242.69 132.701 242.69 133.182C242.69 133.669 242.756 134.083 242.888 134.425C243.024 134.766 243.215 135.026 243.46 135.205C243.705 135.384 243.992 135.474 244.32 135.474C244.562 135.474 244.779 135.424 244.972 135.325C245.167 135.225 245.328 135.081 245.454 134.892C245.583 134.7 245.668 134.469 245.707 134.201H247.706C247.673 134.784 247.514 135.298 247.229 135.742C246.947 136.183 246.558 136.528 246.06 136.776C245.563 137.025 244.975 137.149 244.295 137.149ZM252.542 137.149C251.757 137.149 251.08 136.99 250.514 136.672C249.95 136.35 249.516 135.896 249.211 135.31C248.906 134.72 248.754 134.022 248.754 133.217C248.754 132.431 248.906 131.742 249.211 131.148C249.516 130.555 249.945 130.093 250.499 129.761C251.056 129.43 251.709 129.264 252.458 129.264C252.961 129.264 253.43 129.345 253.865 129.508C254.302 129.667 254.683 129.907 255.008 130.229C255.336 130.55 255.591 130.955 255.774 131.442C255.956 131.926 256.047 132.492 256.047 133.142V133.724H249.599V132.411H254.053C254.053 132.106 253.987 131.836 253.855 131.601C253.722 131.366 253.538 131.182 253.303 131.049C253.071 130.913 252.801 130.845 252.492 130.845C252.171 130.845 251.886 130.92 251.637 131.069C251.392 131.215 251.2 131.412 251.061 131.661C250.921 131.906 250.85 132.179 250.847 132.481V133.729C250.847 134.107 250.916 134.433 251.056 134.708C251.198 134.983 251.399 135.195 251.657 135.344C251.916 135.494 252.222 135.568 252.577 135.568C252.812 135.568 253.028 135.535 253.223 135.469C253.419 135.402 253.586 135.303 253.725 135.17C253.865 135.038 253.971 134.875 254.044 134.683L256.002 134.812C255.903 135.283 255.699 135.694 255.391 136.045C255.086 136.393 254.691 136.665 254.208 136.861C253.727 137.053 253.172 137.149 252.542 137.149ZM261.491 129.364V130.955H256.892V129.364H261.491ZM257.936 127.534H260.054V134.653C260.054 134.849 260.084 135.001 260.144 135.111C260.203 135.217 260.286 135.291 260.392 135.335C260.502 135.378 260.628 135.399 260.77 135.399C260.869 135.399 260.969 135.391 261.068 135.374C261.168 135.354 261.244 135.339 261.297 135.33L261.63 136.906C261.524 136.939 261.375 136.977 261.183 137.02C260.99 137.066 260.757 137.094 260.482 137.104C259.971 137.124 259.524 137.056 259.139 136.901C258.758 136.745 258.462 136.503 258.249 136.175C258.037 135.847 257.933 135.432 257.936 134.932V127.534ZM266.932 129.364V130.955H262.334V129.364H266.932ZM263.378 127.534H265.496V134.653C265.496 134.849 265.525 135.001 265.585 135.111C265.645 135.217 265.728 135.291 265.834 135.335C265.943 135.378 266.069 135.399 266.211 135.399C266.311 135.399 266.41 135.391 266.51 135.374C266.609 135.354 266.685 135.339 266.738 135.33L267.072 136.906C266.965 136.939 266.816 136.977 266.624 137.02C266.432 137.066 266.198 137.094 265.923 137.104C265.413 137.124 264.965 137.056 264.581 136.901C264.2 136.745 263.903 136.503 263.691 136.175C263.479 135.847 263.374 135.432 263.378 134.932V127.534ZM271.71 137.149C270.925 137.149 270.248 136.99 269.682 136.672C269.118 136.35 268.684 135.896 268.379 135.31C268.074 134.72 267.922 134.022 267.922 133.217C267.922 132.431 268.074 131.742 268.379 131.148C268.684 130.555 269.113 130.093 269.667 129.761C270.224 129.43 270.876 129.264 271.626 129.264C272.129 129.264 272.598 129.345 273.032 129.508C273.47 129.667 273.851 129.907 274.176 130.229C274.504 130.55 274.759 130.955 274.942 131.442C275.124 131.926 275.215 132.492 275.215 133.142V133.724H268.767V132.411H273.221C273.221 132.106 273.155 131.836 273.023 131.601C272.89 131.366 272.706 131.182 272.471 131.049C272.239 130.913 271.969 130.845 271.66 130.845C271.339 130.845 271.054 130.92 270.805 131.069C270.56 131.215 270.368 131.412 270.229 131.661C270.089 131.906 270.018 132.179 270.015 132.481V133.729C270.015 134.107 270.084 134.433 270.224 134.708C270.366 134.983 270.567 135.195 270.825 135.344C271.084 135.494 271.39 135.568 271.745 135.568C271.98 135.568 272.196 135.535 272.391 135.469C272.587 135.402 272.754 135.303 272.893 135.17C273.032 135.038 273.139 134.875 273.211 134.683L275.17 134.812C275.071 135.283 274.867 135.694 274.559 136.045C274.254 136.393 273.859 136.665 273.376 136.861C272.895 137.053 272.34 137.149 271.71 137.149ZM286.191 131.541L284.252 131.661C284.219 131.495 284.148 131.346 284.038 131.213C283.929 131.077 283.785 130.969 283.606 130.89C283.43 130.807 283.22 130.766 282.974 130.766C282.646 130.766 282.37 130.835 282.144 130.974C281.919 131.11 281.806 131.293 281.806 131.521C281.806 131.704 281.879 131.858 282.025 131.984C282.171 132.11 282.421 132.211 282.776 132.287L284.158 132.565C284.9 132.718 285.454 132.963 285.818 133.301C286.183 133.639 286.365 134.083 286.365 134.634C286.365 135.134 286.218 135.573 285.923 135.951C285.631 136.329 285.23 136.624 284.719 136.836C284.212 137.045 283.627 137.149 282.964 137.149C281.954 137.149 281.148 136.939 280.548 136.518C279.952 136.094 279.602 135.517 279.499 134.788L281.582 134.678C281.645 134.987 281.798 135.222 282.04 135.384C282.282 135.543 282.592 135.623 282.969 135.623C283.341 135.623 283.639 135.552 283.864 135.409C284.093 135.263 284.209 135.076 284.212 134.847C284.209 134.655 284.128 134.498 283.969 134.375C283.81 134.249 283.564 134.153 283.233 134.087L281.911 133.823C281.165 133.674 280.61 133.415 280.245 133.048C279.884 132.68 279.703 132.211 279.703 131.641C279.703 131.15 279.836 130.728 280.101 130.373C280.369 130.018 280.746 129.745 281.229 129.553C281.717 129.36 282.287 129.264 282.94 129.264C283.904 129.264 284.663 129.468 285.217 129.876C285.773 130.283 286.098 130.839 286.191 131.541ZM291.179 137.149C290.393 137.149 289.717 136.99 289.15 136.672C288.587 136.35 288.153 135.896 287.848 135.31C287.543 134.72 287.39 134.022 287.39 133.217C287.39 132.431 287.543 131.742 287.848 131.148C288.153 130.555 288.582 130.093 289.135 129.761C289.692 129.43 290.345 129.264 291.094 129.264C291.598 129.264 292.067 129.345 292.501 129.508C292.939 129.667 293.32 129.907 293.645 130.229C293.973 130.55 294.228 130.955 294.41 131.442C294.593 131.926 294.684 132.492 294.684 133.142V133.724H288.236V132.411H292.69C292.69 132.106 292.624 131.836 292.491 131.601C292.359 131.366 292.175 131.182 291.939 131.049C291.707 130.913 291.437 130.845 291.129 130.845C290.808 130.845 290.523 130.92 290.274 131.069C290.029 131.215 289.836 131.412 289.697 131.661C289.558 131.906 289.487 132.179 289.483 132.481V133.729C289.483 134.107 289.553 134.433 289.692 134.708C289.835 134.983 290.035 135.195 290.294 135.344C290.552 135.494 290.859 135.568 291.214 135.568C291.449 135.568 291.664 135.535 291.86 135.469C292.055 135.402 292.223 135.303 292.362 135.17C292.501 135.038 292.607 134.875 292.68 134.683L294.639 134.812C294.54 135.283 294.336 135.694 294.028 136.045C293.723 136.393 293.328 136.665 292.844 136.861C292.364 137.053 291.809 137.149 291.179 137.149ZM296.066 137V129.364H298.084V130.711H298.174C298.333 130.263 298.598 129.911 298.969 129.652C299.34 129.393 299.785 129.264 300.302 129.264C300.825 129.264 301.271 129.395 301.639 129.657C302.007 129.915 302.252 130.267 302.375 130.711H302.454C302.61 130.273 302.892 129.924 303.3 129.662C303.711 129.397 304.196 129.264 304.756 129.264C305.469 129.264 306.047 129.491 306.491 129.945C306.939 130.396 307.162 131.036 307.162 131.864V137H305.05V132.282C305.05 131.858 304.937 131.54 304.711 131.327C304.486 131.115 304.204 131.009 303.866 131.009C303.482 131.009 303.182 131.132 302.966 131.377C302.751 131.619 302.643 131.939 302.643 132.337V137H300.59V132.237C300.59 131.863 300.482 131.564 300.267 131.342C300.055 131.12 299.775 131.009 299.427 131.009C299.191 131.009 298.979 131.069 298.79 131.188C298.605 131.304 298.457 131.468 298.348 131.68C298.238 131.889 298.184 132.134 298.184 132.416V137H296.066ZM311.013 137.144C310.526 137.144 310.092 137.06 309.71 136.891C309.329 136.718 309.028 136.465 308.806 136.13C308.587 135.792 308.477 135.371 308.477 134.867C308.477 134.443 308.555 134.087 308.711 133.798C308.867 133.51 309.079 133.278 309.347 133.102C309.616 132.927 309.921 132.794 310.262 132.705C310.607 132.615 310.968 132.552 311.346 132.516C311.79 132.469 312.148 132.426 312.42 132.386C312.692 132.343 312.889 132.28 313.012 132.197C313.134 132.115 313.195 131.992 313.195 131.83V131.8C313.195 131.485 313.096 131.241 312.897 131.069C312.702 130.897 312.423 130.81 312.062 130.81C311.681 130.81 311.378 130.895 311.152 131.064C310.927 131.23 310.778 131.438 310.705 131.69L308.746 131.531C308.845 131.067 309.041 130.666 309.333 130.328C309.624 129.987 310 129.725 310.461 129.543C310.925 129.357 311.462 129.264 312.072 129.264C312.496 129.264 312.902 129.314 313.29 129.413C313.681 129.513 314.027 129.667 314.329 129.876C314.634 130.085 314.874 130.353 315.05 130.681C315.226 131.006 315.313 131.395 315.313 131.849V137H313.305V135.941H313.245C313.123 136.18 312.959 136.39 312.753 136.572C312.548 136.751 312.301 136.892 312.012 136.995C311.724 137.094 311.391 137.144 311.013 137.144ZM311.619 135.683C311.931 135.683 312.206 135.621 312.445 135.499C312.683 135.373 312.871 135.204 313.007 134.991C313.142 134.779 313.21 134.539 313.21 134.271V133.46C313.144 133.503 313.053 133.543 312.937 133.58C312.824 133.613 312.697 133.644 312.554 133.674C312.412 133.701 312.269 133.725 312.127 133.749C311.984 133.768 311.855 133.787 311.739 133.803C311.49 133.84 311.273 133.898 311.088 133.977C310.902 134.057 310.758 134.165 310.655 134.3C310.552 134.433 310.501 134.599 310.501 134.798C310.501 135.086 310.605 135.306 310.814 135.459C311.026 135.608 311.295 135.683 311.619 135.683ZM316.956 137V129.364H319.074V137H316.956ZM318.02 128.379C317.706 128.379 317.435 128.275 317.21 128.066C316.988 127.854 316.877 127.6 316.877 127.305C316.877 127.014 316.988 126.763 317.21 126.555C317.435 126.343 317.706 126.237 318.02 126.237C318.335 126.237 318.604 126.343 318.826 126.555C319.051 126.763 319.164 127.014 319.164 127.305C319.164 127.6 319.051 127.854 318.826 128.066C318.604 128.275 318.335 128.379 318.02 128.379ZM322.889 132.585V137H320.771V129.364H322.789V130.711H322.879C323.048 130.267 323.331 129.915 323.729 129.657C324.127 129.395 324.609 129.264 325.176 129.264C325.706 129.264 326.168 129.38 326.563 129.612C326.957 129.844 327.264 130.176 327.483 130.607C327.701 131.034 327.811 131.545 327.811 132.138V137H325.693V132.516C325.696 132.048 325.577 131.684 325.335 131.422C325.093 131.157 324.76 131.024 324.336 131.024C324.051 131.024 323.799 131.085 323.58 131.208C323.364 131.331 323.195 131.51 323.073 131.745C322.953 131.977 322.892 132.257 322.889 132.585ZM332.96 137.149C332.175 137.149 331.498 136.99 330.932 136.672C330.368 136.35 329.934 135.896 329.629 135.31C329.324 134.72 329.172 134.022 329.172 133.217C329.172 132.431 329.324 131.742 329.629 131.148C329.934 130.555 330.363 130.093 330.917 129.761C331.474 129.43 332.126 129.264 332.876 129.264C333.379 129.264 333.848 129.345 334.282 129.508C334.72 129.667 335.101 129.907 335.426 130.229C335.754 130.55 336.009 130.955 336.192 131.442C336.374 131.926 336.465 132.492 336.465 133.142V133.724H330.017V132.411H334.471C334.471 132.106 334.405 131.836 334.273 131.601C334.14 131.366 333.956 131.182 333.721 131.049C333.489 130.913 333.219 130.845 332.91 130.845C332.589 130.845 332.304 130.92 332.055 131.069C331.81 131.215 331.618 131.412 331.479 131.661C331.339 131.906 331.268 132.179 331.265 132.481V133.729C331.265 134.107 331.334 134.433 331.474 134.708C331.616 134.983 331.817 135.195 332.075 135.344C332.334 135.494 332.64 135.568 332.995 135.568C333.23 135.568 333.446 135.535 333.641 135.469C333.837 135.402 334.004 135.303 334.143 135.17C334.282 135.038 334.389 134.875 334.461 134.683L336.42 134.812C336.321 135.283 336.117 135.694 335.809 136.045C335.504 136.393 335.109 136.665 334.626 136.861C334.145 137.053 333.59 137.149 332.96 137.149Z" fill="black"/>
</svg>
