<svg width="8" height="16" viewBox="0 0 8 16" fill="none" xmlns="http://www.w3.org/2000/svg">
<path d="M6.96852 0.189662L0.1858 7.51754C0.0666717 7.64625 0 7.81888 0 7.99862C0 8.17836 0.0666717 8.35099 0.1858 8.4797L6.96852 15.8103C7.02401 15.8704 7.09036 15.9181 7.16364 15.9506C7.23693 15.9832 7.31567 16 7.39522 16C7.47477 16 7.55351 15.9832 7.62679 15.9506C7.70008 15.9181 7.76643 15.8704 7.82192 15.8103C7.93609 15.6872 8 15.522 8 15.3499C8 15.1779 7.93609 15.0126 7.82192 14.8895L1.44365 7.99862L7.82192 1.10909C7.93569 0.986063 7.99936 0.821113 7.99936 0.649378C7.99936 0.477642 7.93569 0.312692 7.82192 0.189662C7.76643 0.129639 7.70008 0.0819325 7.62679 0.0493576C7.55351 0.0167827 7.47477 0 7.39522 0C7.31567 0 7.23693 0.0167827 7.16364 0.0493576C7.09036 0.0819325 7.02401 0.129639 6.96852 0.189662Z" fill="white"/>
</svg>
