<svg width="23" height="5" viewBox="0 0 23 5" fill="none" xmlns="http://www.w3.org/2000/svg">
<path d="M2.0597 4.08828C2.77066 4.08828 3.34701 3.34599 3.34701 2.43033C3.34701 1.51467 2.77066 0.772387 2.0597 0.772387C1.34874 0.772387 0.772387 1.51467 0.772387 2.43033C0.772387 3.34599 1.34874 4.08828 2.0597 4.08828Z" fill="white" stroke="white" stroke-width="1.5" stroke-linecap="round" stroke-linejoin="round"/>
<path d="M11.4999 4.08828C12.2109 4.08828 12.7872 3.34599 12.7872 2.43033C12.7872 1.51467 12.2109 0.772387 11.4999 0.772387C10.789 0.772387 10.2126 1.51467 10.2126 2.43033C10.2126 3.34599 10.789 4.08828 11.4999 4.08828Z" fill="white" stroke="white" stroke-width="1.5" stroke-linecap="round" stroke-linejoin="round"/>
<path d="M20.9403 4.08828C21.6513 4.08828 22.2276 3.34599 22.2276 2.43033C22.2276 1.51467 21.6513 0.772387 20.9403 0.772387C20.2293 0.772387 19.653 1.51467 19.653 2.43033C19.653 3.34599 20.2293 4.08828 20.9403 4.08828Z" fill="white" stroke="white" stroke-width="1.5" stroke-linecap="round" stroke-linejoin="round"/>
</svg>
