<svg width="31" height="31" viewBox="0 0 31 31" fill="none" xmlns="http://www.w3.org/2000/svg">
<path d="M6.29688 19.375H4.35938C4.09186 19.375 3.875 19.5919 3.875 19.8594V28.5781C3.875 28.8456 4.09186 29.0625 4.35938 29.0625H6.29688C6.56439 29.0625 6.78125 28.8456 6.78125 28.5781V19.8594C6.78125 19.5919 6.56439 19.375 6.29688 19.375Z" stroke="white" stroke-width="1.5" stroke-linecap="round" stroke-linejoin="round"/>
<path d="M19.8594 13.5625H17.9219C17.6544 13.5625 17.4375 13.7794 17.4375 14.0469V28.5781C17.4375 28.8456 17.6544 29.0625 17.9219 29.0625H19.8594C20.1269 29.0625 20.3438 28.8456 20.3438 28.5781V14.0469C20.3438 13.7794 20.1269 13.5625 19.8594 13.5625Z" stroke="white" stroke-width="1.5" stroke-linecap="round" stroke-linejoin="round"/>
<path d="M26.6406 6.78125H24.7031C24.4356 6.78125 24.2188 6.99811 24.2188 7.26562V28.5781C24.2188 28.8456 24.4356 29.0625 24.7031 29.0625H26.6406C26.9081 29.0625 27.125 28.8456 27.125 28.5781V7.26562C27.125 6.99811 26.9081 6.78125 26.6406 6.78125Z" stroke="white" stroke-width="1.5" stroke-linecap="round" stroke-linejoin="round"/>
<path d="M13.0781 1.9375H11.1406C10.8731 1.9375 10.6562 2.15436 10.6562 2.42188V28.5781C10.6562 28.8456 10.8731 29.0625 11.1406 29.0625H13.0781C13.3456 29.0625 13.5625 28.8456 13.5625 28.5781V2.42188C13.5625 2.15436 13.3456 1.9375 13.0781 1.9375Z" stroke="white" stroke-width="1.5" stroke-linecap="round" stroke-linejoin="round"/>
</svg>
