<svg width="348" height="93" viewBox="0 0 348 93" fill="none" xmlns="http://www.w3.org/2000/svg">
<rect width="348" height="93" rx="20" fill="#0D0D0D"/>
<mask id="path-2-inside-1_320_276" fill="white">
<path d="M314 68C314 61.9592 312.81 55.9775 310.498 50.3966C308.187 44.8156 304.798 39.7446 300.527 35.4731C296.255 31.2016 291.184 27.8133 285.603 25.5015C280.022 23.1898 274.041 22 268 22C261.959 22 255.978 23.1898 250.397 25.5015C244.816 27.8133 239.745 31.2016 235.473 35.4731C231.202 39.7446 227.813 44.8156 225.502 50.3966C223.19 55.9775 222 61.9592 222 68H239.035C239.035 64.1963 239.785 60.4299 241.24 56.9157C242.696 53.4016 244.829 50.2086 247.519 47.519C250.209 44.8294 253.402 42.6958 256.916 41.2402C260.43 39.7846 264.196 39.0354 268 39.0354C271.804 39.0354 275.57 39.7846 279.084 41.2402C282.598 42.6958 285.791 44.8294 288.481 47.519C291.171 50.2086 293.304 53.4016 294.76 56.9157C296.215 60.4299 296.965 64.1963 296.965 68H314Z"/>
</mask>
<path d="M314 68C314 61.9592 312.81 55.9775 310.498 50.3966C308.187 44.8156 304.798 39.7446 300.527 35.4731C296.255 31.2016 291.184 27.8133 285.603 25.5015C280.022 23.1898 274.041 22 268 22C261.959 22 255.978 23.1898 250.397 25.5015C244.816 27.8133 239.745 31.2016 235.473 35.4731C231.202 39.7446 227.813 44.8156 225.502 50.3966C223.19 55.9775 222 61.9592 222 68H239.035C239.035 64.1963 239.785 60.4299 241.24 56.9157C242.696 53.4016 244.829 50.2086 247.519 47.519C250.209 44.8294 253.402 42.6958 256.916 41.2402C260.43 39.7846 264.196 39.0354 268 39.0354C271.804 39.0354 275.57 39.7846 279.084 41.2402C282.598 42.6958 285.791 44.8294 288.481 47.519C291.171 50.2086 293.304 53.4016 294.76 56.9157C296.215 60.4299 296.965 64.1963 296.965 68H314Z" fill="#EBEBEB" stroke="white" stroke-width="40" mask="url(#path-2-inside-1_320_276)"/>
<g filter="url(#filter0_d_320_276)">
<mask id="path-3-inside-2_320_276" fill="white">
<path d="M292.925 29.3378C285.977 24.8586 277.95 22.3345 269.689 22.031C261.428 21.7275 253.238 23.6558 245.98 27.613C238.722 31.5703 232.664 37.4103 228.445 44.5188C224.225 51.6273 221.999 59.7416 222 68.0083L239.035 68.0052C239.035 62.8 240.436 57.6907 243.093 53.2147C245.75 48.7388 249.565 45.0615 254.135 42.5698C258.705 40.078 263.862 38.8639 269.063 39.055C274.265 39.2461 279.319 40.8354 283.694 43.6558L292.925 29.3378Z"/>
</mask>
<path d="M292.925 29.3378C285.977 24.8586 277.95 22.3345 269.689 22.031C261.428 21.7275 253.238 23.6558 245.98 27.613C238.722 31.5703 232.664 37.4103 228.445 44.5188C224.225 51.6273 221.999 59.7416 222 68.0083L239.035 68.0052C239.035 62.8 240.436 57.6907 243.093 53.2147C245.75 48.7388 249.565 45.0615 254.135 42.5698C258.705 40.078 263.862 38.8639 269.063 39.055C274.265 39.2461 279.319 40.8354 283.694 43.6558L292.925 29.3378Z" fill="#F2F2F2"/>
<path d="M292.925 29.3378C285.977 24.8586 277.95 22.3345 269.689 22.031C261.428 21.7275 253.238 23.6558 245.98 27.613C238.722 31.5703 232.664 37.4103 228.445 44.5188C224.225 51.6273 221.999 59.7416 222 68.0083L239.035 68.0052C239.035 62.8 240.436 57.6907 243.093 53.2147C245.75 48.7388 249.565 45.0615 254.135 42.5698C258.705 40.078 263.862 38.8639 269.063 39.055C274.265 39.2461 279.319 40.8354 283.694 43.6558L292.925 29.3378Z" stroke="url(#paint0_linear_320_276)" stroke-width="40" mask="url(#path-3-inside-2_320_276)"/>
</g>
<path d="M258.282 61.266C258.282 60.202 259.402 59.6 260.508 59.614C261.558 59.614 262.65 60.048 262.65 60.916H264.498C264.498 58.858 262.608 58.018 260.48 58.018C258.464 58.018 256.448 59.04 256.448 61.224V64.878C256.448 67.076 258.534 68.154 260.536 68.154C262.51 68.154 264.596 67.076 264.596 64.906C264.596 62.47 262.524 61.644 260.55 61.644C259.78 61.644 258.716 62.008 258.282 62.68V61.21V61.266ZM260.536 66.502C259.332 66.502 258.296 65.984 258.282 64.906C258.268 63.814 259.318 63.254 260.55 63.254C261.782 63.254 262.762 63.828 262.762 64.906C262.762 65.984 261.698 66.502 260.536 66.502ZM273.124 58.214H266.026C266.026 59.992 266.026 61.63 266.026 63.394H269.736C270.744 63.394 271.85 63.716 271.836 64.822C271.836 65.984 270.702 66.404 269.806 66.404C268.882 66.404 267.65 66.124 267.65 65.046H265.816C265.83 67.342 267.678 68.112 269.834 68.112C271.808 68.112 273.67 67.048 273.67 64.822C273.684 62.526 271.822 61.672 269.736 61.672H267.832V59.95H273.124V58.214ZM276.79 58.018C273.752 58.018 273.752 62.414 276.79 62.414C279.828 62.414 279.828 58.018 276.79 58.018ZM281.648 58.186L275.194 68.014H277.182L283.622 58.186H281.648ZM282.11 63.702C279.072 63.702 279.072 68.098 282.11 68.098C285.148 68.098 285.148 63.702 282.11 63.702ZM282.11 64.99C283.314 64.99 283.314 66.824 282.11 66.824C280.906 66.824 280.906 64.99 282.11 64.99ZM276.79 59.292C277.994 59.292 277.994 61.126 276.79 61.126C275.586 61.126 275.586 59.292 276.79 59.292Z" fill="white"/>
<path d="M27.335 27.004C23.947 27.004 22.295 29.594 22.295 32.17C22.295 34.746 23.891 37.224 27.335 37.224C30.779 37.224 32.333 34.69 32.361 32.156C32.389 29.594 30.709 27.004 27.335 27.004ZM27.335 28.684C29.645 28.684 30.569 30.532 30.541 32.184C30.513 33.794 29.645 35.53 27.335 35.53C25.025 35.53 24.157 33.808 24.115 32.198C24.073 30.546 25.025 28.684 27.335 28.684ZM37.4172 35.516C36.2552 35.516 35.4572 34.634 35.4572 33.556C35.4572 32.478 36.1852 31.596 37.4172 31.596C38.6492 31.596 39.3772 32.478 39.3772 33.556C39.3772 34.634 38.5792 35.516 37.4172 35.516ZM35.3032 39.884V36.188C35.7932 36.944 36.8712 37.168 37.5992 37.168C39.8112 37.168 41.0852 35.572 41.0852 33.556C41.0852 31.526 39.6712 29.944 37.5432 29.944C36.7592 29.944 35.8352 30.28 35.3032 31.05L35.1912 30.098H33.5952V39.884H35.3032ZM43.0452 28.334V30.112H41.7572V31.582H43.0452V34.564C43.0452 36.286 44.0252 37.14 45.5232 37.084C46.0412 37.07 46.4472 36.986 46.9372 36.79L46.4612 35.334C46.2092 35.46 45.9012 35.544 45.6352 35.544C45.1032 35.544 44.7392 35.222 44.7392 34.564V31.582H46.6572V30.112H44.7532V28.152L43.0452 28.334ZM49.645 30.07V37H47.937V30.07H49.645ZM47.783 28.152C47.783 29.482 49.799 29.482 49.799 28.152C49.799 26.822 47.783 26.822 47.783 28.152ZM57.4909 37V33.304C57.4909 32.394 58.0649 31.596 58.9889 31.596C59.9129 31.596 60.2909 32.366 60.2909 33.276V37H61.9989V33.276C61.9989 31.204 61.0329 30 59.0729 30C58.1769 30 57.3789 30.28 56.7629 31.26C56.3709 30.308 55.5449 29.972 54.7189 29.972C54.0609 29.972 53.2629 30.224 52.8989 30.924L52.7729 30.084H51.1909V37H52.8989V33.304C52.8989 32.394 53.4449 31.568 54.3689 31.568C55.3069 31.568 55.7829 32.394 55.7829 33.304V37H57.4909ZM65.4496 30.07V37H63.7416V30.07H65.4496ZM63.5876 28.152C63.5876 29.482 65.6036 29.482 65.6036 28.152C65.6036 26.822 63.5876 26.822 63.5876 28.152ZM72.4555 30.812C71.6575 30.112 70.8455 29.902 69.7675 29.902C68.5075 29.902 66.8555 30.462 66.8555 32.058C66.8555 33.626 68.4095 34.102 69.7115 34.2C70.6915 34.256 71.0835 34.452 71.0835 34.928C71.0835 35.432 70.4815 35.768 69.8375 35.754C69.0675 35.74 67.9475 35.334 67.4575 34.788L66.6175 36.006C67.6255 37.056 68.7175 37.238 69.8095 37.238C71.7835 37.238 72.7775 36.188 72.7775 34.97C72.7775 33.136 71.1255 32.842 69.8235 32.758C68.9415 32.702 68.5355 32.45 68.5355 32.002C68.5355 31.568 68.9835 31.316 69.7955 31.316C70.4535 31.316 71.0135 31.47 71.5035 31.932L72.4555 30.812ZM80.7185 34.158C80.9845 31.316 79.5425 29.888 77.2325 29.888C74.9925 29.888 73.5645 31.4 73.5645 33.5C73.5645 35.712 74.9785 37.182 77.3585 37.182C78.4085 37.182 79.5985 36.818 80.3265 36.062L79.2345 34.984C78.8425 35.39 78.0165 35.628 77.3865 35.628C76.1825 35.628 75.4405 35.012 75.3285 34.158H80.7185ZM75.3565 32.744C75.6085 31.848 76.3645 31.4 77.2885 31.4C78.2685 31.4 78.9685 31.848 79.0805 32.744H75.3565ZM81.8526 30.098V31.652H84.9046L81.6006 36.286V37H87.4106V35.32H84.2046L87.3826 30.91V30.098H81.8526ZM96.5551 30.084L95.6031 32.394L94.5531 35.278L93.4891 32.366L92.5371 30.084H90.6751L93.6291 37.028H95.4771L98.4171 30.084H96.5551ZM102.496 29.958C100.298 29.958 98.9255 31.582 98.9255 33.556C98.9255 35.544 100.27 37.154 102.51 37.154C104.75 37.154 106.108 35.544 106.108 33.556C106.108 31.582 104.694 29.958 102.496 29.958ZM102.51 31.512C103.658 31.512 104.386 32.52 104.386 33.556C104.386 34.606 103.756 35.586 102.51 35.586C101.264 35.586 100.634 34.606 100.634 33.556C100.634 32.52 101.278 31.512 102.51 31.512ZM107.85 28.334V30.112H106.562V31.582H107.85V34.564C107.85 36.286 108.83 37.14 110.328 37.084C110.846 37.07 111.252 36.986 111.742 36.79L111.266 35.334C111.014 35.46 110.706 35.544 110.44 35.544C109.908 35.544 109.544 35.222 109.544 34.564V31.582H111.462V30.112H109.558V28.152L107.85 28.334ZM112.742 30.098V37H114.45V33.36C114.45 32.086 115.276 31.61 116.172 31.61C116.732 31.61 117.054 31.764 117.404 32.058L118.174 30.574C117.796 30.196 117.11 29.916 116.396 29.916C115.696 29.916 114.982 30.042 114.45 30.896L114.324 30.098H112.742ZM125.658 34.158C125.924 31.316 124.482 29.888 122.172 29.888C119.932 29.888 118.504 31.4 118.504 33.5C118.504 35.712 119.918 37.182 122.298 37.182C123.348 37.182 124.538 36.818 125.266 36.062L124.174 34.984C123.782 35.39 122.956 35.628 122.326 35.628C121.122 35.628 120.38 35.012 120.268 34.158H125.658ZM120.296 32.744C120.548 31.848 121.304 31.4 122.228 31.4C123.208 31.4 123.908 31.848 124.02 32.744H120.296ZM134.578 34.998C134.158 35.418 133.612 35.572 133.066 35.572C132.002 35.572 131.106 34.872 131.106 33.556C131.106 32.352 131.946 31.512 133.094 31.512C133.57 31.512 134.074 31.694 134.48 32.058L135.558 30.924C134.802 30.182 134.046 29.902 133.066 29.902C131.064 29.902 129.398 31.106 129.398 33.556C129.398 36.006 131.064 37.21 133.066 37.21C134.088 37.21 134.928 36.902 135.726 36.118L134.578 34.998ZM136.476 30.098V37H138.184V33.36C138.184 32.086 139.01 31.61 139.906 31.61C140.466 31.61 140.788 31.764 141.138 32.058L141.908 30.574C141.53 30.196 140.844 29.916 140.13 29.916C139.43 29.916 138.716 30.042 138.184 30.896L138.058 30.098H136.476ZM145.794 29.958C143.596 29.958 142.224 31.582 142.224 33.556C142.224 35.544 143.568 37.154 145.808 37.154C148.048 37.154 149.406 35.544 149.406 33.556C149.406 31.582 147.992 29.958 145.794 29.958ZM145.808 31.512C146.956 31.512 147.684 32.52 147.684 33.556C147.684 34.606 147.054 35.586 145.808 35.586C144.562 35.586 143.932 34.606 143.932 33.556C143.932 32.52 144.576 31.512 145.808 31.512ZM152.293 30.07V37H150.585V30.07H152.293ZM150.431 28.152C150.431 29.482 152.447 29.482 152.447 28.152C152.447 26.822 150.431 26.822 150.431 28.152ZM159.299 30.812C158.501 30.112 157.689 29.902 156.611 29.902C155.351 29.902 153.699 30.462 153.699 32.058C153.699 33.626 155.253 34.102 156.555 34.2C157.535 34.256 157.927 34.452 157.927 34.928C157.927 35.432 157.325 35.768 156.681 35.754C155.911 35.74 154.791 35.334 154.301 34.788L153.461 36.006C154.469 37.056 155.561 37.238 156.653 37.238C158.627 37.238 159.621 36.188 159.621 34.97C159.621 33.136 157.969 32.842 156.667 32.758C155.785 32.702 155.379 32.45 155.379 32.002C155.379 31.568 155.827 31.316 156.639 31.316C157.297 31.316 157.857 31.47 158.347 31.932L159.299 30.812ZM166.176 30.812C165.378 30.112 164.566 29.902 163.488 29.902C162.228 29.902 160.576 30.462 160.576 32.058C160.576 33.626 162.13 34.102 163.432 34.2C164.412 34.256 164.804 34.452 164.804 34.928C164.804 35.432 164.202 35.768 163.558 35.754C162.788 35.74 161.668 35.334 161.178 34.788L160.338 36.006C161.346 37.056 162.438 37.238 163.53 37.238C165.504 37.238 166.498 36.188 166.498 34.97C166.498 33.136 164.846 32.842 163.544 32.758C162.662 32.702 162.256 32.45 162.256 32.002C162.256 31.568 162.704 31.316 163.516 31.316C164.174 31.316 164.734 31.47 165.224 31.932L166.176 30.812ZM173.011 31.05C172.619 30.364 171.737 29.93 170.813 29.93C168.797 29.916 167.215 31.162 167.215 33.542C167.215 35.964 168.727 37.224 170.771 37.21C171.541 37.196 172.619 36.804 173.011 35.992L173.095 37H174.705V30.098H173.067L173.011 31.05ZM170.967 31.456C173.655 31.456 173.655 35.642 170.967 35.642C169.833 35.642 168.923 34.858 168.923 33.542C168.923 32.226 169.833 31.456 170.967 31.456ZM182.942 37V33.374C182.942 31.204 181.64 29.986 180.016 29.986C179.148 29.986 178.448 30.336 177.748 31.022L177.636 30.084H176.11V37H177.804V33.472C177.804 32.422 178.518 31.54 179.568 31.54C180.66 31.54 181.234 32.338 181.234 33.388V37H182.942ZM189.184 34.998C188.764 35.418 188.218 35.572 187.672 35.572C186.608 35.572 185.712 34.872 185.712 33.556C185.712 32.352 186.552 31.512 187.7 31.512C188.176 31.512 188.68 31.694 189.086 32.058L190.164 30.924C189.408 30.182 188.652 29.902 187.672 29.902C185.67 29.902 184.004 31.106 184.004 33.556C184.004 36.006 185.67 37.21 187.672 37.21C188.694 37.21 189.534 36.902 190.332 36.118L189.184 34.998ZM198.201 34.158C198.467 31.316 197.025 29.888 194.715 29.888C192.475 29.888 191.047 31.4 191.047 33.5C191.047 35.712 192.461 37.182 194.841 37.182C195.891 37.182 197.081 36.818 197.809 36.062L196.717 34.984C196.325 35.39 195.499 35.628 194.869 35.628C193.665 35.628 192.923 35.012 192.811 34.158H198.201ZM192.839 32.744C193.091 31.848 193.847 31.4 194.771 31.4C195.751 31.4 196.451 31.848 196.563 32.744H192.839Z" fill="white"/>
<path d="M41.3278 47.103H36.9498V49.941H41.0968V50.733H36.9498V54H36.1028V46.3H41.3278V47.103ZM46.25 46.3L45.216 47.73H44.457L45.26 46.3H46.25ZM44.963 48.456C45.8797 48.456 46.5873 48.742 47.086 49.314C47.5847 49.8787 47.7937 50.6413 47.713 51.602H43.038C43.082 52.152 43.2873 52.5847 43.654 52.9C44.0207 53.2153 44.49 53.373 45.062 53.373C45.414 53.373 45.755 53.307 46.085 53.175C46.415 53.043 46.668 52.867 46.844 52.647L47.372 53.142C47.1153 53.45 46.778 53.692 46.36 53.868C45.9493 54.044 45.5093 54.132 45.04 54.132C44.1967 54.132 43.511 53.8717 42.983 53.351C42.4623 52.823 42.202 52.1337 42.202 51.283C42.202 50.447 42.4587 49.7687 42.972 49.248C43.4853 48.72 44.149 48.456 44.963 48.456ZM44.985 49.193C44.4423 49.193 43.9987 49.347 43.654 49.655C43.3167 49.9557 43.115 50.37 43.049 50.898H46.943C46.9137 50.3847 46.723 49.974 46.371 49.666C46.019 49.3507 45.557 49.193 44.985 49.193ZM48.9781 54V46.3H49.7921V54H48.9781ZM51.8665 47.499C51.6979 47.499 51.5585 47.4477 51.4485 47.345C51.3385 47.235 51.2835 47.0957 51.2835 46.927C51.2835 46.7583 51.3385 46.619 51.4485 46.509C51.5585 46.399 51.6979 46.344 51.8665 46.344C52.0425 46.344 52.1855 46.399 52.2955 46.509C52.4055 46.619 52.4605 46.7583 52.4605 46.927C52.4605 47.0957 52.4055 47.235 52.2955 47.345C52.1855 47.4477 52.0425 47.499 51.8665 47.499ZM51.4595 54V48.566H52.2735V54H51.4595ZM56.427 54.11C55.591 54.11 54.9053 53.8497 54.37 53.329C53.842 52.8083 53.578 52.1263 53.578 51.283C53.578 50.447 53.842 49.7687 54.37 49.248C54.9053 48.72 55.591 48.456 56.427 48.456C57.2043 48.456 57.868 48.731 58.418 49.281L57.912 49.82C57.516 49.4167 57.021 49.215 56.427 49.215C55.8403 49.215 55.3526 49.4057 54.964 49.787C54.5826 50.161 54.392 50.6597 54.392 51.283C54.392 51.899 54.5826 52.3977 54.964 52.779C55.3526 53.1603 55.8403 53.351 56.427 53.351C57.043 53.351 57.5563 53.142 57.967 52.724L58.473 53.285C57.9156 53.835 57.2336 54.11 56.427 54.11ZM60.0843 47.499C59.9156 47.499 59.7763 47.4477 59.6663 47.345C59.5563 47.235 59.5013 47.0957 59.5013 46.927C59.5013 46.7583 59.5563 46.619 59.6663 46.509C59.7763 46.399 59.9156 46.344 60.0843 46.344C60.2603 46.344 60.4033 46.399 60.5133 46.509C60.6233 46.619 60.6783 46.7583 60.6783 46.927C60.6783 47.0957 60.6233 47.235 60.5133 47.345C60.4033 47.4477 60.2603 47.499 60.0843 47.499ZM59.6773 54V48.566H60.4913V54H59.6773ZM65.3048 53.142L65.5578 53.813C65.1544 53.9963 64.7731 54.088 64.4138 54.088C63.3284 54.088 62.7858 53.4793 62.7858 52.262V49.281H61.6858V48.566H62.7858V47.048L63.5998 46.971V48.566H65.3268V49.281H63.5998V52.262C63.5998 52.614 63.6658 52.8853 63.7978 53.076C63.9298 53.2593 64.1608 53.351 64.4908 53.351C64.7401 53.351 65.0114 53.2813 65.3048 53.142ZM71.0736 48.566H71.8106V54H71.0736L71.0626 53.065C70.8499 53.395 70.5529 53.6517 70.1716 53.835C69.7902 54.0183 69.3649 54.11 68.8956 54.11C68.0962 54.11 67.4436 53.846 66.9376 53.318C66.4316 52.79 66.1786 52.1117 66.1786 51.283C66.1786 50.4543 66.4316 49.776 66.9376 49.248C67.4436 48.72 68.0962 48.456 68.8956 48.456C69.3649 48.456 69.7866 48.5513 70.1606 48.742C70.5419 48.9253 70.8426 49.182 71.0626 49.512L71.0736 48.566ZM67.5536 52.779C67.9276 53.1603 68.4079 53.351 68.9946 53.351C69.5812 53.351 70.0616 53.1603 70.4356 52.779C70.8096 52.3977 70.9966 51.899 70.9966 51.283C70.9966 50.667 70.8096 50.1683 70.4356 49.787C70.0616 49.4057 69.5812 49.215 68.9946 49.215C68.4079 49.215 67.9276 49.4057 67.5536 49.787C67.1796 50.1683 66.9926 50.667 66.9926 51.283C66.9926 51.899 67.1796 52.3977 67.5536 52.779ZM76.627 53.142L76.88 53.813C76.4767 53.9963 76.0954 54.088 75.736 54.088C74.6507 54.088 74.108 53.4793 74.108 52.262V49.281H73.008V48.566H74.108V47.048L74.922 46.971V48.566H76.649V49.281H74.922V52.262C74.922 52.614 74.988 52.8853 75.12 53.076C75.252 53.2593 75.483 53.351 75.813 53.351C76.0624 53.351 76.3337 53.2813 76.627 53.142ZM78.3138 47.499C78.1451 47.499 78.0058 47.4477 77.8958 47.345C77.7858 47.235 77.7308 47.0957 77.7308 46.927C77.7308 46.7583 77.7858 46.619 77.8958 46.509C78.0058 46.399 78.1451 46.344 78.3138 46.344C78.4898 46.344 78.6328 46.399 78.7428 46.509C78.8528 46.619 78.9078 46.7583 78.9078 46.927C78.9078 47.0957 78.8528 47.235 78.7428 47.345C78.6328 47.4477 78.4898 47.499 78.3138 47.499ZM77.9068 54V48.566H78.7208V54H77.9068ZM84.8982 53.307C84.3776 53.8423 83.6992 54.11 82.8632 54.11C82.0272 54.11 81.3452 53.8423 80.8172 53.307C80.2892 52.7717 80.0252 52.097 80.0252 51.283C80.0252 50.469 80.2892 49.7943 80.8172 49.259C81.3452 48.7237 82.0272 48.456 82.8632 48.456C83.6992 48.456 84.3776 48.7237 84.8982 49.259C85.4262 49.7943 85.6902 50.469 85.6902 51.283C85.6902 52.097 85.4262 52.7717 84.8982 53.307ZM81.4002 52.757C81.7816 53.153 82.2692 53.351 82.8632 53.351C83.4572 53.351 83.9412 53.153 84.3152 52.757C84.6892 52.361 84.8762 51.8697 84.8762 51.283C84.8762 50.6963 84.6892 50.205 84.3152 49.809C83.9412 49.413 83.4572 49.215 82.8632 49.215C82.2692 49.215 81.7816 49.413 81.4002 49.809C81.0262 50.205 80.8392 50.6963 80.8392 51.283C80.8392 51.8697 81.0262 52.361 81.4002 52.757ZM89.7447 48.478C90.4634 48.478 91.028 48.698 91.4387 49.138C91.8567 49.578 92.0657 50.1793 92.0657 50.942V54H91.2517V50.986C91.2517 50.4287 91.1124 49.996 90.8337 49.688C90.555 49.38 90.159 49.226 89.6457 49.226C89.103 49.226 88.6594 49.402 88.3147 49.754C87.9774 50.0987 87.8087 50.535 87.8087 51.063V54H86.9947V48.566H87.7317L87.7427 49.435C88.212 48.797 88.8794 48.478 89.7447 48.478ZM95.6456 54.11C94.6776 54.11 93.8746 53.813 93.2366 53.219L93.6656 52.636C94.1716 53.1273 94.8353 53.373 95.6566 53.373C96.1039 53.373 96.4559 53.296 96.7126 53.142C96.9766 52.9807 97.1086 52.7643 97.1086 52.493C97.1086 52.2437 96.9949 52.053 96.7676 51.921C96.5476 51.789 96.1479 51.6753 95.5686 51.58C94.8133 51.4773 94.2633 51.3013 93.9186 51.052C93.5813 50.8027 93.4126 50.458 93.4126 50.018C93.4126 49.5413 93.6179 49.1637 94.0286 48.885C94.4393 48.599 94.9893 48.456 95.6786 48.456C96.4926 48.456 97.2003 48.6797 97.8016 49.127L97.4056 49.721C96.9069 49.3543 96.3423 49.171 95.7116 49.171C94.7143 49.171 94.2156 49.4497 94.2156 50.007C94.2156 50.2417 94.3183 50.4213 94.5236 50.546C94.7363 50.6707 95.1103 50.777 95.6456 50.865C96.4669 50.9897 97.0499 51.1767 97.3946 51.426C97.7393 51.6753 97.9116 52.0347 97.9116 52.504C97.9116 52.9807 97.7026 53.3693 97.2846 53.67C96.8739 53.9633 96.3276 54.11 95.6456 54.11ZM102.188 52.119L102.133 46.3H103.002L102.947 52.119H102.188ZM102.969 53.934C102.867 54.0367 102.735 54.088 102.573 54.088C102.412 54.088 102.28 54.0367 102.177 53.934C102.075 53.8313 102.023 53.6993 102.023 53.538C102.023 53.384 102.075 53.2557 102.177 53.153C102.28 53.0503 102.412 52.999 102.573 52.999C102.735 52.999 102.867 53.0503 102.969 53.153C103.072 53.2557 103.123 53.384 103.123 53.538C103.123 53.6993 103.072 53.8313 102.969 53.934ZM113.083 46.3H113.996L110.817 54H109.882L106.692 46.3H107.605L109.145 50.051L110.344 53.01L113.083 46.3ZM118.994 53.307C118.473 53.8423 117.795 54.11 116.959 54.11C116.123 54.11 115.441 53.8423 114.913 53.307C114.385 52.7717 114.121 52.097 114.121 51.283C114.121 50.469 114.385 49.7943 114.913 49.259C115.441 48.7237 116.123 48.456 116.959 48.456C117.795 48.456 118.473 48.7237 118.994 49.259C119.522 49.7943 119.786 50.469 119.786 51.283C119.786 52.097 119.522 52.7717 118.994 53.307ZM115.496 52.757C115.877 53.153 116.365 53.351 116.959 53.351C117.553 53.351 118.037 53.153 118.411 52.757C118.785 52.361 118.972 51.8697 118.972 51.283C118.972 50.6963 118.785 50.205 118.411 49.809C118.037 49.413 117.553 49.215 116.959 49.215C116.365 49.215 115.877 49.413 115.496 49.809C115.122 50.205 114.935 50.6963 114.935 51.283C114.935 51.8697 115.122 52.361 115.496 52.757ZM124.107 53.142L124.36 53.813C123.957 53.9963 123.576 54.088 123.216 54.088C122.131 54.088 121.588 53.4793 121.588 52.262V49.281H120.488V48.566H121.588V47.048L122.402 46.971V48.566H124.129V49.281H122.402V52.262C122.402 52.614 122.468 52.8853 122.6 53.076C122.732 53.2593 122.963 53.351 123.293 53.351C123.543 53.351 123.814 53.2813 124.107 53.142ZM127.895 48.478C128.394 48.478 128.812 48.6063 129.149 48.863L128.775 49.545C128.504 49.369 128.2 49.281 127.862 49.281C127.371 49.281 126.971 49.468 126.663 49.842C126.355 50.216 126.201 50.6963 126.201 51.283V54H125.387V48.566H126.124L126.135 49.6C126.539 48.852 127.125 48.478 127.895 48.478ZM132.19 48.456C133.106 48.456 133.814 48.742 134.313 49.314C134.811 49.8787 135.02 50.6413 134.94 51.602H130.265C130.309 52.152 130.514 52.5847 130.881 52.9C131.247 53.2153 131.717 53.373 132.289 53.373C132.641 53.373 132.982 53.307 133.312 53.175C133.642 53.043 133.895 52.867 134.071 52.647L134.599 53.142C134.342 53.45 134.005 53.692 133.587 53.868C133.176 54.044 132.736 54.132 132.267 54.132C131.423 54.132 130.738 53.8717 130.21 53.351C129.689 52.823 129.429 52.1337 129.429 51.283C129.429 50.447 129.685 49.7687 130.199 49.248C130.712 48.72 131.376 48.456 132.19 48.456ZM132.212 49.193C131.669 49.193 131.225 49.347 130.881 49.655C130.543 49.9557 130.342 50.37 130.276 50.898H134.17C134.14 50.3847 133.95 49.974 133.598 49.666C133.246 49.3507 132.784 49.193 132.212 49.193ZM143.573 48.566H144.31V54H143.573L143.562 53.065C143.349 53.395 143.052 53.6517 142.671 53.835C142.289 54.0183 141.864 54.11 141.395 54.11C140.595 54.11 139.943 53.846 139.437 53.318C138.931 52.79 138.678 52.1117 138.678 51.283C138.678 50.4543 138.931 49.776 139.437 49.248C139.943 48.72 140.595 48.456 141.395 48.456C141.864 48.456 142.286 48.5513 142.66 48.742C143.041 48.9253 143.342 49.182 143.562 49.512L143.573 48.566ZM140.053 52.779C140.427 53.1603 140.907 53.351 141.494 53.351C142.08 53.351 142.561 53.1603 142.935 52.779C143.309 52.3977 143.496 51.899 143.496 51.283C143.496 50.667 143.309 50.1683 142.935 49.787C142.561 49.4057 142.08 49.215 141.494 49.215C140.907 49.215 140.427 49.4057 140.053 49.787C139.679 50.1683 139.492 50.667 139.492 51.283C139.492 51.899 139.679 52.3977 140.053 52.779ZM148.466 54.11C147.63 54.11 146.944 53.8497 146.409 53.329C145.881 52.8083 145.617 52.1263 145.617 51.283C145.617 50.447 145.881 49.7687 146.409 49.248C146.944 48.72 147.63 48.456 148.466 48.456C149.243 48.456 149.907 48.731 150.457 49.281L149.951 49.82C149.555 49.4167 149.06 49.215 148.466 49.215C147.879 49.215 147.392 49.4057 147.003 49.787C146.622 50.161 146.431 50.6597 146.431 51.283C146.431 51.899 146.622 52.3977 147.003 52.779C147.392 53.1603 147.879 53.351 148.466 53.351C149.082 53.351 149.595 53.142 150.006 52.724L150.512 53.285C149.955 53.835 149.273 54.11 148.466 54.11ZM154.862 53.142L155.115 53.813C154.712 53.9963 154.331 54.088 153.971 54.088C152.886 54.088 152.343 53.4793 152.343 52.262V49.281H151.243V48.566H152.343V47.048L153.157 46.971V48.566H154.884V49.281H153.157V52.262C153.157 52.614 153.223 52.8853 153.355 53.076C153.487 53.2593 153.718 53.351 154.048 53.351C154.298 53.351 154.569 53.2813 154.862 53.142ZM156.549 47.499C156.38 47.499 156.241 47.4477 156.131 47.345C156.021 47.235 155.966 47.0957 155.966 46.927C155.966 46.7583 156.021 46.619 156.131 46.509C156.241 46.399 156.38 46.344 156.549 46.344C156.725 46.344 156.868 46.399 156.978 46.509C157.088 46.619 157.143 46.7583 157.143 46.927C157.143 47.0957 157.088 47.235 156.978 47.345C156.868 47.4477 156.725 47.499 156.549 47.499ZM156.142 54V48.566H156.956V54H156.142ZM162.694 48.566H163.574L161.275 54H160.395L158.096 48.566H158.987L159.867 50.7L160.835 53.131L161.814 50.7L162.694 48.566ZM165.121 47.499C164.953 47.499 164.813 47.4477 164.703 47.345C164.593 47.235 164.538 47.0957 164.538 46.927C164.538 46.7583 164.593 46.619 164.703 46.509C164.813 46.399 164.953 46.344 165.121 46.344C165.297 46.344 165.44 46.399 165.55 46.509C165.66 46.619 165.715 46.7583 165.715 46.927C165.715 47.0957 165.66 47.235 165.55 47.345C165.44 47.4477 165.297 47.499 165.121 47.499ZM164.714 54V48.566H165.528V54H164.714ZM170.342 53.142L170.595 53.813C170.192 53.9963 169.81 54.088 169.451 54.088C168.366 54.088 167.823 53.4793 167.823 52.262V49.281H166.723V48.566H167.823V47.048L168.637 46.971V48.566H170.364V49.281H168.637V52.262C168.637 52.614 168.703 52.8853 168.835 53.076C168.967 53.2593 169.198 53.351 169.528 53.351C169.777 53.351 170.049 53.2813 170.342 53.142ZM175.264 46.3L174.23 47.73H173.471L174.274 46.3H175.264ZM173.977 48.456C174.893 48.456 175.601 48.742 176.1 49.314C176.598 49.8787 176.807 50.6413 176.727 51.602H172.052C172.096 52.152 172.301 52.5847 172.668 52.9C173.034 53.2153 173.504 53.373 174.076 53.373C174.428 53.373 174.769 53.307 175.099 53.175C175.429 53.043 175.682 52.867 175.858 52.647L176.386 53.142C176.129 53.45 175.792 53.692 175.374 53.868C174.963 54.044 174.523 54.132 174.054 54.132C173.21 54.132 172.525 53.8717 171.997 53.351C171.476 52.823 171.216 52.1337 171.216 51.283C171.216 50.447 171.472 49.7687 171.986 49.248C172.499 48.72 173.163 48.456 173.977 48.456ZM173.999 49.193C173.456 49.193 173.012 49.347 172.668 49.655C172.33 49.9557 172.129 50.37 172.063 50.898H175.957C175.927 50.3847 175.737 49.974 175.385 49.666C175.033 49.3507 174.571 49.193 173.999 49.193ZM183.996 47.73H183.237L182.203 46.3H183.193L183.996 47.73ZM185.36 48.566H186.097V54H185.36L185.349 53.065C185.136 53.395 184.839 53.6517 184.458 53.835C184.076 54.0183 183.651 54.11 183.182 54.11C182.382 54.11 181.73 53.846 181.224 53.318C180.718 52.79 180.465 52.1117 180.465 51.283C180.465 50.4543 180.718 49.776 181.224 49.248C181.73 48.72 182.382 48.456 183.182 48.456C183.651 48.456 184.073 48.5513 184.447 48.742C184.828 48.9253 185.129 49.182 185.349 49.512L185.36 48.566ZM181.84 52.779C182.214 53.1603 182.694 53.351 183.281 53.351C183.867 53.351 184.348 53.1603 184.722 52.779C185.096 52.3977 185.283 51.899 185.283 51.283C185.283 50.667 185.096 50.1683 184.722 49.787C184.348 49.4057 183.867 49.215 183.281 49.215C182.694 49.215 182.214 49.4057 181.84 49.787C181.466 50.1683 181.279 50.667 181.279 51.283C181.279 51.899 181.466 52.3977 181.84 52.779ZM37.6777 58.3L36.6437 59.73H35.8847L36.6877 58.3H37.6777ZM36.3907 60.456C37.3074 60.456 38.0151 60.742 38.5137 61.314C39.0124 61.8787 39.2214 62.6413 39.1407 63.602H34.4657C34.5097 64.152 34.7151 64.5847 35.0817 64.9C35.4484 65.2153 35.9177 65.373 36.4897 65.373C36.8417 65.373 37.1827 65.307 37.5127 65.175C37.8427 65.043 38.0957 64.867 38.2717 64.647L38.7997 65.142C38.5431 65.45 38.2057 65.692 37.7877 65.868C37.3771 66.044 36.9371 66.132 36.4677 66.132C35.6244 66.132 34.9387 65.8717 34.4107 65.351C33.8901 64.823 33.6297 64.1337 33.6297 63.283C33.6297 62.447 33.8864 61.7687 34.3997 61.248C34.9131 60.72 35.5767 60.456 36.3907 60.456ZM36.4127 61.193C35.8701 61.193 35.4264 61.347 35.0817 61.655C34.7444 61.9557 34.5427 62.37 34.4767 62.898H38.3707C38.3414 62.3847 38.1507 61.974 37.7987 61.666C37.4467 61.3507 36.9847 61.193 36.4127 61.193ZM44.2825 60.566H45.1625L42.8635 66H41.9835L39.6845 60.566H40.5755L41.4555 62.7L42.4235 65.131L43.4025 62.7L44.2825 60.566ZM50.5662 65.307C50.0455 65.8423 49.3672 66.11 48.5312 66.11C47.6952 66.11 47.0132 65.8423 46.4852 65.307C45.9572 64.7717 45.6932 64.097 45.6932 63.283C45.6932 62.469 45.9572 61.7943 46.4852 61.259C47.0132 60.7237 47.6952 60.456 48.5312 60.456C49.3672 60.456 50.0455 60.7237 50.5662 61.259C51.0942 61.7943 51.3582 62.469 51.3582 63.283C51.3582 64.097 51.0942 64.7717 50.5662 65.307ZM47.0682 64.757C47.4495 65.153 47.9372 65.351 48.5312 65.351C49.1252 65.351 49.6092 65.153 49.9832 64.757C50.3572 64.361 50.5442 63.8697 50.5442 63.283C50.5442 62.6963 50.3572 62.205 49.9832 61.809C49.6092 61.413 49.1252 61.215 48.5312 61.215C47.9372 61.215 47.4495 61.413 47.0682 61.809C46.6942 62.205 46.5072 62.6963 46.5072 63.283C46.5072 63.8697 46.6942 64.361 47.0682 64.757ZM52.6627 66V58.3H53.4767V66H52.6627ZM59.2581 60.566H60.0721V66H59.3461L59.3351 65.12C58.8658 65.7653 58.2058 66.088 57.3551 66.088C56.6511 66.088 56.0938 65.868 55.6831 65.428C55.2724 64.988 55.0671 64.3867 55.0671 63.624V60.566H55.8811V63.58C55.8811 64.1373 56.0168 64.57 56.2881 64.878C56.5668 65.186 56.9554 65.34 57.4541 65.34C57.9894 65.34 58.4221 65.1677 58.7521 64.823C59.0894 64.471 59.2581 64.031 59.2581 63.503V60.566ZM64.1486 60.456C65.0652 60.456 65.7729 60.742 66.2716 61.314C66.7702 61.8787 66.9792 62.6413 66.8986 63.602H62.2236C62.2676 64.152 62.4729 64.5847 62.8396 64.9C63.2062 65.2153 63.6756 65.373 64.2476 65.373C64.5996 65.373 64.9406 65.307 65.2706 65.175C65.6006 65.043 65.8536 64.867 66.0296 64.647L66.5576 65.142C66.3009 65.45 65.9636 65.692 65.5456 65.868C65.1349 66.044 64.6949 66.132 64.2256 66.132C63.3822 66.132 62.6966 65.8717 62.1686 65.351C61.6479 64.823 61.3876 64.1337 61.3876 63.283C61.3876 62.447 61.6442 61.7687 62.1576 61.248C62.6709 60.72 63.3346 60.456 64.1486 60.456ZM64.1706 61.193C63.6279 61.193 63.1842 61.347 62.8396 61.655C62.5022 61.9557 62.3006 62.37 62.2346 62.898H66.1286C66.0992 62.3847 65.9086 61.974 65.5566 61.666C65.2046 61.3507 64.7426 61.193 64.1706 61.193ZM70.6716 60.478C71.1703 60.478 71.5883 60.6063 71.9256 60.863L71.5516 61.545C71.2803 61.369 70.976 61.281 70.6386 61.281C70.1473 61.281 69.7476 61.468 69.4396 61.842C69.1316 62.216 68.9776 62.6963 68.9776 63.283V66H68.1636V60.566H68.9006L68.9116 61.6C69.315 60.852 69.9016 60.478 70.6716 60.478ZM79.8052 58.3H80.6192V66H79.8822L79.8712 65.054C79.6658 65.384 79.3725 65.6443 78.9912 65.835C78.6098 66.0183 78.1808 66.11 77.7042 66.11C76.9122 66.11 76.2595 65.8497 75.7462 65.329C75.2402 64.8083 74.9872 64.1263 74.9872 63.283C74.9872 62.4397 75.2402 61.7577 75.7462 61.237C76.2595 60.7163 76.9122 60.456 77.7042 60.456C78.6428 60.456 79.3432 60.775 79.8052 61.413V58.3ZM76.3622 64.779C76.7362 65.1603 77.2165 65.351 77.8032 65.351C78.3898 65.351 78.8702 65.1603 79.2442 64.779C79.6182 64.3977 79.8052 63.899 79.8052 63.283C79.8052 62.667 79.6182 62.1683 79.2442 61.787C78.8702 61.4057 78.3898 61.215 77.8032 61.215C77.2165 61.215 76.7362 61.4057 76.3622 61.787C75.9882 62.1683 75.8012 62.667 75.8012 63.283C75.8012 63.899 75.9882 64.3977 76.3622 64.779ZM84.6876 60.456C85.6043 60.456 86.3119 60.742 86.8106 61.314C87.3093 61.8787 87.5183 62.6413 87.4376 63.602H82.7626C82.8066 64.152 83.0119 64.5847 83.3786 64.9C83.7453 65.2153 84.2146 65.373 84.7866 65.373C85.1386 65.373 85.4796 65.307 85.8096 65.175C86.1396 65.043 86.3926 64.867 86.5686 64.647L87.0966 65.142C86.8399 65.45 86.5026 65.692 86.0846 65.868C85.6739 66.044 85.2339 66.132 84.7646 66.132C83.9213 66.132 83.2356 65.8717 82.7076 65.351C82.1869 64.823 81.9266 64.1337 81.9266 63.283C81.9266 62.447 82.1833 61.7687 82.6966 61.248C83.2099 60.72 83.8736 60.456 84.6876 60.456ZM84.7096 61.193C84.1669 61.193 83.7233 61.347 83.3786 61.655C83.0413 61.9557 82.8396 62.37 82.7736 62.898H86.6676C86.6383 62.3847 86.4476 61.974 86.0956 61.666C85.7436 61.3507 85.2816 61.193 84.7096 61.193ZM93.5626 65.186H95.0036V66H91.1426V65.186H92.7046V59.29L91.3186 59.686V58.883L93.4526 58.267H93.5626V65.186ZM101.527 65.252C100.933 65.824 100.159 66.11 99.2058 66.11C98.2525 66.11 97.4751 65.8277 96.8738 65.263C96.2725 64.691 95.9718 63.954 95.9718 63.052V61.226C95.9718 60.3313 96.2725 59.6017 96.8738 59.037C97.4751 58.465 98.2525 58.179 99.2058 58.179C100.159 58.179 100.933 58.465 101.527 59.037C102.128 59.6017 102.429 60.3313 102.429 61.226V63.052C102.429 63.9467 102.128 64.68 101.527 65.252ZM97.4898 64.669C97.9298 65.087 98.5018 65.296 99.2058 65.296C99.9098 65.296 100.478 65.087 100.911 64.669C101.351 64.251 101.571 63.712 101.571 63.052V61.226C101.571 60.566 101.351 60.0307 100.911 59.62C100.478 59.202 99.9098 58.993 99.2058 58.993C98.5018 58.993 97.9298 59.202 97.4898 59.62C97.0498 60.0307 96.8298 60.566 96.8298 61.226V63.052C96.8298 63.712 97.0498 64.251 97.4898 64.669ZM106.454 61.061C106.138 61.369 105.731 61.523 105.233 61.523C104.734 61.523 104.323 61.369 104.001 61.061C103.685 60.753 103.528 60.3607 103.528 59.884C103.528 59.4 103.685 59.004 104.001 58.696C104.323 58.388 104.734 58.234 105.233 58.234C105.731 58.234 106.138 58.388 106.454 58.696C106.776 59.004 106.938 59.4 106.938 59.884C106.938 60.3607 106.776 60.753 106.454 61.061ZM104.419 66L109.347 58.3H110.15L105.222 66H104.419ZM104.474 60.621C104.672 60.8117 104.925 60.907 105.233 60.907C105.541 60.907 105.79 60.8117 105.981 60.621C106.179 60.4303 106.278 60.1847 106.278 59.884C106.278 59.576 106.179 59.3267 105.981 59.136C105.79 58.9453 105.541 58.85 105.233 58.85C104.925 58.85 104.672 58.9453 104.474 59.136C104.283 59.3267 104.188 59.576 104.188 59.884C104.188 60.1847 104.283 60.4303 104.474 60.621ZM110.557 65.604C110.241 65.912 109.834 66.066 109.336 66.066C108.837 66.066 108.426 65.912 108.104 65.604C107.788 65.296 107.631 64.9 107.631 64.416C107.631 63.932 107.788 63.536 108.104 63.228C108.426 62.92 108.837 62.766 109.336 62.766C109.834 62.766 110.241 62.92 110.557 63.228C110.879 63.536 111.041 63.932 111.041 64.416C111.041 64.9 110.879 65.296 110.557 65.604ZM108.577 65.164C108.775 65.3547 109.028 65.45 109.336 65.45C109.644 65.45 109.893 65.3547 110.084 65.164C110.282 64.9733 110.381 64.724 110.381 64.416C110.381 64.108 110.282 63.8587 110.084 63.668C109.893 63.4773 109.644 63.382 109.336 63.382C109.028 63.382 108.775 63.4773 108.577 63.668C108.386 63.8587 108.291 64.108 108.291 64.416C108.291 64.724 108.386 64.9733 108.577 65.164ZM117.604 66.11C116.768 66.11 116.082 65.8497 115.547 65.329C115.019 64.8083 114.755 64.1263 114.755 63.283C114.755 62.447 115.019 61.7687 115.547 61.248C116.082 60.72 116.768 60.456 117.604 60.456C118.381 60.456 119.045 60.731 119.595 61.281L119.089 61.82C118.693 61.4167 118.198 61.215 117.604 61.215C117.017 61.215 116.529 61.4057 116.141 61.787C115.759 62.161 115.569 62.6597 115.569 63.283C115.569 63.899 115.759 64.3977 116.141 64.779C116.529 65.1603 117.017 65.351 117.604 65.351C118.22 65.351 118.733 65.142 119.144 64.724L119.65 65.285C119.092 65.835 118.41 66.11 117.604 66.11ZM123.123 60.456C124.04 60.456 124.747 60.742 125.246 61.314C125.745 61.8787 125.954 62.6413 125.873 63.602H121.198C121.242 64.152 121.447 64.5847 121.814 64.9C122.181 65.2153 122.65 65.373 123.222 65.373C123.574 65.373 123.915 65.307 124.245 65.175C124.575 65.043 124.828 64.867 125.004 64.647L125.532 65.142C125.275 65.45 124.938 65.692 124.52 65.868C124.109 66.044 123.669 66.132 123.2 66.132C122.357 66.132 121.671 65.8717 121.143 65.351C120.622 64.823 120.362 64.1337 120.362 63.283C120.362 62.447 120.619 61.7687 121.132 61.248C121.645 60.72 122.309 60.456 123.123 60.456ZM123.145 61.193C122.602 61.193 122.159 61.347 121.814 61.655C121.477 61.9557 121.275 62.37 121.209 62.898H125.103C125.074 62.3847 124.883 61.974 124.531 61.666C124.179 61.3507 123.717 61.193 123.145 61.193ZM130.231 65.142L130.484 65.813C130.08 65.9963 129.699 66.088 129.34 66.088C128.254 66.088 127.712 65.4793 127.712 64.262V61.281H126.612V60.566H127.712V59.048L128.526 58.971V60.566H130.253V61.281H128.526V64.262C128.526 64.614 128.592 64.8853 128.724 65.076C128.856 65.2593 129.087 65.351 129.417 65.351C129.666 65.351 129.937 65.2813 130.231 65.142ZM134.656 65.142L134.909 65.813C134.506 65.9963 134.125 66.088 133.765 66.088C132.68 66.088 132.137 65.4793 132.137 64.262V61.281H131.037V60.566H132.137V59.048L132.951 58.971V60.566H134.678V61.281H132.951V64.262C132.951 64.614 133.017 64.8853 133.149 65.076C133.281 65.2593 133.512 65.351 133.842 65.351C134.092 65.351 134.363 65.2813 134.656 65.142ZM138.291 60.456C139.208 60.456 139.915 60.742 140.414 61.314C140.913 61.8787 141.122 62.6413 141.041 63.602H136.366C136.41 64.152 136.615 64.5847 136.982 64.9C137.349 65.2153 137.818 65.373 138.39 65.373C138.742 65.373 139.083 65.307 139.413 65.175C139.743 65.043 139.996 64.867 140.172 64.647L140.7 65.142C140.443 65.45 140.106 65.692 139.688 65.868C139.277 66.044 138.837 66.132 138.368 66.132C137.525 66.132 136.839 65.8717 136.311 65.351C135.79 64.823 135.53 64.1337 135.53 63.283C135.53 62.447 135.787 61.7687 136.3 61.248C136.813 60.72 137.477 60.456 138.291 60.456ZM138.313 61.193C137.77 61.193 137.327 61.347 136.982 61.655C136.645 61.9557 136.443 62.37 136.377 62.898H140.271C140.242 62.3847 140.051 61.974 139.699 61.666C139.347 61.3507 138.885 61.193 138.313 61.193ZM147.122 66.11C146.154 66.11 145.351 65.813 144.713 65.219L145.142 64.636C145.648 65.1273 146.312 65.373 147.133 65.373C147.58 65.373 147.932 65.296 148.189 65.142C148.453 64.9807 148.585 64.7643 148.585 64.493C148.585 64.2437 148.471 64.053 148.244 63.921C148.024 63.789 147.624 63.6753 147.045 63.58C146.29 63.4773 145.74 63.3013 145.395 63.052C145.058 62.8027 144.889 62.458 144.889 62.018C144.889 61.5413 145.094 61.1637 145.505 60.885C145.916 60.599 146.466 60.456 147.155 60.456C147.969 60.456 148.677 60.6797 149.278 61.127L148.882 61.721C148.383 61.3543 147.819 61.171 147.188 61.171C146.191 61.171 145.692 61.4497 145.692 62.007C145.692 62.2417 145.795 62.4213 146 62.546C146.213 62.6707 146.587 62.777 147.122 62.865C147.943 62.9897 148.526 63.1767 148.871 63.426C149.216 63.6753 149.388 64.0347 149.388 64.504C149.388 64.9807 149.179 65.3693 148.761 65.67C148.35 65.9633 147.804 66.11 147.122 66.11ZM153.019 60.456C153.935 60.456 154.643 60.742 155.142 61.314C155.64 61.8787 155.849 62.6413 155.769 63.602H151.094C151.138 64.152 151.343 64.5847 151.71 64.9C152.076 65.2153 152.546 65.373 153.118 65.373C153.47 65.373 153.811 65.307 154.141 65.175C154.471 65.043 154.724 64.867 154.9 64.647L155.428 65.142C155.171 65.45 154.834 65.692 154.416 65.868C154.005 66.044 153.565 66.132 153.096 66.132C152.252 66.132 151.567 65.8717 151.039 65.351C150.518 64.823 150.258 64.1337 150.258 63.283C150.258 62.447 150.514 61.7687 151.028 61.248C151.541 60.72 152.205 60.456 153.019 60.456ZM153.041 61.193C152.498 61.193 152.054 61.347 151.71 61.655C151.372 61.9557 151.171 62.37 151.105 62.898H154.999C154.969 62.3847 154.779 61.974 154.427 61.666C154.075 61.3507 153.613 61.193 153.041 61.193ZM163.37 60.478C164.059 60.478 164.598 60.687 164.987 61.105C165.383 61.523 165.581 62.1023 165.581 62.843V66H164.767V62.887C164.767 62.3517 164.642 61.941 164.393 61.655C164.151 61.369 163.799 61.226 163.337 61.226C162.867 61.226 162.479 61.391 162.171 61.721C161.87 62.0437 161.72 62.458 161.72 62.964V66H160.906V62.887C160.906 62.3517 160.781 61.941 160.532 61.655C160.29 61.369 159.934 61.226 159.465 61.226C158.995 61.226 158.607 61.391 158.299 61.721C157.998 62.0437 157.848 62.458 157.848 62.964V66H157.034V60.566H157.771L157.782 61.38C158.185 60.7787 158.761 60.478 159.509 60.478C159.949 60.478 160.33 60.577 160.653 60.775C160.983 60.973 161.225 61.2517 161.379 61.611C161.804 60.8557 162.468 60.478 163.37 60.478ZM171.706 60.566H172.443V66H171.706L171.695 65.065C171.483 65.395 171.186 65.6517 170.804 65.835C170.423 66.0183 169.998 66.11 169.528 66.11C168.729 66.11 168.076 65.846 167.57 65.318C167.064 64.79 166.811 64.1117 166.811 63.283C166.811 62.4543 167.064 61.776 167.57 61.248C168.076 60.72 168.729 60.456 169.528 60.456C169.998 60.456 170.419 60.5513 170.793 60.742C171.175 60.9253 171.475 61.182 171.695 61.512L171.706 60.566ZM168.186 64.779C168.56 65.1603 169.041 65.351 169.627 65.351C170.214 65.351 170.694 65.1603 171.068 64.779C171.442 64.3977 171.629 63.899 171.629 63.283C171.629 62.667 171.442 62.1683 171.068 61.787C170.694 61.4057 170.214 61.215 169.627 61.215C169.041 61.215 168.56 61.4057 168.186 61.787C167.812 62.1683 167.625 62.667 167.625 63.283C167.625 63.899 167.812 64.3977 168.186 64.779ZM174.521 59.499C174.352 59.499 174.213 59.4477 174.103 59.345C173.993 59.235 173.938 59.0957 173.938 58.927C173.938 58.7583 173.993 58.619 174.103 58.509C174.213 58.399 174.352 58.344 174.521 58.344C174.697 58.344 174.84 58.399 174.95 58.509C175.06 58.619 175.115 58.7583 175.115 58.927C175.115 59.0957 175.06 59.235 174.95 59.345C174.84 59.4477 174.697 59.499 174.521 59.499ZM174.114 66V60.566H174.928V66H174.114ZM179.345 60.478C180.064 60.478 180.629 60.698 181.039 61.138C181.457 61.578 181.666 62.1793 181.666 62.942V66H180.852V62.986C180.852 62.4287 180.713 61.996 180.434 61.688C180.156 61.38 179.76 61.226 179.246 61.226C178.704 61.226 178.26 61.402 177.915 61.754C177.578 62.0987 177.409 62.535 177.409 63.063V66H176.595V60.566H177.332L177.343 61.435C177.813 60.797 178.48 60.478 179.345 60.478ZM185.664 60.456C186.581 60.456 187.289 60.742 187.787 61.314C188.286 61.8787 188.495 62.6413 188.414 63.602H183.739C183.783 64.152 183.989 64.5847 184.355 64.9C184.722 65.2153 185.191 65.373 185.763 65.373C186.115 65.373 186.456 65.307 186.786 65.175C187.116 65.043 187.369 64.867 187.545 64.647L188.073 65.142C187.817 65.45 187.479 65.692 187.061 65.868C186.651 66.044 186.211 66.132 185.741 66.132C184.898 66.132 184.212 65.8717 183.684 65.351C183.164 64.823 182.903 64.1337 182.903 63.283C182.903 62.447 183.16 61.7687 183.673 61.248C184.187 60.72 184.85 60.456 185.664 60.456ZM185.686 61.193C185.144 61.193 184.7 61.347 184.355 61.655C184.018 61.9557 183.816 62.37 183.75 62.898H187.644C187.615 62.3847 187.424 61.974 187.072 61.666C186.72 61.3507 186.258 61.193 185.686 61.193Z" fill="white"/>
<defs>
<filter id="filter0_d_320_276" x="220" y="19" width="78.9246" height="54.0083" filterUnits="userSpaceOnUse" color-interpolation-filters="sRGB">
<feFlood flood-opacity="0" result="BackgroundImageFix"/>
<feColorMatrix in="SourceAlpha" type="matrix" values="0 0 0 0 0 0 0 0 0 0 0 0 0 0 0 0 0 0 127 0" result="hardAlpha"/>
<feOffset dx="2" dy="1"/>
<feGaussianBlur stdDeviation="2"/>
<feComposite in2="hardAlpha" operator="out"/>
<feColorMatrix type="matrix" values="0 0 0 0 0 0 0 0 0 0 0 0 0 0 0 0 0 0 0.25 0"/>
<feBlend mode="normal" in2="BackgroundImageFix" result="effect1_dropShadow_320_276"/>
<feBlend mode="normal" in="SourceGraphic" in2="effect1_dropShadow_320_276" result="shape"/>
</filter>
<linearGradient id="paint0_linear_320_276" x1="226.476" y1="67.1636" x2="314.05" y2="67.478" gradientUnits="userSpaceOnUse">
<stop stop-color="#FFDDDF"/>
<stop offset="0.171875" stop-color="#F9D7E7"/>
<stop offset="0.390625" stop-color="#E8D7F9"/>
<stop offset="0.734375" stop-color="#D7E1FA"/>
<stop offset="1" stop-color="#D2EFF5"/>
</linearGradient>
</defs>
</svg>
